SplineFontDB: 3.0
FontName: CMUBright-BoldOblique
FullName: CMU Bright Bold Extended Oblique
FamilyName: CMU Bright
Weight: Bold
Copyright: Converted by Andrey V. Panov from TeX fonts
UComments: "2009-6-18: Created." 
Version: 0.7.0
ItalicAngle: -12
UnderlinePosition: -100
UnderlineWidth: 50
Ascent: 800
Descent: 200
LayerCount: 2
Layer: 0 0 "+BBcEMAQ0BD0EOAQ5 +BD8EOwQwBD0A"  1
Layer: 1 0 "+BB8ENQRABDUENAQ9BDgEOQAA +BD8EOwQwBD0A"  0
NeedsXUIDChange: 1
XUID: [1067 14347371]
FSType: 0
OS2Version: 0
OS2_WeightWidthSlopeOnly: 0
OS2_UseTypoMetrics: 1
CreationTime: 1245318715
ModificationTime: 1245319171
PfmFamily: 17
TTFWeight: 700
TTFWidth: 5
LineGap: 200
VLineGap: 90
OS2TypoAscent: 0
OS2TypoAOffset: 1
OS2TypoDescent: 0
OS2TypoDOffset: 1
OS2TypoLinegap: 200
OS2WinAscent: 934
OS2WinAOffset: 0
OS2WinDescent: 339
OS2WinDOffset: 0
HheadAscent: 934
HheadAOffset: 0
HheadDescent: -339
HheadDOffset: 0
Lookup: 1 0 0 "Case substitutions"  {"Case substitutions subtable"  } ['case' ('cyrl' <'dflt' > 'grek' <'dflt' > 'latn' <'dflt' > ) ]
Lookup: 3 0 0 "Greek alternatives"  {"Greek alternatives subtable"  } ['salt' ('grek' <'dflt' > ) ]
Lookup: 1 0 0 "Greek substitutions"  {"Greek substitutions subtable"  } ['locl' ('grek' <'dflt' > ) ]
Lookup: 4 0 1 "Latin Dutch ligatures"  {"Latin Dutch ligatures subtable"  } ['liga' ('latn' <'NLD ' > ) ]
Lookup: 4 0 1 "Latin ligatures excepting Turkic"  {"Latin ligatures excepting Turkic subtable"  } ['liga' ('latn' <'dflt' 'NLD ' 'VIT ' > ) ]
Lookup: 4 0 1 "Latin ligatures"  {"Latin ligatures subtable"  } ['liga' ('latn' <'dflt' 'NLD ' 'VIT ' 'TRK ' 'AZE ' > ) ]
Lookup: 4 0 1 "Cyrillic ligatures"  {"Cyrillic ligatures subtable"  } ['liga' ('cyrl' <'dflt' 'MKD ' 'SRB ' > ) ]
Lookup: 3 0 0 "Latin alternatives"  {"Latin alternatives subtable"  } ['salt' ('latn' <'dflt' > ) ]
Lookup: 3 0 0 "Stilistic set 01"  {"Stilistic set 01 subtable"  } ['ss01' ('latn' <'dflt' > 'grek' <'dflt' > 'cyrl' <'dflt' > ) ]

StartChar: .notdef
Encoding: 0 0 0
Width: 760
Flags: HW
HStem: 10 60<105 655> 705 60<105 655>
VStem: 10 60<112 663> 690 60<112 663>
DStem2: 105 705 70 663 0.702289 -0.711892<5.31938 389.612 448.699 832.991> 70 112 105 70 0.702289 0.711892<0 384.292 443.379 827.672>
LayerCount: 2
Fore
SplineSet
10 10 m 1
 10 765 l 1
 750 765 l 1
 750 10 l 1
 10 10 l 1
70 112 m 1
 346 388 l 1
 70 663 l 1
 70 112 l 1
105 70 m 1
 655 70 l 1
 380 346 l 1
 105 70 l 1
105 705 m 1
 380 429 l 1
 655 705 l 1
 105 705 l 1
414 388 m 1
 690 112 l 1
 690 663 l 1
 414 388 l 1
EndSplineSet
EndChar

StartChar: uni262D
Encoding: 9773 9773 1
Width: 700
Flags: HW
TeX: 117 0
HStem: -1 21G<56 93 593.5 601> 39 76<321.786 462.78> 102 51<140.549 177.987> 466 20G<232 347>
VStem: 129 54<101.776 137.734> 556 82<197.341 366.709>
DStem2: 123 357 178 301 0.707107 0.707107<0 86.9741 130.108 182.434>
LayerCount: 2
Fore
SplineSet
40 18 m 0
 40 64 129 102 129 128 c 0
 129 148 134 153 148 153 c 0xbc
 162 153 164 157 182 180 c 1
 229 156 307 115 390 115 c 0
 438 115 463 128 463 129 c 0
 463 135 406 186 240 363 c 1
 178 301 l 1
 123 357 l 1
 252 486 l 1
 347 470 l 1
 271 393 l 1
 484 190 l 1
 513 165 l 1
 519 165 556 218 556 295 c 0
 556 473 346 588 346 593 c 1
 394 593 638 478 638 267 c 0
 638 167 592 118 580 100 c 1
 636 44 637 42 637 38 c 0xdc
 637 17 605 -1 597 -1 c 2
 596 -1 l 2
 591 -1 590 1 529 62 c 1
 500 51 474 39 428 39 c 0xdc
 297 39 201 138 188 138 c 0
 183 138 182 134 182 130 c 0
 182 126 183 123 183 118 c 0
 183 108 178 102 168 102 c 0
 131 102 122 0 64 -0 c 0
 48 0 40 7 40 18 c 0
EndSplineSet
EndChar

StartChar: florin
Encoding: 402 402 2
Width: 336
Flags: HW
TeX: 102 0
HStem: -178 85<-76.048 67.1424> 400 72<130 170 316 399> 633 73<360.364 489.401>
DStem2: 47.4304 -178 181.117 -178 0.207912 0.978148<88.0676 590.853 691.635 832.329>
LayerCount: 2
Fore
SplineSet
-108 -148 m 1
 -66 -76 l 1
 -44 -87 -28 -93 2 -93 c 0
 60 -93 70 -75 74 -53 c 2
 170 400 l 1
 114 400 l 1
 130 472 l 1
 185 472 l 1
 205 563 212 706 439 706 c 0
 476 706 496 702 528 695 c 1
 507 594 l 1
 494 608 476 633 422 633 c 0
 336 633 340 582 316 472 c 1
 415 472 l 1
 399 400 l 1
 305 400 l 1
 213 -28 l 2
 199 -94 179 -178 35 -178 c 0
 -22 -178 -63 -168 -108 -148 c 1
EndSplineSet
EndChar

StartChar: longs
Encoding: 383 383 3
Width: 336
Flags: HW
TeX: 108 0
HStem: 0 21G<85 223.237> 633 73<360.839 489.401>
DStem2: 85 0 219 0 0.207912 0.978148<27.8602 650.408>
AnchorPoint: "above" 437 695 basechar 0
AnchorPoint: "below" 152 0 basechar 0
LayerCount: 2
Fore
SplineSet
85 0 m 1
 185 472 l 2
 205 563 212 706 439 706 c 0
 476 706 496 702 528 695 c 1
 507 594 l 1
 494 608 476 633 422 633 c 0
 336 633 343 582 319 472 c 2
 219 0 l 1
 85 0 l 1
EndSplineSet
EndChar

StartChar: circumflex.cap
Encoding: 65536 -1 4
Width: 550
Flags: HW
HStem: 729 185<371 414>
AnchorPoint: "above" 427 717 mark 0
LayerCount: 2
Fore
SplineSet
256 729 m 1
 414 914 l 1
 574 914 l 1
 604 730 l 1
 572 729 l 1
 531 729 l 1
 453 840 l 1
 328 729 l 1
 256 729 l 1
EndSplineSet
EndChar

StartChar: caron.cap
Encoding: 65539 -1 7
Width: 550
Flags: HW
HStem: 729 174
AnchorPoint: "above" 427 717 mark 0
LayerCount: 2
Fore
SplineSet
287 903 m 1
 360 903 l 1
 445 800 l 1
 573 903 l 1
 646 903 l 1
 489 729 l 1
 371 729 l 1
 287 903 l 1
EndSplineSet
EndChar

StartChar: ring.cap
Encoding: 65540 -1 8
Width: 550
Flags: HW
HStem: 657 72<380.206 490.641> 830 73<389.533 502.797>
VStem: 313 64<732.514 817.408> 504 63<742.383 826.776>
AnchorPoint: "above" 427 717 mark 0
LayerCount: 2
Fore
SplineSet
313 741 m 0
 313 781 331 903 467 903 c 0
 539 903 567 869 567 819 c 0
 567 762 540 657 413 657 c 0
 325 657 313 708 313 741 c 0
377 760 m 0
 377 730 404 730 427 729 c 1
 436 729 l 2
 467 729 504 738 504 799 c 0
 504 829 477 830 455 830 c 2
 442 830 l 2
 424 830 377 829 377 760 c 0
EndSplineSet
EndChar

StartChar: breve.cap
Encoding: 65541 -1 9
Width: 550
Flags: HW
HStem: 729 95<372.978 525.428>
VStem: 275 75<849.839 903> 583 73<867.387 903>
AnchorPoint: "above" 427 717 mark 0
LayerCount: 2
Fore
SplineSet
275 869 m 0
 275 883 278 896 278 903 c 1
 351 903 l 1
 351 900 350 897 350 894 c 0
 350 838 411 824 449 824 c 0
 489 824 565 838 583 903 c 1
 656 903 l 1
 635 805 533 729 431 729 c 0
 343 729 275 785 275 869 c 0
EndSplineSet
EndChar

StartChar: uni026A
Encoding: 618 618 10
Width: 288
Flags: HW
HStem: 0 21G<67 225.167> 452 20G<162.833 321>
VStem: 67 254
DStem2: 67 0 221 0 0.207912 0.978148<32.0184 73.5453 75.6244 438.871 440.95 482.477>
AnchorPoint: "affricate-below" 253 -167 basechar 0
AnchorPoint: "affricate-above" 436 695 basechar 0
AnchorPoint: "below" 144 0 basechar 0
AnchorPoint: "above" 248 489 basechar 0
LayerCount: 2
Back
SplineSet
76 0 m 1
 176 472 l 1
 313 472 l 1
 213 0 l 1
 76 0 l 1
EndSplineSet
Fore
SplineSet
67 0 m 1
 82 72 l 1
 92 72 l 1
 162 400 l 1
 152 400 l 1
 167 472 l 1
 321 472 l 1
 306 400 l 1
 296 400 l 1
 226 72 l 1
 236 72 l 1
 221 0 l 1
 67 0 l 1
EndSplineSet
EndChar

StartChar: grave
Encoding: 96 96 11
Width: 550
Flags: HW
TeX: 679 0
HStem: 542 139<383 388>
VStem: 251 205
LayerCount: 2
Fore
SplineSet
251 681 m 1
 388 681 l 1
 456 542 l 1
 383 542 l 1
 251 681 l 1
EndSplineSet
EndChar

StartChar: acute
Encoding: 180 180 12
Width: 550
Flags: HW
TeX: 679 0
ItalicCorrection: 83
HStem: 542 138
VStem: 323 264
LayerCount: 2
Fore
SplineSet
323 542 m 1
 451 681 l 1
 536 681 l 1
 587 680 l 1
 396 542 l 1
 323 542 l 1
EndSplineSet
EndChar

StartChar: circumflex
Encoding: 710 710 13
Width: 550
Flags: HW
TeX: 679 0
HStem: 541 151
LayerCount: 2
Fore
SplineSet
216 541 m 1
 367 692 l 1
 476 692 l 1
 564 541 l 1
 491 541 l 1
 409 631 l 1
 285 538 294 541 276 541 c 2
 216 541 l 1
EndSplineSet
EndChar

StartChar: tilde
Encoding: 732 732 14
Width: 550
Flags: HW
TeX: 679 0
ItalicCorrection: 83
HStem: 521 73<424.629 508.212>
VStem: 202 73<521 559.451> 522 73<606.64 646>
LayerCount: 2
Fore
SplineSet
202 521 m 1
 222 602 284 646 339 646 c 0
 412 646 431 594 471 594 c 0
 477 594 510 596 522 646 c 1
 595 646 l 1
 582 586 529 521 458 521 c 0
 385 521 369 570 325 573 c 1
 318 572 290 573 275 521 c 1
 202 521 l 1
EndSplineSet
EndChar

StartChar: ring
Encoding: 730 730 17
Width: 792
Flags: HW
TeX: 679 0
HStem: 506 35<462.478 564.737> 645 36<475.817 581.073>
VStem: 397 61<544.463 631.119> 584 62<555.1 641.686>
LayerCount: 2
Fore
SplineSet
397 574 m 0
 397 617 422 681 541 681 c 0
 597 681 646 667 646 613 c 0
 646 570 621 506 501 506 c 0
 444 506 397 521 397 574 c 0
458 575 m 0
 458 543 488 541 510 541 c 0
 544 542 573 544 583 597 c 0
 584 602 584 607 584 612 c 0
 584 643 559 645 534 645 c 0
 501 645 470 644 460 590 c 0
 459 585 458 580 458 575 c 0
EndSplineSet
EndChar

StartChar: caron
Encoding: 711 711 18
Width: 550
Flags: HW
TeX: 679 0
HStem: 541 139
LayerCount: 2
Fore
SplineSet
234 680 m 1
 307 680 l 1
 401 594 l 1
 532 681 527 681 547 681 c 0
 551 681 555 680 559 680 c 2
 605 680 l 1
 445 541 l 1
 335 541 l 1
 234 680 l 1
EndSplineSet
EndChar

StartChar: breve
Encoding: 728 728 19
Width: 550
Flags: HW
TeX: 679 0
ItalicCorrection: 89
HStem: 517 94<322.595 482.854>
VStem: 227 75<631.757 680> 535 73<645.721 680>
LayerCount: 2
Fore
SplineSet
227 650 m 0
 227 659 227 656 230 680 c 1
 303 680 l 1
 303 678 302 676 302 674 c 0
 302 618 370 611 405 611 c 0
 462 611 521 630 535 680 c 1
 608 680 l 1
 588 585 486 517 385 517 c 0
 297 517 227 570 227 650 c 0
EndSplineSet
EndChar

StartChar: macron
Encoding: 175 175 20
Width: 550
Flags: HW
TeX: 679 0
ItalicCorrection: 98
HStem: 615 85<225 604>
LayerCount: 2
Fore
SplineSet
207 615 m 1
 225 700 l 1
 622 700 l 1
 604 615 l 1
 207 615 l 1
EndSplineSet
EndChar

StartChar: dotaccent
Encoding: 729 729 21
Width: 306
Flags: HW
TeX: 694 0
ItalicCorrection: 97
HStem: 547 148<241 358>
VStem: 210 179
LayerCount: 2
Fore
SplineSet
210 547 m 1
 241 695 l 1
 389 695 l 1
 358 547 l 1
 210 547 l 1
EndSplineSet
EndChar

StartChar: cedilla
Encoding: 184 184 22
Width: 489
Flags: HW
TeX: 0 145
HStem: -168 145 -43 20G<203 263.31>
VStem: 80 196
LayerCount: 2
Fore
SplineSet
80 -168 m 1xa0
 203 -23 l 1
 276 -23 l 1x60
 184 -168 l 1
 80 -168 l 1xa0
EndSplineSet
EndChar

StartChar: ogonek
Encoding: 731 731 23
Width: 306
Flags: HW
TeX: 0 166
HStem: -223 104<-8.5 103.372>
VStem: -86 289
LayerCount: 2
Fore
SplineSet
-86 -138 m 0
 -86 -94 -47 -53 -0 -27 c 0
 56 4 106 13 163 57 c 1
 184 0 l 1
 141 -34 69 -62 61 -104 c 1
 62 -113 69 -119 81 -119 c 0
 98 -119 124 -106 152 -74 c 1
 203 -115 l 1
 203 -116 l 1
 130 -205 63 -223 20 -223 c 0
 -37 -223 -86 -189 -86 -138 c 0
EndSplineSet
EndChar

StartChar: guilsinglleft
Encoding: 8249 8249 25
Width: 428
Flags: HW
TeX: 500 0
ItalicCorrection: 45
VStem: 175 221
LayerCount: 2
Fore
SplineSet
175 250 m 1
 323 427 l 1
 396 427 l 1
 321 270 312 256 312 241 c 0
 312 236 317 129 320 73 c 1
 248 73 l 1
 175 250 l 1
EndSplineSet
EndChar

StartChar: guilsinglright
Encoding: 8250 8250 26
Width: 428
Flags: HW
TeX: 500 0
ItalicCorrection: 45
VStem: 137 221
LayerCount: 2
Fore
SplineSet
137 73 m 1
 211 228 l 1
 220 250 l 1
 220 273 l 1
 212 427 l 1
 285 427 l 1
 358 250 l 1
 210 73 l 1
 137 73 l 1
EndSplineSet
EndChar

StartChar: guillemotleft.lat
Encoding: 61696 61696 30
Width: 550
Flags: HW
TeX: 500 0
ItalicCorrection: 85
LayerCount: 2
Fore
SplineSet
126 249 m 1
 126 250 l 1
 299 427 l 1
 371 427 l 1
 275 270 264 256 264 246 c 0
 264 239 268 218 296 73 c 1
 224 73 l 1
 126 249 l 1
358 249 m 1
 358 250 l 1
 531 427 l 1
 604 427 l 1
 506 268 496 256 496 246 c 0
 496 239 500 218 528 73 c 1
 456 73 l 1
 358 249 l 1
EndSplineSet
EndChar

StartChar: guillemotright.lat
Encoding: 61697 61697 31
Width: 550
Flags: HW
TeX: 500 0
ItalicCorrection: 11
LayerCount: 2
Fore
SplineSet
52 73 m 1
 150 233 159 244 159 254 c 0
 159 261 154 282 127 427 c 1
 200 427 l 1
 297 250 l 1
 125 73 l 1
 52 73 l 1
284 73 m 1
 382 233 391 244 391 254 c 0
 391 261 386 282 359 427 c 1
 432 427 l 1
 530 250 l 1
 357 73 l 1
 284 73 l 1
EndSplineSet
EndChar

StartChar: endash
Encoding: 8211 8211 32
Width: 550
Flags: HW
TeX: 472 0
ItalicCorrection: 92
HStem: 256 72<70 604>
LayerCount: 2
Fore
SplineSet
54 256 m 1
 70 328 l 1
 619 328 l 1
 604 256 l 1
 54 256 l 1
EndSplineSet
EndChar

StartChar: emdash
Encoding: 8212 8212 33
Width: 1100
Flags: HW
TeX: 472 0
ItalicCorrection: 92
HStem: 256 72<70 1154>
LayerCount: 2
Fore
SplineSet
54 256 m 1
 70 328 l 1
 1169 328 l 1
 1154 256 l 1
 54 256 l 1
EndSplineSet
Substitution2: "Cyrillic substitutions subtable" emdash.cyr
AlternateSubs2: "Cyrillic alternatives subtable" emdash.cyr
EndChar

StartChar: dotlessi
Encoding: 305 305 35
Width: 256
Flags: HW
TeX: 472 0
ItalicCorrection: 71
HStem: 0 21G<60 198.237> 452 20G<155.763 294>
VStem: 60 234
DStem2: 60 0 194 0 0.207912 0.978148<27.8602 482.477>
AnchorPoint: "below" 127 0 basechar 0
AnchorPoint: "above" 231 489 basechar 0
LayerCount: 2
Fore
SplineSet
60 0 m 1
 160 472 l 1
 294 472 l 1
 194 0 l 1
 60 0 l 1
EndSplineSet
EndChar

StartChar: dotlessj
Encoding: 567 567 36
Width: 286
Flags: HW
TeX: 472 166
ItalicCorrection: 71
HStem: -178 85<-69.9507 70.6187> 452 20G<187.733 326>
DStem2: 53.4304 -178 187.117 -178 0.207912 0.978148<90.2486 664.606>
AnchorPoint: "below" 77 -167 basechar 0
AnchorPoint: "above" 262 489 basechar 0
LayerCount: 2
Fore
SplineSet
-102 -148 m 1
 -60 -76 l 1
 -41 -85 -26 -93 8 -93 c 0
 70 -93 76 -72 80 -53 c 2
 192 472 l 1
 326 472 l 1
 219 -28 l 2
 207 -82 192 -178 41 -178 c 0
 -16 -178 -56 -168 -102 -148 c 1
EndSplineSet
EndChar

StartChar: ff
Encoding: 64256 64256 37
Width: 642
Flags: HW
TeX: 694 0
ItalicCorrection: 223
HStem: 0 21G<85 223.25 390 528.25> 400 72<130 170 316 399 622 705> 633 73<361.331 489.201 665.573 794.451>
DStem2: 85 0 219 0 0.207912 0.978148<27.8602 408.932 509.713 653.044> 390 0 524 0 0.207912 0.978148<27.8602 436.792 509.921 649.323>
LayerCount: 2
Fore
SplineSet
390 0 m 1
 500 515 l 2
 516 589 538 706 744 706 c 0
 786 706 807 701 834 695 c 1
 812 594 l 1
 792 615 776 633 727 633 c 0
 644 633 646 586 622 472 c 1
 720 472 l 1
 705 400 l 1
 609 400 l 1
 524 0 l 1
 390 0 l 1
EndSplineSet
Refer: 112 102 S 1 0 0 1 0 0 2
Ligature2: "Latin ligatures subtable" f f
EndChar

StartChar: fi
Encoding: 64257 64257 38
Width: 586
Flags: HW
TeX: 694 0
ItalicCorrection: 122
HStem: 0 21G<85 223.25 390 528.237> 400 72<130 170 316 408> 452 20<485.763 624> 561 134<538 643> 633 73<353.68 449.185>
VStem: 390 234
DStem2: 85 0 219 0 0.207912 0.978148<27.8602 408.932 509.713 659.352> 390 0 524 0 0.207912 0.978148<27.8602 482.477>
LayerCount: 2
Fore
SplineSet
85 0 m 1
 170 400 l 1
 114 400 l 1
 130 472 l 1xc4
 185 472 l 1
 204 564 216 706 403 706 c 0xac
 428 706 445 704 471 695 c 1x94
 448 589 l 1
 447 589 l 1
 440 612 426 633 391 633 c 0x8c
 341 633 339 579 316 472 c 1xcc
 424 472 l 1xa4
 408 400 l 1
 304 400 l 1
 219 0 l 1
 85 0 l 1
509 561 m 1
 538 695 l 1
 671 695 l 1x94
 643 561 l 1
 509 561 l 1
EndSplineSet
Refer: 35 305 S 1 0 0 1 330 0 2
Ligature2: "Latin ligatures excepting Turkic subtable" f i
EndChar

StartChar: fl
Encoding: 64258 64258 39
Width: 586
Flags: HW
TeX: 694 0
ItalicCorrection: 118
HStem: 0 21G<85 223.25 390 528.23> 400 72<130 170 316 408> 633 73<353.68 450.124> 675 20<537 671>
VStem: 390 281
DStem2: 85 0 219 0 0.207912 0.978148<27.8602 408.932 509.713 659.352> 390 0 524 0 0.207912 0.978148<27.8602 709.397>
LayerCount: 2
Fore
SplineSet
85 0 m 1
 170 400 l 1
 114 400 l 1
 130 472 l 1
 185 472 l 1
 204 564 216 706 403 706 c 0xe8
 428 706 445 704 471 695 c 1xd8
 449 594 l 1
 440 613 426 633 391 633 c 0xe8
 341 633 339 580 316 472 c 1
 424 472 l 1
 408 400 l 1
 304 400 l 1
 219 0 l 1
 85 0 l 1
EndSplineSet
Refer: 118 108 S 1 0 0 1 330 0 2
Ligature2: "Latin ligatures subtable" f l
EndChar

StartChar: ffi
Encoding: 64259 64259 40
Width: 892
Flags: HW
TeX: 694 0
ItalicCorrection: 122
HStem: -0 21G<85 223.25 390 528.25 696 834.237> 400 72<130 170 316 408 622 713> 452 20<791.763 930> 561 134<843 948> 633 73<357.064 462.518 658.483 742.62>
VStem: 696 234
DStem2: 85 0 219 0 0.207912 0.978148<27.8602 408.932 509.713 655.765> 390 0 524 0 0.207912 0.978148<27.8602 436.792 509.921 656.615> 696 0 830 0 0.207912 0.978148<27.8602 482.477>
LayerCount: 2
Fore
SplineSet
85 -0 m 1
 170 400 l 1
 114 400 l 1
 130 472 l 1xc4
 185 472 l 1xa4
 205 566 214 706 421 706 c 0
 457 706 475 701 498 695 c 1x94
 476 594 l 1
 464 612 448 633 406 633 c 0
 341 633 341 589 316 472 c 1xcc
 424 472 l 1xa4
 408 400 l 1
 304 400 l 1
 219 -0 l 1
 85 -0 l 1
390 -0 m 1
 501 520 l 2
 515 587 537 706 711 706 c 0
 742 706 757 702 777 698 c 1
 754 591 l 1
 746 611 732 633 696 633 c 0xcc
 646 633 645 581 622 472 c 1xcc
 729 472 l 1xa4
 713 400 l 1
 609 400 l 1
 524 -0 l 1
 390 -0 l 1
815 561 m 1
 843 695 l 1
 977 695 l 1x94
 948 561 l 1
 815 561 l 1
EndSplineSet
Refer: 35 305 S 1 0 0 1 636 0 2
Ligature2: "Latin ligatures excepting Turkic subtable" ff i
Ligature2: "Latin ligatures excepting Turkic subtable" f f i
EndChar

StartChar: ffl
Encoding: 64260 64260 41
Width: 892
Flags: HW
TeX: 694 0
ItalicCorrection: 118
HStem: 0 21G<85 223.25 390 528.25 696 834.23> 400 72<130 170 316 408 622 713> 633 73<357.195 462.518 660.144 743.26> 675 20<843 977>
VStem: 696 281
DStem2: 85 0 219 0 0.207912 0.978148<27.8602 408.932 509.713 655.765> 390 0 524 0 0.207912 0.978148<27.8602 436.792 509.921 657.708> 696 0 830 0 0.207912 0.978148<27.8602 709.397>
LayerCount: 2
Fore
SplineSet
85 0 m 1
 170 400 l 1
 114 400 l 1
 130 472 l 1
 185 472 l 1
 205 567 215 706 421 706 c 0
 457 706 475 701 498 695 c 1xd8
 476 594 l 1
 464 612 448 633 406 633 c 0
 341 633 341 589 316 472 c 1
 424 472 l 1
 408 400 l 1
 304 400 l 1
 219 0 l 1
 85 0 l 1
390 0 m 1
 500 515 l 2
 512 571 529 706 708 706 c 0xe8
 740 706 756 701 776 695 c 1xd8
 754 594 l 1
 746 610 732 633 697 633 c 0xe8
 647 633 645 580 622 472 c 1
 729 472 l 1
 713 400 l 1
 609 400 l 1
 524 0 l 1
 390 0 l 1
EndSplineSet
Refer: 118 108 S 1 0 0 1 636 0 2
Ligature2: "Latin ligatures subtable" ff l
Ligature2: "Latin ligatures subtable" f f l
EndChar

StartChar: uni2423
Encoding: 9251 9251 42
Width: 550
Flags: HW
TeX: 472 83
ItalicCorrection: 37
HStem: -109 51<84 440>
VStem: 96 53<206.09 273.064>
DStem2: 21.9856 -109 73.1596 -109 0.207912 0.978148<62.779 379.061> 429.16 -109 480.285 -109 0.207912 0.978148<52.1394 381.958>
LayerCount: 2
Fore
SplineSet
28 -86 m 0
 28 -83 28 -80 29 -76 c 2
 96 239 l 1
 96 239 100 275 128 275 c 0
 144 275 149 263 149 252 c 0
 149 242 146 233 146 232 c 2
 84 -58 l 1
 440 -58 l 1
 502 237 l 2
 502 239 506 275 535 275 c 0
 546 275 556 268 556 255 c 0
 556 245 553 234 552 228 c 2
 489 -68 l 2
 481 -105 468 -109 441 -109 c 2
 56 -109 l 2
 48 -109 28 -108 28 -86 c 0
EndSplineSet
EndChar

StartChar: exclam
Encoding: 33 33 43
Width: 367
Flags: HW
TeX: 694 0
ItalicCorrection: 60
HStem: 0 131<145 248> 675 20G<264 396>
VStem: 117 159
LayerCount: 2
Fore
SplineSet
177 217 m 1
 264 694 l 1
 265 695 l 1
 396 695 l 1
 281 217 l 1
 177 217 l 1
EndSplineSet
Refer: 56 46 S 1 0 0 1 31 -0 2
EndChar

StartChar: quotedbl
Encoding: 34 34 44
Width: 550
Flags: HW
TeX: 694 0
ItalicCorrection: 62
HStem: 397 298<261 303 445 487>
VStem: 414 168
LayerCount: 2
Fore
SplineSet
230 398 m 1
 261 695 l 1
 398 695 l 1
 303 397 l 1
 262 397 l 1
 230 398 l 1
EndSplineSet
Refer: 281 39 S 1 0 0 1 214 0 2
EndChar

StartChar: numbersign
Encoding: 35 35 45
Width: 917
Flags: HW
TeX: 694 166
ItalicCorrection: 59
HStem: -166 21G<180 197 418 435> 109 72<95.231 273 393 511 631 882.257> 346 73<145.18 395 515 634 753 931.453> 674 20G<586.5 607.5 824.5 845.5>
VStem: 155 77<-161.271 -132> 394 76<-161.271 -132> 559 74<664 689.924>
DStem2: 273 109 355 109 0.458072 0.888915<-239.475 0 118.97 266.558 386.417 625.599> 511 109 593 109 0.459336 0.888263<-236.97 0 119.075 267.017 386.521 623.437>
LayerCount: 2
Fore
SplineSet
92 145 m 0
 92 159 101 176 120 180 c 0
 126 181 133 181 139 181 c 2
 311 181 l 1
 395 346 l 1
 187 346 l 2
 147 346 142 370 142 382 c 0
 142 396 149 419 189 419 c 2
 433 419 l 1
 559 664 l 2
 566 678 576 694 597 694 c 0
 618 694 633 677 633 659 c 0
 633 644 627 636 515 419 c 1
 672 419 l 1
 798 664 l 2
 805 678 814 694 835 694 c 0
 856 694 871 677 871 659 c 0
 871 644 865 636 753 419 c 1
 885 419 l 2
 893 419 901 419 908 417 c 0
 918 414 935 403 935 382 c 0
 935 363 920 350 906 347 c 0
 900 346 894 346 888 346 c 2
 715 346 l 1
 631 181 l 1
 826 181 l 2
 831 181 835 182 839 182 c 0
 880 182 885 157 885 145 c 0
 885 130 877 109 837 109 c 2
 593 109 l 1
 470 -132 l 2
 452 -167 442 -165 428 -166 c 1
 408 -165 394 -148 394 -130 c 0
 394 -115 406 -97 511 109 c 1
 355 109 l 1
 232 -132 l 2
 214 -167 204 -165 190 -166 c 1
 170 -165 155 -148 155 -130 c 0
 155 -115 168 -97 273 109 c 1
 142 109 l 2
 134 109 126 109 119 111 c 0
 103 115 92 129 92 145 c 0
393 181 m 1
 550 181 l 1
 634 346 l 1
 477 346 l 1
 393 181 l 1
EndSplineSet
EndChar

StartChar: dollar
Encoding: 36 36 46
Width: 550
Flags: HW
TeX: 750 55
ItalicCorrection: 117
HStem: -9 103<174.716 236 330 369.529> 602 102<321.364 365 460 516.58>
VStem: 162 125<437.5 556.415> 412 126<154.428 333.546>
DStem2: 226 -56 299 -56 0.207912 0.978148<15.1776 47.0739 168.345 354.476 513.069 672.521 792.044 823.94>
LayerCount: 2
Fore
SplineSet
60 58 m 1
 103 168 l 1
 155 119 187 103 257 91 c 1
 300 294 l 1
 264 303 229 314 199 350 c 0
 174 380 162 418 162 457 c 0
 162 506 184 576 219 620 c 0
 265 679 324 696 387 704 c 1
 397 750 l 1
 470 750 l 1
 460 704 l 1
 520 700 563 681 607 650 c 1
 567 545 l 1
 552 557 514 596 439 603 c 1
 401 429 l 1
 401 429 538 407 538 257 c 0
 538 219 515 11 308 -9 c 1
 299 -56 l 1
 226 -56 l 1
 236 -10 l 1
 163 -1 119 15 60 58 c 1
287 509 m 0
 287 473 309 457 332 446 c 1
 365 602 l 1
 364 602 l 1
 296 582 287 531 287 509 c 0
330 94 m 1
 398 113 412 178 412 206 c 0
 412 248 387 265 369 276 c 1
 330 94 l 1
EndSplineSet
EndChar

StartChar: percent
Encoding: 37 37 47
Width: 1029
Flags: HW
TeX: 750 55
ItalicCorrection: 28
HStem: -56 73<751.333 834.65> 274 73<795.701 882.658> 347 73<291.939 376.033> 677 73<337.239 423.17>
VStem: 169 116<426.739 585.537> 433 115<501.788 668.373> 628 117<23.7392 185.438> 892 115<98.6515 265.697>
DStem2: 221 26 280 -33 0.694776 0.719226<-43.4444 1018.02>
LayerCount: 2
Fore
SplineSet
169 479 m 0
 169 517 178 551 183 572 c 0
 208 665 266 750 402 750 c 0
 475 750 548 724 548 620 c 0
 548 584 539 548 535 530 c 0
 511 434 453 347 317 347 c 0
 243 347 169 374 169 479 c 0
199 -14 m 0
 199 4 211 16 221 26 c 2
 899 728 l 2
 907 736 920 750 938 750 c 0
 960 750 980 732 980 709 c 0
 980 693 970 682 962 673 c 2
 280 -33 l 2
 271 -42 260 -55 240 -55 c 0
 216 -55 199 -36 199 -14 c 0
285 468 m 0
 285 430 311 420 332 420 c 0
 420 420 433 605 433 613 c 0
 433 667 405 677 386 677 c 0
 359 677 338 660 329 647 c 0
 310 618 285 500 285 468 c 0
628 76 m 0
 628 113 638 150 642 168 c 0
 675 293 755 347 862 347 c 0
 935 347 1007 322 1007 217 c 0
 1007 181 998 145 994 127 c 0
 970 31 911 -56 776 -56 c 0
 702 -56 628 -29 628 76 c 0
745 65 m 0
 745 27 770 17 791 17 c 0
 871 17 892 177 892 210 c 0
 892 265 864 274 845 274 c 0
 836 274 807 272 788 243 c 0
 764 206 745 84 745 65 c 0
EndSplineSet
EndChar

StartChar: ampersand
Encoding: 38 38 48
Width: 831
Flags: HW
TeX: 694 0
ItalicCorrection: 33
HStem: -22 100<225.359 377.027 573.833 767.014> 644 73<422.734 508.381>
VStem: 73 142<86.2977 195.385> 256 118<403.969 535.234> 517 115<510.386 636.852>
LayerCount: 2
Fore
SplineSet
73 116 m 0
 73 145 83 213 163 270 c 0
 173 277 183 283 264 332 c 1
 259 358 256 384 256 410 c 0
 256 576 367 717 490 717 c 0
 568 717 632 666 632 584 c 0
 632 535 617 465 397 336 c 1
 408 308 426 257 500 163 c 1
 597 234 678 339 727 444 c 1
 821 417 l 1
 762 297 674 184 569 102 c 1
 601 85 623 78 660 78 c 0
 720 78 763 93 790 101 c 1
 768 -5 l 1
 718 -18 677 -22 638 -22 c 0
 602 -22 533 -18 460 33 c 1
 459 33 l 1
 382 -7 302 -22 242 -22 c 0
 130 -22 73 45 73 116 c 0
215 140 m 0
 215 109 226 78 266 78 c 0
 313 78 361 92 384 100 c 1
 341 153 316 186 283 266 c 1
 282 266 l 1
 265 255 234 237 220 180 c 0
 217 167 215 154 215 140 c 0
374 469 m 0
 374 447 375 425 379 403 c 1
 480 470 514 510 517 585 c 1
 516 633 491 644 474 644 c 0
 434 644 374 605 374 469 c 0
EndSplineSet
EndChar

StartChar: quoteright
Encoding: 8217 8217 49
Width: 306
Flags: HW
TeX: 694 0
ItalicCorrection: 90
HStem: 452 243<245 248>
VStem: 183 182
LayerCount: 2
Fore
SplineSet
183 452 m 1
 245 563 l 1
 206 563 l 1
 234 695 l 1
 365 695 l 1
 338 563 l 1
 248 452 l 1
 183 452 l 1
EndSplineSet
EndChar

StartChar: parenleft
Encoding: 40 40 50
Width: 428
Flags: HW
TeX: 750 222
ItalicCorrection: 128
VStem: 123 127<-53.814 234.546>
LayerCount: 2
Fore
SplineSet
123 102 m 0
 123 307 217 579 430 735 c 0
 443 745 449 750 467 750 c 2
 525 750 l 1
 476 702 364 601 294 333 c 0
 279 275 250 154 250 34 c 0
 250 -120 299 -190 318 -223 c 1
 245 -223 l 1
 206 -185 123 -93 123 102 c 0
EndSplineSet
EndChar

StartChar: parenright
Encoding: 41 41 51
Width: 428
Flags: HW
TeX: 750 222
ItalicCorrection: 25
VStem: 288 127<299.224 581.295>
LayerCount: 2
Fore
SplineSet
13 -223 m 1
 73 -162 214 -37 275 340 c 0
 283 390 288 442 288 493 c 0
 288 647 239 717 220 750 c 1
 293 750 l 1
 322 719 415 633 415 426 c 0
 415 218 319 -52 108 -207 c 0
 95 -217 89 -223 71 -223 c 0
 52 -223 32 -223 13 -223 c 1
EndSplineSet
EndChar

StartChar: asterisk
Encoding: 42 42 52
Width: 550
Flags: HW
TeX: 750 0
ItalicCorrection: 113
HStem: 558 102<217.57 283.327>
VStem: 290 107<291.301 371.481> 372 106<653.309 736.296>
LayerCount: 2
Fore
SplineSet
158 415 m 0
 158 465 186 465 344 514 c 1
 332 519 320 523 223 558 c 0
 209 563 195 570 195 592 c 0
 195 624 230 660 261 660 c 0
 283 660 283 653 372 550 c 1
 372 687 l 2
 372 744 422 750 434 750 c 0
 457 750 478 736 478 714 c 0xa0
 478 699 474 696 413 551 c 1
 543 652 548 660 568 660 c 0
 594 660 611 637 611 614 c 0
 611 598 604 582 592 572 c 0
 581 562 586 564 424 515 c 1
 572 461 573 465 573 437 c 0
 573 405 538 368 507 368 c 0
 485 368 485 376 397 478 c 1
 397 341 l 2
 397 283 346 278 334 278 c 0
 311 278 290 293 290 314 c 0
 290 326 288 318 356 478 c 1
 222 373 221 369 200 369 c 0xc0
 175 369 158 392 158 415 c 0
EndSplineSet
EndChar

StartChar: plus
Encoding: 43 43 53
Width: 672
Flags: HW
TeX: 538 11
ItalicCorrection: 25
HStem: -11 21G<332 357.5> 227 73<120.798 347 437 662.572>
VStem: 305 74<-7.02359 127.886> 411 67<431.526 536.312>
DStem2: 296.412 -11 370.412 -11 0.207912 0.978148<37.4002 243.317 333.434 538.962>
LayerCount: 2
Fore
SplineSet
117 264 m 0
 117 272 121 300 162 300 c 2
 362 300 l 1
 408 518 406 511 411 519 c 0
 417 531 430 539 443 539 c 0
 461 539 478 524 478 502 c 0
 478 489 478 497 437 300 c 1
 606 300 l 2
 626 300 638 300 649 294 c 0
 660 287 666 275 666 263 c 0
 666 253 662 227 621 227 c 2
 421 227 l 1
 417 207 413 187 379 28 c 0
 379 26 374 -11 341 -11 c 0
 323 -11 305 3 305 25 c 0
 305 34 304 26 347 227 c 1
 177 227 l 2
 157 227 146 227 135 233 c 0
 124 240 117 252 117 264 c 0
EndSplineSet
EndChar

StartChar: comma
Encoding: 44 44 54
Width: 306
Flags: HW
TeX: 130 111
HStem: -111 242<126 144.583>
VStem: 63 182
LayerCount: 2
Fore
SplineSet
63 -111 m 1
 126 0 l 1
 86 0 l 1
 114 131 l 1
 245 131 l 1
 222 20 l 1
 217 1 l 1
 189 -38 157 -73 128 -111 c 1
 63 -111 l 1
EndSplineSet
EndChar

StartChar: hyphen
Encoding: 45 45 55
Width: 367
Flags: HW
TeX: 472 0
ItalicCorrection: 19
HStem: 200 73<70 347>
VStem: 54 309
LayerCount: 2
Fore
SplineSet
54 200 m 1
 70 273 l 1
 363 273 l 1
 347 200 l 1
 54 200 l 1
EndSplineSet
EndChar

StartChar: period
Encoding: 46 46 56
Width: 306
Flags: HW
TeX: 130 0
HStem: 0 131<114 217>
VStem: 86 159
LayerCount: 2
Fore
SplineSet
86 0 m 1
 114 131 l 1
 245 131 l 1
 217 0 l 1
 86 0 l 1
EndSplineSet
EndChar

StartChar: slash
Encoding: 47 47 57
Width: 550
Flags: HW
TeX: 750 222
ItalicCorrection: 128
DStem2: 37 -149 97 -191 0.518671 0.854974<-39.6664 1049.56>
LayerCount: 2
Fore
SplineSet
22 -187 m 0
 22 -172 31 -160 37 -149 c 2
 565 721 l 2
 573 735 584 750 604 750 c 0
 621 750 639 736 639 714 c 0
 639 701 632 690 626 681 c 2
 97 -191 l 2
 78 -222 70 -221 57 -222 c 1
 40 -222 22 -208 22 -187 c 0
EndSplineSet
EndChar

StartChar: zero
Encoding: 48 48 58
Width: 550
Flags: HW
TeX: 694 0
ItalicCorrection: 117
HStem: -22 72<241.684 340.045> 644 73<354.549 460.066>
VStem: 90 130<70.8739 291.736> 479 127<410.503 624.296>
LayerCount: 2
Fore
SplineSet
90 165 m 0
 90 187 118 518 244 646 c 0
 294 697 366 717 426 717 c 0
 581 717 606 610 606 526 c 0
 606 489 602 451 579 341 c 0
 564 271 536 123 448 42 c 0
 406 3 339 -22 270 -22 c 0
 123 -22 90 70 90 165 c 0
220 136 m 0
 220 68 260 50 286 50 c 0
 344 50 378 115 378 116 c 0
 417 186 479 495 479 562 c 0
 479 618 448 644 412 644 c 0
 381 644 347 625 324 590 c 0
 279 522 220 201 220 136 c 0
EndSplineSet
Substitution2: "LGC old numerals subtable" zerooldstyle
EndChar

StartChar: one
Encoding: 49 49 59
Width: 550
Flags: HW
TeX: 694 0
ItalicCorrection: 117
HStem: -0 73<106 232 371 473> 575 73<213 340.795> 697 20G<467.5 507>
DStem2: 216.483 -0 355.483 -0 0.207912 0.978148<103.531 604.39>
LayerCount: 2
Fore
SplineSet
91 -0 m 1
 106 73 l 1
 232 73 l 1
 343 591 l 1
 296 579 247 575 198 575 c 1
 213 648 l 1
 416 648 447 717 488 717 c 2
 507 717 l 1
 371 73 l 1
 488 73 l 1
 473 -0 l 1
 91 -0 l 1
EndSplineSet
Substitution2: "LGC old numerals subtable" oneoldstyle
EndChar

StartChar: two
Encoding: 50 50 60
Width: 550
Flags: HW
TeX: 694 0
ItalicCorrection: 117
HStem: 0 107<173 495> 486 21G<206.636 228.5> 616 101<304.528 432.583>
VStem: 460 143<443.675 586.556>
LayerCount: 2
Fore
SplineSet
55 0 m 1
 76 100 l 1
 363 339 333 309 377 353 c 0
 449 426 460 488 460 522 c 0
 460 576 430 616 374 616 c 0
 280 616 239 525 218 486 c 1
 168 574 l 1
 198 620 265 717 411 717 c 0
 531 717 603 645 603 538 c 0
 603 391 483 341 341 233 c 2
 173 106 l 1
 232 106 l 1
 256 107 l 1
 449 107 l 1
 472 108 l 1
 517 108 l 1
 495 0 l 1
 55 0 l 1
EndSplineSet
Substitution2: "LGC old numerals subtable" twooldstyle
EndChar

StartChar: three
Encoding: 51 51 61
Width: 550
Flags: HW
TeX: 694 0
ItalicCorrection: 117
HStem: -22 95<171.053 346.296> 339 72<271 373.9> 628 89<307.297 446.831>
VStem: 408 144<156.799 322.643> 453 141<498.725 620.234>
LayerCount: 2
Fore
SplineSet
58 58 m 1
 95 151 l 1
 110 134 167 73 274 73 c 0
 316 73 336 85 356 101 c 1
 375 126 385 138 398 200 c 0
 406 239 408 254 408 267 c 0xf0
 408 339 351 339 320 339 c 2
 256 339 l 1
 271 411 l 1
 330 415 359 413 399 453 c 0
 447 501 453 567 453 581 c 0
 453 619 425 628 394 628 c 0
 319 628 265 583 229 543 c 1
 193 619 l 1
 291 715 387 717 418 717 c 0
 547 717 594 666 594 589 c 0xe8
 594 505 546 429 441 378 c 1
 508 361 552 323 552 250 c 0xf0
 552 187 515 -22 259 -22 c 0
 138 -22 79 37 58 58 c 1
EndSplineSet
Substitution2: "LGC old numerals subtable" threeoldstyle
EndChar

StartChar: four
Encoding: 52 52 62
Width: 550
Flags: HW
TeX: 694 0
ItalicCorrection: 117
HStem: -0 21G<303 432.211> 152 95<187 336 481 550> 675 20G<405.858 576>
DStem2: 303 -0 428 -0 0.207912 0.978148<25.989 155.54 278.611 606.508>
LayerCount: 2
Fore
SplineSet
62 152 m 1
 79 232 l 1
 84 247 l 1
 100 271 l 1
 421 695 l 1
 576 695 l 1
 481 247 l 1
 571 247 l 1
 550 152 l 1
 460 152 l 1
 428 -0 l 1
 303 -0 l 1
 336 152 l 1
 62 152 l 1
187 247 m 1
 362 247 l 1
 435 592 l 1
 416 555 365 483 187 247 c 1
EndSplineSet
Substitution2: "LGC old numerals subtable" fouroldstyle
EndChar

StartChar: five
Encoding: 53 53 63
Width: 550
Flags: HW
TeX: 694 0
ItalicCorrection: 117
HStem: -22 95<179.198 335.319> 379 73<307.114 403.195> 594 101<340 584>
VStem: 411 140<202.542 371.07>
LayerCount: 2
Fore
SplineSet
54 81 m 1
 54 82 l 1
 126 169 l 1
 138 120 181 73 257 73 c 0
 368 73 380 155 398 244 c 0
 404 272 411 307 411 329 c 0
 411 369 381 379 362 379 c 0
 304 379 265 324 247 296 c 1
 145 296 l 1
 230 694 l 1
 230 695 l 1
 606 695 l 1
 584 594 l 1
 340 594 l 1
 306 435 l 1
 334 448 352 452 383 452 c 0
 465 452 551 421 551 299 c 0
 551 221 519 97 432 33 c 0
 372 -11 298 -22 241 -22 c 0
 129 -22 79 37 54 81 c 1
EndSplineSet
Substitution2: "LGC old numerals subtable" fiveoldstyle
EndChar

StartChar: six
Encoding: 54 54 64
Width: 550
Flags: HW
TeX: 694 0
ItalicCorrection: 117
HStem: -22 95<243.515 358.618> 420 73<349.683 484.5> 628 89<385.665 563.389>
VStem: 96 131<89.0374 278.624> 434 135<231.593 408.284>
LayerCount: 2
Fore
SplineSet
96 176 m 0
 96 213 114 493 255 629 c 0
 321 693 409 717 488 717 c 0
 524 717 547 712 581 696 c 1
 561 604 l 1
 529 621 508 628 473 628 c 0
 396 628 355 586 344 575 c 0
 294 520 272 402 270 391 c 1
 311 459 365 493 428 493 c 0
 541 493 569 410 569 343 c 0
 569 306 551 195 522 132 c 0
 499 83 449 22 382 -5 c 0
 372 -9 338 -22 273 -22 c 0
 167 -22 96 33 96 176 c 0
227 147 m 0
 227 109 244 73 295 73 c 0
 389 73 396 159 417 253 c 0
 431 316 434 347 434 363 c 0
 434 401 410 420 372 420 c 0
 255 420 227 200 227 147 c 0
EndSplineSet
Substitution2: "LGC old numerals subtable" sixoldstyle
EndChar

StartChar: seven
Encoding: 55 55 65
Width: 550
Flags: HW
TeX: 694 0
ItalicCorrection: 117
HStem: -11 21G<140 312> 588 107<194 549>
VStem: 140 142<-11 61.3068>
LayerCount: 2
Fore
SplineSet
140 -11 m 1
 198 252 359 452 549 588 c 1
 354 588 l 1
 330 587 l 1
 171 587 l 1
 194 695 l 1
 652 695 l 1
 627 580 636 601 607 571 c 0
 447 406 342 239 282 -11 c 1
 140 -11 l 1
EndSplineSet
Substitution2: "LGC old numerals subtable" sevenoldstyle
EndChar

StartChar: eight
Encoding: 56 56 66
Width: 550
Flags: HW
TeX: 694 0
ItalicCorrection: 117
HStem: -22 95<229.552 359.365> 339 73<301.617 404.992> 628 89<337.677 469.648>
VStem: 80 138<84.9513 247.847> 167 124<422.167 570.706> 418 134<161.123 325.984> 478 127<475.726 617.265>
LayerCount: 2
Fore
SplineSet
80 133 m 0xf4
 80 210 107 292 169 338 c 0
 193 356 221 367 249 375 c 1
 205 391 167 418 167 482 c 0xe8
 167 526 192 717 426 717 c 0
 521 717 605 689 605 578 c 0xea
 605 522 588 465 548 425 c 0
 519 396 492 386 459 375 c 1
 508 358 552 328 552 252 c 0
 552 194 522 89 450 32 c 0
 399 -8 336 -20 286 -22 c 1
 253 -22 l 1
 170 -19 80 9 80 133 c 0xf4
218 132 m 0
 218 96 234 73 289 73 c 0
 371 73 394 117 415 249 c 0
 416 258 418 268 418 277 c 0xf4
 418 327 383 339 346 339 c 0
 253 339 240 261 230 215 c 0
 225 190 218 161 218 132 c 0
291 466 m 0
 291 433 307 414 356 412 c 1
 368 412 l 1
 439 414 456 457 468 511 c 0
 472 531 478 553 478 575 c 0xea
 478 617 452 628 407 628 c 0
 327 628 313 585 301 530 c 0
 297 510 291 488 291 466 c 0
EndSplineSet
Substitution2: "LGC old numerals subtable" eightoldstyle
EndChar

StartChar: nine
Encoding: 57 57 67
Width: 550
Flags: HW
TeX: 694 0
ItalicCorrection: 117
HStem: -22 95<168.34 321.761> 202 73<214 348.278> 628 89<341.235 457.557>
VStem: 128 135<287.078 467.098> 473 129<423.769 613.16>
LayerCount: 2
Fore
SplineSet
85 26 m 1
 85 27 l 1
 151 110 l 1
 164 97 187 73 242 73 c 0
 287 73 331 92 360 127 c 0
 394 168 418 255 427 304 c 1
 386 237 333 202 271 202 c 0
 157 202 128 284 128 352 c 0
 128 389 146 499 175 561 c 0
 201 617 258 679 329 703 c 0
 367 716 409 717 429 717 c 0
 532 717 602 664 602 522 c 0
 602 480 580 175 425 47 c 0
 363 -4 288 -22 222 -22 c 0
 157 -22 122 -5 85 26 c 1
263 333 m 2
 263 287 294 275 325 275 c 0
 449 275 473 521 473 556 c 0
 473 593 457 628 409 628 c 0
 331 628 300 589 266 369 c 0
 263 350 263 343 263 339 c 2
 263 333 l 2
EndSplineSet
Substitution2: "LGC old numerals subtable" nineoldstyle
EndChar

StartChar: less
Encoding: 60 60 70
Width: 672
Flags: HW
TeX: 630 102
ItalicCorrection: 72
DStem2: 242 259 170 226 0.729825 -0.683634<0 452.249> 180 305 242 259 0.830937 0.556367<25.9252 582.511>
LayerCount: 2
Fore
SplineSet
147 266 m 1
 150 282 151 285 180 305 c 2
 640 613 l 2
 648 618 656 624 668 624 c 0
 689 624 704 607 704 589 c 0
 704 566 683 555 675 550 c 2
 242 259 l 1
 548 -29 l 2
 556 -37 566 -47 566 -61 c 0
 566 -81 547 -97 529 -97 c 0
 512 -97 501 -84 486 -70 c 2
 170 226 l 2
 146 248 148 256 147 266 c 1
EndSplineSet
EndChar

StartChar: equal
Encoding: 61 61 71
Width: 672
Flags: HW
TeX: 423 -104
ItalicCorrection: 59
HStem: 109 72<95.035 637.037> 346 73<144.863 687.67>
LayerCount: 2
Fore
SplineSet
92 145 m 0
 92 159 101 177 122 181 c 1
 596 181 l 2
 609 181 640 180 640 145 c 0
 640 133 634 109 593 109 c 2
 136 109 l 1
 96 110 92 134 92 145 c 0
142 382 m 0
 142 422 185 419 196 419 c 2
 644 419 l 2
 685 419 691 394 691 382 c 0
 691 371 686 346 646 346 c 2
 185 346 l 1
 146 347 142 372 142 382 c 0
EndSplineSet
EndChar

StartChar: greater
Encoding: 62 62 72
Width: 672
Flags: HW
TeX: 630 102
DStem2: 128 -8 143 -86 0.830679 0.556751<-59.9217 497.291> 614 300 227 562 0.730235 -0.683196<-484.455 -32.1281>
LayerCount: 2
Fore
SplineSet
79 -61 m 0
 79 -36 101 -26 128 -8 c 2
 541 269 l 1
 227 562 l 1
 219 573 217 583 217 590 c 0
 217 609 234 624 253 624 c 0
 268 624 278 614 288 605 c 2
 614 300 l 2
 631 283 635 275 635 264 c 0
 635 249 627 239 610 227 c 2
 143 -86 l 2
 133 -92 126 -97 115 -97 c 0
 97 -97 79 -81 79 -61 c 0
EndSplineSet
EndChar

StartChar: question
Encoding: 63 63 73
Width: 519
Flags: HW
TeX: 694 0
ItalicCorrection: 118
HStem: 0 131<206 309> 633 73<285.923 437.977>
VStem: 178 159 238 104<217 295.646> 445 135<516.783 627.494>
LayerCount: 2
Fore
SplineSet
200 657 m 1
 254 682 308 706 401 706 c 0xd8
 503 706 580 683 580 593 c 0
 580 550 562 496 523 460 c 0
 496 436 400 391 361 291 c 0
 352 268 348 243 342 217 c 1
 238 217 l 1
 249 271 258 363 384 477 c 0
 417 507 432 512 443 576 c 0
 444 582 445 588 445 595 c 0
 445 627 420 632 389 633 c 1
 377 633 l 1
 294 632 244 588 214 563 c 1
 200 657 l 1
EndSplineSet
Refer: 56 46 S 1 0 0 1 92 -0 2
EndChar

StartChar: at
Encoding: 64 64 74
Width: 733
Flags: HW
TeX: 694 0
ItalicCorrection: 72
HStem: -11 72<329.008 547.27> 118 72<449.475 556.86> 504 73<505.403 614.427> 633 73<443.368 619.325>
VStem: 121 121<146.101 383.04> 309 120<209.766 391.041> 633 137<363.369 571.691>
LayerCount: 2
Fore
SplineSet
121 237 m 0
 121 329 155 492 256 592 c 0
 286 622 377 706 574 706 c 0
 720 706 770 641 770 525 c 0
 770 455 745 339 732 299 c 0
 686 157 582 118 482 118 c 0
 366 118 309 171 309 269 c 0
 309 319 327 424 382 492 c 0
 423 542 486 577 581 577 c 0
 602 577 623 575 644 570 c 1
 630 619 594 633 558 633 c 0
 316 633 268 407 256 353 c 0
 244 300 242 267 242 245 c 0
 242 131 302 61 441 61 c 0
 540 61 565 90 614 90 c 2
 690 90 l 1
 633 41 536 -11 420 -11 c 0
 229 -11 121 66 121 237 c 0
429 275 m 0
 429 204 470 190 498 190 c 0
 613 190 633 385 633 419 c 0
 633 490 593 504 565 504 c 0
 542 504 481 496 449 389 c 0
 442 365 429 316 429 275 c 0
EndSplineSet
EndChar

StartChar: A
Encoding: 65 65 75
Width: 733
Flags: HW
TeX: 694 0
HStem: -0 21G<30 177.2 545.2 701> 150 87<299 515> 675 20G<408.777 608.734>
DStem2: 30 -0 166 -0 0.489367 0.872078<66.554 238.472 338.322 715.449> 606 695 481 513 0.135431 -0.990787<107.504 441.456 529.28 680.742>
AnchorPoint: "ogonek" 630 0 basechar 0
AnchorPoint: "below" 366 0 basechar 0
AnchorPoint: "above" 518 717 basechar 0
LayerCount: 2
Fore
SplineSet
30 -0 m 1
 420 695 l 1
 606 695 l 1
 701 -0 l 1
 548 -0 l 1
 527 150 l 1
 250 150 l 1
 166 -0 l 1
 30 -0 l 1
299 237 m 1
 515 237 l 1
 487 459 l 1
 481 513 l 1
 478 569 l 1
 455 518 375 374 299 237 c 1
EndSplineSet
EndChar

StartChar: B
Encoding: 66 66 76
Width: 733
Flags: HW
TeX: 694 0
ItalicCorrection: 80
HStem: -0 87<252 504.376> 325 73<318 535.439> 608 87<363 582.458>
VStem: 577 140<152.143 286.436> 615 139<467.65 577.587>
DStem2: 91 -0 233.508 -0 0.207912 0.978148<118.573 361.975 436.499 651.266>
AnchorPoint: "below" 358 0 basechar 0
AnchorPoint: "above" 510 717 basechar 0
LayerCount: 2
Fore
SplineSet
91 -0 m 1
 238 694 l 1
 239 695 l 1
 501 695 l 2
 588 695 754 694 754 552 c 0xe8
 754 481 713 409 614 375 c 0
 600 370 585 367 571 363 c 1
 613 356 717 337 717 231 c 0
 717 174 683 90 609 46 c 0
 537 3 456 0 391 -0 c 2
 91 -0 l 1
252 87 m 1
 380 87 l 2
 435 87 494 90 536 129 c 0
 564 155 577 191 577 225 c 0xf0
 577 267 557 292 531 306 c 0
 497 324 455 325 417 325 c 2
 303 325 l 1
 252 87 l 1
318 398 m 1
 416 398 l 2
 545 398 573 436 597 471 c 1
 607 488 615 509 615 530 c 0xe8
 615 606 517 608 466 608 c 2
 363 608 l 1
 318 398 l 1
EndSplineSet
EndChar

StartChar: C
Encoding: 67 67 77
Width: 703
Flags: HW
TeX: 694 0
ItalicCorrection: 117
HStem: -23 101<344.74 572.702> 617 100<450.144 666.102>
VStem: 120 149<152.758 379.632>
AnchorPoint: "below" 428 0 basechar 0
AnchorPoint: "above" 580 717 basechar 0
LayerCount: 2
Fore
SplineSet
120 228 m 0
 120 308 149 585 377 680 c 0
 414 696 479 717 580 717 c 0
 660 717 714 706 779 682 c 1
 728 551 l 1
 702 573 662 617 561 617 c 0
 387 617 295 494 270 273 c 0
 269 264 269 256 269 247 c 0
 269 112 355 78 450 78 c 0
 557 78 594 103 667 144 c 1
 654 33 l 1
 564 -9 524 -23 423 -23 c 0
 227 -23 120 55 120 228 c 0
EndSplineSet
EndChar

StartChar: D
Encoding: 68 68 78
Width: 794
Flags: HW
TeX: 694 0
ItalicCorrection: 72
HStem: -0 87<254 503.866> 608 87<365 603.25>
VStem: 675 144<316.274 539.661>
DStem2: 91 -0 235.508 -0 0.207912 0.978148<118.988 651.682>
AnchorPoint: "below" 389 0 basechar 0
AnchorPoint: "above" 541 717 basechar 0
LayerCount: 2
Fore
SplineSet
91 -0 m 1
 238 694 l 1
 239 695 l 1
 532 695 l 2
 691 695 819 648 819 459 c 0
 819 375 791 221 704 122 c 0
 623 30 515 0 379 -0 c 2
 91 -0 l 1
254 87 m 1
 364 87 l 2
 536 87 616 143 659 337 c 0
 665 364 675 412 675 455 c 0
 675 604 551 608 473 608 c 2
 365 608 l 1
 254 87 l 1
EndSplineSet
EndChar

StartChar: E
Encoding: 69 69 79
Width: 642
Flags: HW
TeX: 694 0
ItalicCorrection: 117
HStem: 0 107<262 595> 312 95<326 615> 587 105<364 705>
DStem2: 91 0 239.256 0 0.207912 0.978148<140.215 349.675 446.965 633.867>
AnchorPoint: "ogonek" 343 0 basechar 0
AnchorPoint: "below" 343 0 basechar 0
AnchorPoint: "above" 495 717 basechar 0
LayerCount: 2
Fore
SplineSet
91 0 m 1
 238 692 l 1
 727 692 l 1
 705 587 l 1
 364 590 l 1
 326 407 l 1
 635 407 l 1
 615 312 l 1
 305 312 l 1
 262 107 l 1
 291 107 l 1
 542 110 l 1
 618 111 l 1
 595 0 l 1
 91 0 l 1
EndSplineSet
EndChar

StartChar: F
Encoding: 70 70 80
Width: 611
Flags: HW
TeX: 694 0
ItalicCorrection: 132
HStem: 0 21G<91 243.214> 299 95<323 582> 587 105<364 690>
DStem2: 91 0 239 0 0.207912 0.978148<30.7709 336.336 433.626 633.867>
AnchorPoint: "below" 328 0 basechar 0
AnchorPoint: "above" 480 717 basechar 0
LayerCount: 2
Fore
SplineSet
91 0 m 1
 238 692 l 1
 711 692 l 1
 690 587 l 1
 364 590 l 1
 323 394 l 1
 602 394 l 1
 582 299 l 1
 302 299 l 1
 239 0 l 1
 91 0 l 1
EndSplineSet
EndChar

StartChar: G
Encoding: 71 71 81
Width: 733
Flags: HW
TeX: 694 0
ItalicCorrection: 117
HStem: -22 100<343.176 540.09> 233 95<496 571> 617 100<454.195 667.088>
VStem: 120 149<150.411 373.535>
AnchorPoint: "below" 425 0 basechar 0
AnchorPoint: "above" 581 717 basechar 0
LayerCount: 2
Fore
SplineSet
120 229 m 0
 120 273 126 306 132 338 c 0
 180 582 321 717 582 717 c 0
 655 717 716 706 791 668 c 1
 740 537 l 1
 707 572 668 617 560 617 c 0
 289 617 269 291 269 247 c 0
 269 111 357 78 446 78 c 0
 483 78 512 83 540 87 c 1
 541 88 l 1
 571 233 l 1
 476 233 l 1
 496 328 l 1
 728 328 l 1
 664 26 l 1
 595 0 518 -22 420 -22 c 0
 223 -22 120 60 120 229 c 0
EndSplineSet
EndChar

StartChar: H
Encoding: 72 72 82
Width: 794
Flags: HW
TeX: 694 0
ItalicCorrection: 86
HStem: -0 21G<91 243.217 554 706.259> 314 95<326 621> 675 20G<238 387 697.734 850>
DStem2: 91 -0 239 -0 0.207912 0.978148<30.7709 350.653 448.922 709.397> 554 -0 702 -0 0.207912 0.978148<30.7709 321.068 418.151 710.584>
AnchorPoint: "below" 396 0 basechar 0
AnchorPoint: "above" 548 717 basechar 0
LayerCount: 2
Fore
SplineSet
91 -0 m 1
 238 694 l 1
 239 695 l 1
 387 695 l 1
 326 409 l 1
 641 409 l 1
 702 695 l 1
 850 695 l 1
 702 -0 l 1
 554 -0 l 1
 621 314 l 1
 306 314 l 1
 305 313 l 1
 239 -0 l 1
 91 -0 l 1
EndSplineSet
EndChar

StartChar: I
Encoding: 73 73 83
Width: 331
Flags: HW
TeX: 694 0
ItalicCorrection: 132
HStem: -0 21G<91 243.259> 675 20G<238 387>
VStem: 91 296
DStem2: 91 -0 239 -0 0.207912 0.978148<30.7709 709.397>
AnchorPoint: "ogonek" 165 0 basechar 0
AnchorPoint: "below" 164 0 basechar 0
AnchorPoint: "above" 317 717 basechar 0
LayerCount: 2
Fore
SplineSet
91 -0 m 1
 238 694 l 1
 239 695 l 1
 387 695 l 1
 239 -0 l 1
 91 -0 l 1
EndSplineSet
EndChar

StartChar: J
Encoding: 74 74 84
Width: 519
Flags: HW
TeX: 694 0
ItalicCorrection: 86
HStem: -22 97<129.669 279.525> 675 20G<429 575>
DStem2: 277.527 -22 422.489 -22 0.207912 0.978148<118.539 731.847>
AnchorPoint: "below" 236 0 basechar 0
AnchorPoint: "above" 506 717 basechar 0
LayerCount: 2
Fore
SplineSet
49 19 m 1
 96 140 l 1
 110 109 137 75 199 75 c 0
 309 75 315 153 316 159 c 2
 429 694 l 1
 430 695 l 1
 575 695 l 1
 465 178 l 2
 453 120 441 59 366 13 c 0
 324 -13 276 -22 228 -22 c 0
 148 -22 91 -1 49 19 c 1
EndSplineSet
EndChar

StartChar: K
Encoding: 75 75 85
Width: 764
Flags: HW
TeX: 694 0
ItalicCorrection: 117
HStem: -0 21G<91 225.24 558.272 717> 675 20G<238 369 665.611 849>
DStem2: 91 -0 221 -0 0.207912 0.978148<27.0285 248.85 411.445 709.397> 301 376 407 331 0.772773 0.634683<0 53.3532 191.119 503.072> 513 419 407 331 0.437747 -0.899098<32.7194 400.798>
AnchorPoint: "below" 404 0 basechar 0
AnchorPoint: "above" 556 717 basechar 0
LayerCount: 2
Fore
SplineSet
91 -0 m 1
 238 694 l 1
 239 695 l 1
 369 695 l 1
 301 376 l 1
 690 695 l 1
 849 695 l 1
 513 419 l 1
 717 -0 l 1
 568 -0 l 1
 407 331 l 1
 267 217 l 1
 221 -0 l 1
 91 -0 l 1
EndSplineSet
EndChar

StartChar: L
Encoding: 76 76 86
Width: 581
Flags: HW
TeX: 694 0
HStem: -0 105<260 534> 675 20G<238 387>
DStem2: 91 -0 238.532 -0 0.207912 0.978148<133.93 709.397>
AnchorPoint: "below" 312 0 basechar 0
AnchorPoint: "above" 465 717 basechar 0
LayerCount: 2
Fore
SplineSet
91 -0 m 1
 238 694 l 1
 239 695 l 1
 387 695 l 1
 260 101 l 1
 530 105 l 1
 556 105 l 1
 534 -0 l 1
 91 -0 l 1
EndSplineSet
EndChar

StartChar: M
Encoding: 77 77 87
Width: 978
Flags: HW
TeX: 694 0
ItalicCorrection: 86
HStem: -0 21G<91 218.253 762 890.23> 675 20G<238 422.925 838.635 1033>
DStem2: 91 -0 214 -0 0.207912 0.978148<25.5731 607.296> 634 344 766 371 0.525854 0.850575<-186.574 322.317> 762 -0 886 -0 0.207912 0.978148<25.781 581.723>
AnchorPoint: "below" 488 0 basechar 0
AnchorPoint: "above" 640 717 basechar 0
LayerCount: 2
Fore
SplineSet
91 -0 m 1
 238 694 l 1
 239 695 l 1
 419 695 l 1
 482 374 l 1
 507 239 515 193 519 148 c 1
 538 184 l 1
 634 344 l 1
 851 695 l 1
 1033 695 l 1
 886 -0 l 1
 762 -0 l 1
 877 538 l 1
 883 569 l 1
 863 532 l 1
 766 371 l 1
 551 22 l 1
 433 22 l 1
 432 23 l 1
 369 349 337 515 335 569 c 1
 214 -0 l 1
 91 -0 l 1
EndSplineSet
EndChar

StartChar: N
Encoding: 78 78 88
Width: 794
Flags: HW
TeX: 694 0
ItalicCorrection: 86
HStem: -0 21G<91 218.251 503.937 706.259> 675 20G<238 437.017 726 850>
DStem2: 91 -0 214 -0 0.207912 0.978148<25.5731 612.395> 431 695 336 574 0.288112 -0.957597<88.4986 600.461>
AnchorPoint: "below" 396 0 basechar 0
AnchorPoint: "above" 548 717 basechar 0
LayerCount: 2
Fore
SplineSet
91 -0 m 1
 238 694 l 1
 239 695 l 1
 431 695 l 1
 604 120 l 1
 726 694 l 1
 726 695 l 1
 850 695 l 1
 702 -0 l 1
 510 -0 l 1
 336 574 l 1
 214 -0 l 1
 91 -0 l 1
EndSplineSet
EndChar

StartChar: O
Encoding: 79 79 89
Width: 794
Flags: HW
TeX: 694 0
ItalicCorrection: 72
HStem: -23 82<328.119 500.244> 639 78<437.512 619.397>
VStem: 119 147<121.186 373.145> 679 142<338.365 577.262>
AnchorPoint: "ogonek" 396 0 basechar 0
AnchorPoint: "below" 396 0 basechar 0
AnchorPoint: "above" 550 717 basechar 0
LayerCount: 2
Fore
SplineSet
119 219 m 0
 119 275 131 341 147 397 c 0
 215 638 374 717 551 717 c 0
 686 717 821 669 821 473 c 0
 821 407 800 250 727 141 c 0
 684 77 593 -23 391 -23 c 0
 243 -23 119 34 119 219 c 0
266 219 m 0
 266 89 342 59 410 59 c 0
 610 59 650 304 660 351 c 0
 666 381 679 437 679 487 c 0
 679 609 604 639 532 639 c 0
 334 639 298 419 284 356 c 0
 278 325 266 270 266 219 c 0
EndSplineSet
EndChar

StartChar: P
Encoding: 80 80 90
Width: 703
Flags: HW
TeX: 694 0
ItalicCorrection: 80
HStem: -0 21G<91 243.254> 268 79<310 535.149> 608 87<365 581.585>
VStem: 609 140<429.12 581.807>
DStem2: 91 -0 239 -0 0.207912 0.978148<30.7709 304.765 384.95 651.682>
AnchorPoint: "below" 343 0 basechar 0
AnchorPoint: "above" 495 717 basechar 0
LayerCount: 2
Fore
SplineSet
91 -0 m 1
 238 694 l 1
 239 695 l 1
 513 695 l 2
 596 695 676 687 720 631 c 0
 741 604 749 570 749 536 c 0
 749 464 718 369 639 317 c 0
 573 273 497 268 435 268 c 2
 296 268 l 1
 239 -0 l 1
 91 -0 l 1
310 347 m 1
 415 347 l 2
 467 347 532 349 571 399 c 0
 601 438 609 507 609 526 c 0
 609 591 560 608 483 608 c 2
 365 608 l 1
 310 347 l 1
EndSplineSet
EndChar

StartChar: Q
Encoding: 81 81 91
Width: 794
Flags: HW
TeX: 694 111
ItalicCorrection: 72
HStem: -23 79<320.499 429> 639 78<437.892 619.343>
VStem: 119 142<117.501 364.83> 680 142<326.884 575.884>
AnchorPoint: "below" 361 -167 basechar 0
AnchorPoint: "above" 550 717 basechar 0
LayerCount: 2
Fore
SplineSet
119 218 m 0
 119 313 156 551 320 656 c 0
 396 705 481 717 550 717 c 0
 704 717 822 655 822 473 c 0
 822 389 792 214 699 105 c 0
 667 68 635 44 603 26 c 1
 679 -111 l 1
 505 -111 l 1
 463 -18 l 1
 434 -21 419 -23 390 -23 c 0
 253 -23 119 26 119 218 c 0
261 212 m 0
 261 87 335 56 408 56 c 0
 415 56 422 56 429 57 c 1
 366 195 l 1
 511 195 l 1
 556 111 l 1
 667 217 680 467 680 478 c 0
 680 607 604 639 533 639 c 0
 320 639 285 383 267 283 c 0
 263 259 261 236 261 212 c 0
EndSplineSet
EndChar

StartChar: R
Encoding: 82 82 92
Width: 703
Flags: HW
TeX: 694 0
ItalicCorrection: 80
HStem: -0 21G<91 240.244 515.862 671> 311 73<317 412> 608 87<365 587.76>
VStem: 611 140<449.659 586.473>
DStem2: 91 -0 236 -0 0.207912 0.978148<30.1472 348.073 422.597 651.682> 551 321 412 311 0.350164 -0.936688<0 290.872>
AnchorPoint: "below" 343 0 basechar 0
AnchorPoint: "above" 495 717 basechar 0
LayerCount: 2
Fore
SplineSet
91 -0 m 1
 238 694 l 1
 239 695 l 1
 498 695 l 2
 580 695 751 695 751 542 c 0
 751 447 688 346 551 321 c 1
 671 -0 l 1
 523 -0 l 1
 412 311 l 1
 302 311 l 1
 236 -0 l 1
 91 -0 l 1
317 384 m 1
 430 384 l 2
 520 384 582 396 605 487 c 0
 607 496 611 515 611 534 c 0
 611 596 563 608 488 608 c 2
 365 608 l 1
 317 384 l 1
EndSplineSet
EndChar

StartChar: S
Encoding: 83 83 93
Width: 611
Flags: HW
TeX: 694 0
ItalicCorrection: 86
HStem: -22 109<210.104 410.64> 613 104<344.672 540.074>
VStem: 164 133<426.195 562.97> 465 132<144.268 254.338>
AnchorPoint: "below" 307 0 basechar 0
AnchorPoint: "above" 461 717 basechar 0
LayerCount: 2
Fore
SplineSet
59 47 m 1
 110 179 l 1
 128 162 191 87 324 87 c 0
 451 87 465 181 465 204 c 0
 465 242 436 266 411 276 c 0
 389 285 311 299 278 312 c 0
 221 334 164 386 164 468 c 0
 164 517 189 596 241 646 c 0
 303 705 383 717 461 717 c 0
 539 717 593 703 658 668 c 1
 606 537 l 1
 573 572 539 613 435 613 c 0
 322 613 297 547 297 511 c 0
 297 433 416 439 486 410 c 0
 542 386 597 331 597 246 c 0
 597 200 572 -22 302 -22 c 0
 188 -22 109 14 59 47 c 1
EndSplineSet
EndChar

StartChar: T
Encoding: 84 84 94
Width: 733
Flags: HW
TeX: 694 0
ItalicCorrection: 132
HStem: 0 21G<292 444.218> 584 105<185 417 564 817>
DStem2: 292 0 440 0 0.207912 0.978148<30.7709 601.14>
AnchorPoint: "below" 365 0 basechar 0
AnchorPoint: "above" 518 717 basechar 0
LayerCount: 2
Fore
SplineSet
163 584 m 1
 185 689 l 1
 839 689 l 1
 817 584 l 1
 564 588 l 1
 440 0 l 1
 292 0 l 1
 417 588 l 1
 163 584 l 1
EndSplineSet
EndChar

StartChar: U
Encoding: 85 85 95
Width: 764
Flags: HW
TeX: 694 0
ItalicCorrection: 86
HStem: -22 86<309.467 500.111> 675 20G<238 387 682 819>
VStem: 132 145<94.2365 276.203>
DStem2: 85.9093 -22 234.412 -22 0.207912 0.978148<214.713 731.975> 529.798 -22 666.76 -22 0.207912 0.978148<164.22 732.976>
AnchorPoint: "ogonek" 386 0 basechar 0
AnchorPoint: "below" 386 0 basechar 0
AnchorPoint: "above" 533 717 basechar 0
LayerCount: 2
Fore
SplineSet
132 160 m 0
 132 198 139 228 145 256 c 2
 238 694 l 1
 239 695 l 1
 387 695 l 1
 285 216 l 2
 281 196 277 175 277 156 c 0
 277 78 336 64 397 64 c 0
 534 64 564 137 584 233 c 2
 682 694 l 1
 682 695 l 1
 819 695 l 1
 725 252 l 2
 694 108 622 -22 381 -22 c 0
 238 -22 132 19 132 160 c 0
EndSplineSet
EndChar

StartChar: V
Encoding: 86 86 96
Width: 733
Flags: HW
TeX: 694 0
ItalicCorrection: 162
HStem: -0 21G<266.892 472.597> 675 20G<162 320.022 712.462 864>
DStem2: 317 695 162 695 0.153553 -0.98814<0 575.985> 514 331 461 -0 0.501625 0.865085<-235.393 420.232>
AnchorPoint: "below" 366 0 basechar 0
AnchorPoint: "above" 518 717 basechar 0
LayerCount: 2
Fore
SplineSet
162 695 m 1
 317 695 l 1
 385 245 l 1
 397 154 l 1
 400 125 l 1
 418 161 l 1
 514 331 l 1
 724 695 l 1
 864 695 l 1
 461 -0 l 1
 270 -0 l 1
 162 695 l 1
EndSplineSet
EndChar

StartChar: W
Encoding: 87 87 97
Width: 1039
Flags: HW
TeX: 694 0
ItalicCorrection: 162
HStem: -0 21G<200.849 375.552 663.871 844.64> 675 20G<162 295.111 578.36 752.082 1041.43 1170>
DStem2: 294 695 162 695 0.0574589 -0.998348<0 522.632> 414 334 622 536 0.411821 0.911265<0 305.572> 778 196 647 319 0.0540292 -0.998539<-271.07 41.0482>
AnchorPoint: "below" 518 0 basechar 0
AnchorPoint: "above" 671 717 basechar 0
LayerCount: 2
Fore
SplineSet
162 695 m 1
 294 695 l 1
 315 317 l 1
 320 173 l 1
 320 126 l 1
 335 163 l 1
 414 334 l 1
 588 695 l 1
 751 695 l 1
 778 196 l 1
 780 155 l 1
 781 125 l 1
 795 160 l 1
 1051 695 l 1
 1170 695 l 1
 835 -0 l 1
 665 -0 l 1
 647 319 l 1
 640 460 l 1
 636 569 l 1
 622 536 l 1
 366 -0 l 1
 202 -0 l 1
 162 695 l 1
EndSplineSet
EndChar

StartChar: X
Encoding: 88 88 98
Width: 733
Flags: HW
TeX: 694 0
ItalicCorrection: 132
HStem: 0 21G<15 199.778 531.268 717> 675 20G<178 365.288 633.731 819>
DStem2: 15 0 182 0 0.675677 0.737198<112.838 462.004 661.043 942.759>
AnchorPoint: "below" 366 0 basechar 0
AnchorPoint: "above" 518 717 basechar 0
LayerCount: 2
Fore
SplineSet
15 0 m 1
 361 368 l 1
 361 369 l 1
 178 695 l 1
 355 695 l 1
 462 487 l 1
 652 695 l 1
 819 695 l 1
 512 368 l 1
 717 0 l 1
 541 0 l 1
 414 261 l 1
 182 0 l 1
 15 0 l 1
EndSplineSet
EndChar

StartChar: Y
Encoding: 89 89 99
Width: 733
Flags: HW
TeX: 694 0
ItalicCorrection: 175
HStem: 0 21G<293 442.245> 675 20G<150 373 664 876>
DStem2: 293 0 438 0 0.207912 0.978148<30.1472 279.725> 460 403 497 278 0.672584 0.74002<0 388.268>
AnchorPoint: "below" 365 0 basechar 0
AnchorPoint: "above" 517 717 basechar 0
LayerCount: 2
Fore
SplineSet
150 695 m 1
 327 695 l 1
 419 503 449 438 460 403 c 1
 480 435 612 580 716 695 c 1
 876 695 l 1
 497 278 l 1
 438 0 l 1
 293 0 l 1
 349 263 l 2
 350 267 350 271 350 274 c 0
 350 281 348 287 344 295 c 2
 150 695 l 1
EndSplineSet
EndChar

StartChar: Z
Encoding: 90 90 100
Width: 672
Flags: HW
TeX: 694 0
ItalicCorrection: 117
HStem: 0 105<267 616> 596 99<223 553>
DStem2: 74 67 267 101 0.669119 0.743155<154.407 715.867>
AnchorPoint: "below" 338 0 basechar 0
AnchorPoint: "above" 490 717 basechar 0
LayerCount: 2
Fore
SplineSet
60 0 m 1
 74 67 l 1
 553 599 l 1
 471 598 l 1
 337 597 l 1
 237 596 l 1
 201 595 l 1
 223 695 l 1
 758 695 l 1
 743 627 748 636 726 611 c 2
 267 101 l 1
 385 103 l 1
 510 104 l 1
 604 105 l 1
 638 105 l 1
 616 0 l 1
 60 0 l 1
EndSplineSet
EndChar

StartChar: bracketleft
Encoding: 91 91 101
Width: 343
Flags: HW
TeX: 750 222
ItalicCorrection: 159
HStem: -222 72<186 270> 678 72<362 461>
DStem2: 37 -222 170.696 -222 0.207912 0.978148<101.405 947.904>
LayerCount: 2
Fore
SplineSet
37 -222 m 1
 244 750 l 1
 477 750 l 1
 461 678 l 1
 362 678 l 1
 186 -150 l 1
 286 -150 l 1
 270 -222 l 1
 37 -222 l 1
EndSplineSet
EndChar

StartChar: backslash
Encoding: 92 92 102
Width: 550
Flags: HW
TeX: 750 222
VStem: 375 73<-218.243 -147.39>
DStem2: 286 713 216 691 0.178392 -0.98396<-12.6988 912.171>
LayerCount: 2
Fore
SplineSet
213 713 m 0
 213 737 231 750 248 750 c 0
 281 750 286 713 286 713 c 1
 445 -163 l 2
 446 -170 448 -178 448 -185 c 0
 448 -207 431 -222 412 -222 c 0
 404 -222 382 -219 375 -186 c 1
 216 691 l 2
 215 698 213 706 213 713 c 0
EndSplineSet
EndChar

StartChar: bracketright
Encoding: 93 93 103
Width: 343
Flags: HW
TeX: 750 222
ItalicCorrection: 105
HStem: -222 72<-6 93> 678 72<185 269>
DStem2: 77.6959 -222 211 -222 0.207912 0.978148<73.6085 920.107>
LayerCount: 2
Fore
SplineSet
-22 -222 m 1
 -6 -150 l 1
 93 -150 l 1
 269 678 l 1
 169 678 l 1
 185 750 l 1
 418 750 l 1
 211 -222 l 1
 -22 -222 l 1
EndSplineSet
EndChar

StartChar: asciicircum
Encoding: 94 94 104
Width: 672
Flags: HW
TeX: 694 0
ItalicCorrection: 54
HStem: 472 148
LayerCount: 2
Fore
SplineSet
269 472 m 1
 412 620 l 1
 522 620 l 1
 602 472 l 1
 529 472 l 1
 453 558 l 1
 342 472 l 1
 269 472 l 1
EndSplineSet
EndChar

StartChar: underscore
Encoding: 95 95 105
Width: 856
Flags: HW
TeX: 0 338
HStem: -339 84<33.3727 693.702>
LayerCount: 2
Fore
SplineSet
28 -297 m 0
 28 -286 33 -255 78 -255 c 2
 649 -255 l 2
 694 -255 699 -286 699 -297 c 0
 699 -310 693 -339 647 -339 c 2
 79 -339 l 2
 33 -339 28 -308 28 -297 c 0
EndSplineSet
EndChar

StartChar: a
Encoding: 97 97 107
Width: 525
Flags: HW
TeX: 472 0
ItalicCorrection: 39
HStem: -11 73<131.5 265.303> -0 21G<331 469.235> 423 66<247.626 391.711>
VStem: 55 133<72.4434 168.638> 402 136<272.874 413.244>
DStem2: 328.662 -11 462.662 -11 0.207912 0.978148<39.1059 81.8566 106.323 244.805 286.781 383.043>
AnchorPoint: "ogonek" 397 0 basechar 0
AnchorPoint: "affricate-below" 490 -167 basechar 0
AnchorPoint: "affricate-above" 673 695 basechar 0
AnchorPoint: "below" 260 0 basechar 0
AnchorPoint: "above" 364 489 basechar 0
LayerCount: 2
Fore
SplineSet
55 100 m 0
 55 210 176 254 313 266 c 1
 386 270 l 1
 396 320 402 345 402 366 c 0
 402 394 391 423 347 423 c 0
 253 423 198 373 165 346 c 1
 177 446 l 1
 242 474 289 489 364 489 c 0
 459 489 538 465 538 368 c 0
 538 346 535 332 530 307 c 2
 465 -0 l 1
 331 -0 l 1x78
 346 69 l 1
 273 -10 184 -11 168 -11 c 0
 95 -11 55 40 55 100 c 0
188 116 m 0xb8
 188 87 207 62 244 62 c 0
 289 62 340 91 356 136 c 0
 359 145 361 154 377 229 c 1
 313 224 250 213 214 175 c 0
 199 159 188 138 188 116 c 0xb8
EndSplineSet
EndChar

StartChar: b
Encoding: 98 98 108
Width: 561
Flags: HW
TeX: 694 0
ItalicCorrection: 34
HStem: -11 73<242.059 363.941> -0 21G<60 201.091> 411 72<351.132 489> 675 20G<207 341>
VStem: 451 136<206.612 392.855>
DStem2: 57.6619 -11 194.662 -11 0.207912 0.978148<39.7296 84.6394 124.028 446.734 472.553 720.643>
AnchorPoint: "affricate-below" 526 -167 basechar 0
AnchorPoint: "affricate-above" 709 695 basechar 0
AnchorPoint: "below" 291 0 basechar 0
AnchorPoint: "above" 439 695 basechar 0
LayerCount: 2
Fore
SplineSet
60 -0 m 1x78
 207 694 l 1
 208 695 l 1
 341 695 l 1
 284 424 l 1
 326 454 385 483 458 483 c 0
 520 483 587 455 587 341 c 0
 587 298 571 137 485 52 c 0
 440 7 376 -11 323 -11 c 0xb8
 271 -11 236 7 206 44 c 1
 197 -0 l 1
 60 -0 l 1x78
217 97 m 1
 230 82 246 62 288 62 c 0
 396 62 418 149 436 234 c 0
 449 294 451 315 451 335 c 0xb8
 451 395 412 411 372 411 c 0
 333 411 303 396 277 378 c 1
 217 97 l 1
EndSplineSet
EndChar

StartChar: c
Encoding: 99 99 109
Width: 489
Flags: HW
TeX: 472 0
ItalicCorrection: 88
HStem: -11 78<231.713 399.557> 411 78<295.522 464.666>
VStem: 77 134<88.2533 275.155>
AnchorPoint: "affricate-below" 454 -167 basechar 0
AnchorPoint: "affricate-above" 637 695 basechar 0
AnchorPoint: "below" 276 0 basechar 0
AnchorPoint: "above" 384 489 basechar 0
LayerCount: 2
Fore
SplineSet
77 154 m 0
 77 214 100 354 191 429 c 0
 241 471 305 489 384 489 c 0
 465 489 496 475 546 446 c 1
 510 351 l 1
 473 386 453 411 368 411 c 0
 254 411 237 297 222 228 c 0
 217 204 211 178 211 153 c 0
 211 107 228 67 294 67 c 0
 386 67 449 114 477 133 c 1
 465 35 l 1
 412 9 350 -11 274 -11 c 0
 173 -11 77 21 77 154 c 0
EndSplineSet
EndChar

StartChar: d
Encoding: 100 100 110
Width: 561
Flags: HW
TeX: 694 0
ItalicCorrection: 118
HStem: -11 73<183 310.91> -0 21G<363 503.259> 411 72<296.908 413.75> 675 20G<509.73 647>
VStem: 74 135<79.5185 268.023>
DStem2: 360.662 -11 496.662 -11 0.207912 0.978148<39.5217 63.4183 92.3963 412.13 449.437 722.453>
AnchorPoint: "affricate-below" 526 -167 basechar 0
AnchorPoint: "affricate-above" 709 695 basechar 0
AnchorPoint: "below" 268 0 basechar 0
AnchorPoint: "above" 415 695 basechar 0
LayerCount: 2
Fore
SplineSet
74 138 m 0
 74 169 79 201 85 231 c 0
 95 279 133 483 324 483 c 0
 404 483 443 442 457 428 c 1
 514 695 l 1
 647 695 l 1
 499 -0 l 1
 363 -0 l 1x78
 374 51 l 1
 345 28 293 -11 217 -11 c 0
 149 -11 74 18 74 138 c 0
209 138 m 0xb8
 209 77 248 62 287 62 c 0
 326 62 354 77 385 103 c 1
 444 382 l 1
 424 401 403 411 372 411 c 0
 312 411 281 379 272 368 c 0
 228 315 209 159 209 138 c 0xb8
EndSplineSet
EndChar

StartChar: e
Encoding: 101 101 111
Width: 511
Flags: HW
TeX: 472 0
ItalicCorrection: 76
HStem: -11 73<232.269 410.234> 250 54<228 431.996> 416 73<294.129 410.542>
VStem: 72 128<96.5177 249.069> 432 113<304.746 396.618>
AnchorPoint: "ogonek" 283 0 basechar 0
AnchorPoint: "affricate-below" 476 -167 basechar 0
AnchorPoint: "affricate-above" 659 695 basechar 0
AnchorPoint: "below" 283 0 basechar 0
AnchorPoint: "above" 374 489 basechar 0
LayerCount: 2
Fore
SplineSet
72 160 m 0
 72 199 80 230 86 259 c 1
 121 401 211 489 374 489 c 0
 486 489 545 444 545 341 c 0
 545 310 539 280 533 250 c 1
 212 250 l 1
 206 223 200 195 200 167 c 0
 200 83 253 62 302 62 c 0
 381 62 443 95 493 129 c 1
 482 38 l 1
 433 12 362 -11 281 -11 c 0
 175 -11 72 23 72 160 c 0
228 304 m 1
 431 304 l 1
 432 313 432 321 432 330 c 0
 432 406 386 416 358 416 c 0
 306 416 254 379 228 304 c 1
EndSplineSet
EndChar

StartChar: f
Encoding: 102 102 112
Width: 336
Flags: HW
TeX: 694 0
ItalicCorrection: 223
HStem: 0 21G<85 223.25> 400 72<130 170 316 399> 633 73<361.331 489.201>
DStem2: 85 0 219 0 0.207912 0.978148<27.8602 408.932 509.713 653.044>
AnchorPoint: "affricate-below" 301 -167 basechar 0
AnchorPoint: "affricate-above" 484 695 basechar 0
AnchorPoint: "above" 437 695 basechar 0
AnchorPoint: "below" 152 0 basechar 0
LayerCount: 2
Fore
SplineSet
85 0 m 1
 170 400 l 1
 114 400 l 1
 130 472 l 1
 185 472 l 1
 206 570 214 706 439 706 c 0
 481 706 501 701 528 695 c 1
 507 594 l 1
 487 615 471 633 422 633 c 0
 339 633 340 586 316 472 c 1
 415 472 l 1
 399 400 l 1
 304 400 l 1
 219 0 l 1
 85 0 l 1
EndSplineSet
EndChar

StartChar: g
Encoding: 103 103 113
Width: 561
Flags: HW
TeX: 472 166
ItalicCorrection: 71
HStem: -190 73<134.657 311.867> 25 72<195.5 313.16> 411 72<306.571 413.81>
VStem: 77 139<117.963 285.849>
DStem2: 321.107 -190 458.238 -190 0.207912 0.978148<118.085 316.926 334.127 449.906 450.53 553.764 617.245 688.834>
AnchorPoint: "affricate-below" 526 -167 basechar 0
AnchorPoint: "affricate-above" 709 695 basechar 0
AnchorPoint: "below" 240 -167 basechar 0
AnchorPoint: "above" 370 489 basechar 0
LayerCount: 2
Fore
SplineSet
46 -139 m 1
 65 -47 l 1
 93 -71 137 -117 245 -117 c 0
 348 -117 358 -29 387 120 c 1
 346 57 295 25 233 25 c 0
 158 25 77 53 77 165 c 0
 77 238 111 377 199 440 c 0
 233 465 283 483 340 483 c 0
 407 483 435 447 453 413 c 1
 468 483 l 1
 602 483 l 1
 505 30 l 2
 489 -44 463 -190 235 -190 c 0
 165 -190 112 -180 46 -139 c 1
216 180 m 0
 216 114 258 97 292 97 c 0
 372 97 405 203 415 250 c 1
 418 250 l 1
 431 313 438 337 438 352 c 0
 438 369 421 411 372 411 c 0
 247 411 216 230 216 180 c 0
EndSplineSet
EndChar

StartChar: h
Encoding: 104 104 114
Width: 561
Flags: HW
TeX: 694 0
ItalicCorrection: 47
HStem: -0 21G<59 200.231 364 504.28> 411 72<365.369 493.5> 675 20G<206 340>
VStem: 438 140<263.297 404.021>
DStem2: 59 -0 196 -0 0.207912 0.978148<28.4839 403.475 415.419 709.397> 364 -0 500 -0 0.207912 0.978148<28.276 369.901>
AnchorPoint: "affricate-below" 526 -167 basechar 0
AnchorPoint: "affricate-above" 709 695 basechar 0
AnchorPoint: "below" 279 0 basechar 0
AnchorPoint: "above" 427 695 basechar 0
LayerCount: 2
Fore
SplineSet
59 -0 m 1
 206 694 l 1
 207 695 l 1
 340 695 l 1
 274 379 l 1
 306 427 367 483 456 483 c 0
 531 483 578 462 578 391 c 0
 578 359 566 310 558 271 c 2
 500 -0 l 1
 364 -0 l 1
 433 325 l 2
 436 337 438 351 438 363 c 0
 438 401 412 411 384 411 c 0
 357 411 280 398 251 260 c 2
 196 -0 l 1
 59 -0 l 1
EndSplineSet
EndChar

StartChar: i
Encoding: 105 105 115
Width: 256
Flags: HW
TeX: 694 0
ItalicCorrection: 122
HStem: 0 21<60 198.237> 452 20<155.763 294> 573 122<207 315>
VStem: 60 234
DStem2: 60 0 194 0 0.207912 0.978148<27.8602 482.477>
AnchorPoint: "above" 270 675 basechar 0
AnchorPoint: "ogonek" 127 0 basechar 0
AnchorPoint: "affricate-below" 221 -167 basechar 0
AnchorPoint: "affricate-above" 404 695 basechar 0
AnchorPoint: "below" 127 0 basechar 0
LayerCount: 2
Fore
SplineSet
181 573 m 1
 207 695 l 1
 341 695 l 1
 315 573 l 1
 181 573 l 1
EndSplineSet
Refer: 35 305 S 1 0 0 1 0 -0 3
EndChar

StartChar: j
Encoding: 106 106 116
Width: 286
Flags: HW
TeX: 694 166
ItalicCorrection: 118
HStem: -178 85<-72.45 70.3295> 452 20G<187.725 326> 573 122<239 347>
DStem2: 53.2179 -178 187.117 -178 0.207912 0.978148<90.2928 664.65 795.67 892.549>
AnchorPoint: "affricate-below" 251 -167 basechar 0
AnchorPoint: "affricate-above" 434 695 basechar 0
AnchorPoint: "below" 77 -167 basechar 0
LayerCount: 2
Fore
SplineSet
-102 -148 m 1
 -65 -76 l 1
 -46 -86 -29 -93 6 -93 c 0
 67 -93 75 -74 80 -52 c 2
 192 472 l 1
 326 472 l 1
 219 -28 l 2
 207 -82 192 -178 41 -178 c 0
 -16 -178 -56 -168 -102 -148 c 1
214 573 m 1
 239 695 l 1
 373 695 l 1
 347 573 l 1
 214 573 l 1
EndSplineSet
EndChar

StartChar: k
Encoding: 107 107 117
Width: 531
Flags: HW
TeX: 694 0
ItalicCorrection: 88
HStem: -0 21G<68 187.258 366.813 511> 452 20G<411.667 587> 675 20G<215 333>
DStem2: 68 -0 183 -0 0.207912 0.978148<23.9098 182.384 347.558 709.397> 253 316 377 293 0.760268 0.649609<79.3323 239.708> 377 293 280 209 0.415906 -0.909407<36.0473 266.04>
AnchorPoint: "affricate-below" 496 -167 basechar 0
AnchorPoint: "affricate-above" 679 695 basechar 0
AnchorPoint: "below" 289 0 basechar 0
AnchorPoint: "above" 437 695 basechar 0
LayerCount: 2
Fore
SplineSet
68 -0 m 1
 215 694 l 1
 216 695 l 1
 333 695 l 1
 253 316 l 1
 435 472 l 1
 587 472 l 1
 377 293 l 1
 511 -0 l 1
 376 -0 l 1
 280 209 l 1
 216 155 l 1
 183 -0 l 1
 68 -0 l 1
EndSplineSet
EndChar

StartChar: l
Encoding: 108 108 118
Width: 256
Flags: HW
TeX: 694 0
ItalicCorrection: 118
HStem: -0 21G<60 198.23> 675 20G<207 341>
VStem: 60 281
DStem2: 60 -0 194 -0 0.207912 0.978148<27.8602 709.397>
AnchorPoint: "affricate-below" 221 -167 basechar 0
AnchorPoint: "affricate-above" 404 695 basechar 0
AnchorPoint: "below" 126 0 basechar 0
AnchorPoint: "above" 274 695 basechar 0
LayerCount: 2
Fore
SplineSet
60 -0 m 1
 207 694 l 1
 208 695 l 1
 341 695 l 1
 194 -0 l 1
 60 -0 l 1
EndSplineSet
EndChar

StartChar: m
Encoding: 109 109 119
Width: 867
Flags: HW
TeX: 472 0
ItalicCorrection: 47
HStem: -0 21G<59 200.231 364 505.231 670 810.28> 411 72<365.324 473.271 670.323 784.877>
VStem: 744 140<263.703 404.269>
DStem2: 59 -0 196 -0 0.207912 0.978148<28.4839 403.91 409.697 488.554> 364 -0 501 -0 0.207912 0.978148<28.4839 370.11> 670 -0 806 -0 0.207912 0.978148<28.276 369.902>
AnchorPoint: "affricate-below" 832 -167 basechar 0
AnchorPoint: "affricate-above" 1015 695 basechar 0
AnchorPoint: "below" 432 0 basechar 0
AnchorPoint: "above" 536 489 basechar 0
LayerCount: 2
Fore
SplineSet
59 -0 m 1
 160 478 l 1
 292 478 l 1
 270 374 l 1
 301 421 363 483 451 483 c 0
 514 483 572 475 578 402 c 1
 579 379 l 1
 612 428 673 483 762 483 c 0
 832 483 884 465 884 391 c 0
 884 359 872 310 864 271 c 2
 806 -0 l 1
 670 -0 l 1
 739 326 l 2
 742 338 744 351 744 363 c 0
 744 401 718 411 690 411 c 0
 663 411 585 399 556 260 c 2
 501 -0 l 1
 364 -0 l 1
 434 326 l 2
 437 338 439 351 439 363 c 0
 439 401 412 411 384 411 c 0
 357 411 280 399 251 260 c 2
 196 -0 l 1
 59 -0 l 1
EndSplineSet
EndChar

StartChar: n
Encoding: 110 110 120
Width: 561
Flags: HW
TeX: 472 0
ItalicCorrection: 47
HStem: -0 21G<59 200.231 364 504.265> 411 72<364.81 479.377>
VStem: 438 140<263.781 404.269>
DStem2: 59 -0 196 -0 0.207912 0.978148<28.4839 403.475 409.697 488.554> 364 -0 500 -0 0.207912 0.978148<28.276 369.901>
AnchorPoint: "affricate-below" 526 -167 basechar 0
AnchorPoint: "affricate-above" 709 695 basechar 0
AnchorPoint: "below" 279 0 basechar 0
AnchorPoint: "above" 383 489 basechar 0
LayerCount: 2
Fore
SplineSet
59 -0 m 1
 160 478 l 1
 292 478 l 1
 270 374 l 1
 303 424 364 483 456 483 c 0
 527 483 578 465 578 391 c 0
 578 359 566 311 558 272 c 2
 500 -0 l 1
 364 -0 l 1
 433 325 l 2
 436 337 438 351 438 363 c 0
 438 401 412 411 384 411 c 0
 357 411 280 398 251 260 c 2
 196 -0 l 1
 59 -0 l 1
EndSplineSet
EndChar

StartChar: o
Encoding: 111 111 121
Width: 550
Flags: HW
TeX: 472 0
ItalicCorrection: 70
HStem: -11 78<226.393 361.302> 416 73<288.827 426.144>
VStem: 70 134<88.8196 277.568> 447 130<205.514 396.532>
AnchorPoint: "ogonek" 272 0 basechar 0
AnchorPoint: "affricate-below" 515 -167 basechar 0
AnchorPoint: "affricate-above" 698 695 basechar 0
AnchorPoint: "below" 272 0 basechar 0
AnchorPoint: "above" 379 489 basechar 0
LayerCount: 2
Fore
SplineSet
70 154 m 0
 70 198 80 236 86 260 c 0
 119 384 198 489 379 489 c 0
 556 489 577 383 577 317 c 0
 577 279 571 249 565 221 c 0
 526 53 419 -11 270 -11 c 0
 169 -11 70 22 70 154 c 0
204 147 m 0
 204 83 247 67 289 67 c 0
 410 67 422 192 441 281 c 0
 444 298 447 318 447 337 c 0
 447 379 430 416 362 416 c 0
 269 416 233 352 207 180 c 0
 206 170 204 160 204 147 c 0
EndSplineSet
EndChar

StartChar: p
Encoding: 112 112 122
Width: 561
Flags: HW
TeX: 472 166
ItalicCorrection: 44
HStem: -167 21G<25 166.171> -11 73<242.493 354.223> 405 78<357.099 498> 452 20G<156.743 295>
VStem: 447 141<203.592 382.557>
DStem2: 25 -167 162 -167 0.207912 0.978148<28.4839 244.021 283.159 600.573 629.978 653.312>
AnchorPoint: "affricate-below" 526 -167 basechar 0
AnchorPoint: "affricate-above" 709 695 basechar 0
AnchorPoint: "below" 256 -167 basechar 0
AnchorPoint: "above" 396 489 basechar 0
LayerCount: 2
Fore
SplineSet
25 -167 m 1
 161 472 l 1
 295 472 l 1xd8
 284 422 l 1
 331 455 394 483 467 483 c 0
 529 483 588 452 588 345 c 0
 588 323 585 289 574 236 c 0
 565 192 524 -11 325 -11 c 0
 265 -11 233 12 206 44 c 1
 162 -167 l 1
 25 -167 l 1
218 96 m 1
 227 85 245 62 286 62 c 0xe8
 407 62 434 218 438 238 c 0
 443 262 447 287 447 312 c 0
 447 393 400 405 369 405 c 0
 332 405 299 389 276 373 c 1
 218 96 l 1
EndSplineSet
EndChar

StartChar: q
Encoding: 113 113 123
Width: 561
Flags: HW
TeX: 472 166
ItalicCorrection: 71
HStem: -167 21G<327 464> -11 73<185 311.4> 405 78<304.219 410.484>
VStem: 74 138<84.4625 274.536>
DStem2: 327 -167 463.787 -167 0.207912 0.978148<29.462 224.964 252.706 527.095 590.588 665.112>
AnchorPoint: "affricate-below" 526 -167 basechar 0
AnchorPoint: "affricate-above" 709 695 basechar 0
AnchorPoint: "below" 231 -167 basechar 0
AnchorPoint: "above" 371 489 basechar 0
LayerCount: 2
Fore
SplineSet
74 139 m 0
 74 211 107 483 336 483 c 0
 406 483 435 444 453 410 c 1
 468 483 l 1
 602 483 l 1
 464 -166 l 1
 463 -167 l 1
 327 -167 l 1
 374 53 l 1
 332 16 281 -11 219 -11 c 0
 151 -11 74 19 74 139 c 0
212 156 m 0
 212 75 257 62 288 62 c 0
 328 62 362 83 389 109 c 1
 428 295 438 334 438 349 c 0
 438 357 425 405 371 405 c 0
 348 405 297 397 260 339 c 0
 222 278 212 175 212 156 c 0
EndSplineSet
EndChar

StartChar: r
Encoding: 114 114 124
Width: 372
Flags: HW
TeX: 472 0
ItalicCorrection: 115
HStem: 0 21G<60 198.308> 381 102<376.387 437>
DStem2: 60 0 194 0 0.207912 0.978148<27.8602 354.692 391.821 488.554>
AnchorPoint: "affricate-below" 337 -167 basechar 0
AnchorPoint: "affricate-above" 520 695 basechar 0
AnchorPoint: "below" 127 0 basechar 0
AnchorPoint: "above" 312 489 basechar 0
LayerCount: 2
Fore
SplineSet
60 0 m 1
 161 478 l 1
 290 478 l 1
 265 357 l 1
 296 409 362 481 459 483 c 1
 437 382 l 1
 437 381 l 1
 328 379 266 311 250 260 c 1
 194 0 l 1
 60 0 l 1
EndSplineSet
EndChar

StartChar: s
Encoding: 115 115 125
Width: 422
Flags: HW
TeX: 472 0
ItalicCorrection: 82
HStem: -11 79<141.94 303.317> 417 72<227.78 391.44>
VStem: 105 108<282.5 394.423> 324 106<90.2205 206>
AnchorPoint: "affricate-below" 387 -167 basechar 0
AnchorPoint: "affricate-above" 570 695 basechar 0
AnchorPoint: "below" 218 0 basechar 0
AnchorPoint: "above" 322 489 basechar 0
LayerCount: 2
Fore
SplineSet
38 36 m 1
 80 146 l 1
 89 134 131 68 232 68 c 0
 313 68 324 116 324 135 c 0
 324 188 238 185 194 200 c 0
 151 215 105 252 105 313 c 0
 105 353 126 413 167 447 c 0
 214 486 279 489 322 489 c 0
 381 489 420 481 477 456 c 1
 439 360 l 1
 403 392 371 417 292 417 c 0
 220 417 213 373 213 356 c 0
 213 304 290 313 346 292 c 0
 389 276 430 237 430 175 c 0
 430 132 407 66 362 30 c 0
 340 12 301 -11 216 -11 c 0
 158 -11 99 0 38 36 c 1
EndSplineSet
EndChar

StartChar: t
Encoding: 116 116 126
Width: 404
Flags: HW
TeX: 607 0
ItalicCorrection: 75
HStem: -11 78<165 321.885> 400 72<121 172 319 440>
VStem: 108 137<69.7136 197.037>
DStem2: 84.6393 -11 215.639 -11 0.207912 0.978148<154.604 420.182 521.172 632.43>
AnchorPoint: "affricate-below" 369 -167 basechar 0
AnchorPoint: "affricate-above" 552 695 basechar 0
AnchorPoint: "below" 166 0 basechar 0
AnchorPoint: "above" 281 607 basechar 0
LayerCount: 2
Fore
SplineSet
105 400 m 1
 121 472 l 1
 190 472 l 1
 219 607 l 1
 347 607 l 1
 319 472 l 1
 455 472 l 1
 440 400 l 1
 303 400 l 1
 247 135 245 133 245 112 c 0
 245 80 258 67 283 67 c 0
 320 67 349 83 377 103 c 1
 381 33 l 1
 327 10 265 -11 187 -11 c 0
 143 -11 108 6 108 73 c 0
 108 105 117 139 172 400 c 1
 105 400 l 1
EndSplineSet
EndChar

StartChar: u
Encoding: 117 117 127
Width: 561
Flags: HW
TeX: 472 0
ItalicCorrection: 71
HStem: -11 61<165.5 298.317> 0 21G<367 504.28> 452 20G<154.768 296 464 601>
VStem: 79 136<53.1886 191.281>
DStem2: 56.6672 -11 192.88 -11 0.207912 0.978148<122.344 493.721> 364.662 -11 497.662 -11 0.207912 0.978148<38.898 91.846 108.299 463.873>
AnchorPoint: "ogonek" 433 0 basechar 0
AnchorPoint: "affricate-below" 526 -167 basechar 0
AnchorPoint: "affricate-above" 709 695 basechar 0
AnchorPoint: "below" 279 0 basechar 0
AnchorPoint: "above" 383 489 basechar 0
LayerCount: 2
Fore
SplineSet
79 74 m 0
 79 92 82 110 86 127 c 2
 159 472 l 1
 296 472 l 1
 222 126 l 2
 217 99 215 89 215 80 c 0
 215 56 233 50 269 50 c 0xb0
 345 50 383 115 395 152 c 0
 400 167 464 471 464 472 c 1
 601 472 l 1
 500 0 l 1
 367 0 l 1x70
 383 79 l 1
 312 -6 238 -11 203 -11 c 0xb0
 128 -11 79 5 79 74 c 0
EndSplineSet
EndChar

StartChar: v
Encoding: 118 118 128
Width: 500
Flags: HW
TeX: 472 0
ItalicCorrection: 115
HStem: 0 21G<161.924 345.551> 452 20G<115 240.085 452.408 584>
DStem2: 238 472 115 472 0.103259 -0.994655<0 356.923> 275 117 335 0 0.466596 0.884471<0 401.707>
AnchorPoint: "affricate-below" 465 -167 basechar 0
AnchorPoint: "affricate-above" 648 695 basechar 0
AnchorPoint: "below" 250 0 basechar 0
AnchorPoint: "above" 353 489 basechar 0
LayerCount: 2
Fore
SplineSet
115 472 m 1
 238 472 l 1
 275 117 l 1
 463 472 l 1
 584 472 l 1
 335 0 l 1
 164 0 l 1
 115 472 l 1
EndSplineSet
EndChar

StartChar: w
Encoding: 119 119 129
Width: 744
Flags: HW
TeX: 472 0
ItalicCorrection: 115
HStem: 0 21G<141.814 307 429.701 609.661> 452 20G<115 238.153 411.324 517.186 699.282 828>
DStem2: 237 472 115 472 0.0592179 -0.998245<0 339.589> 537 118 600 0 0.434962 0.900449<0 393.572>
AnchorPoint: "affricate-below" 709 -167 basechar 0
AnchorPoint: "affricate-above" 892 695 basechar 0
AnchorPoint: "below" 372 0 basechar 0
AnchorPoint: "above" 475 489 basechar 0
LayerCount: 2
Fore
SplineSet
115 472 m 1
 237 472 l 1
 254 177 l 1
 257 133 l 1
 421 472 l 1
 516 472 l 1
 537 118 l 1
 709 472 l 1
 828 472 l 1
 600 0 l 1
 431 0 l 1
 426 77 l 1
 420 214 l 1
 419 287 l 1
 422 335 l 1
 409 283 341 143 273 0 c 1
 143 0 l 1
 115 472 l 1
EndSplineSet
EndChar

StartChar: x
Encoding: 120 120 130
Width: 500
Flags: HW
TeX: 472 0
ItalicCorrection: 97
HStem: 0 21G<0 153.176 352.588 500> 452 20G<107 254.111 427.037 581>
DStem2: 318 337 353 244 0.707107 0.707107<0 185.969>
AnchorPoint: "affricate-below" 465 -167 basechar 0
AnchorPoint: "affricate-above" 648 695 basechar 0
AnchorPoint: "below" 250 0 basechar 0
AnchorPoint: "above" 354 489 basechar 0
LayerCount: 2
Fore
SplineSet
0 0 m 1
 244 244 l 1
 107 472 l 1
 243 472 l 1
 318 337 l 1
 446 472 l 1
 581 472 l 1
 353 244 l 1
 500 0 l 1
 362 0 l 1
 282 170 l 1
 136 0 l 1
 0 0 l 1
EndSplineSet
EndChar

StartChar: y
Encoding: 121 121 131
Width: 500
Flags: HW
TeX: 472 166
ItalicCorrection: 115
HStem: -178 85<25.2658 173.967> 452 20G<115 254.5 422 584>
AnchorPoint: "affricate-below" 465 -167 basechar 0
AnchorPoint: "affricate-above" 648 695 basechar 0
AnchorPoint: "below" 214 -167 basechar 0
AnchorPoint: "above" 365 489 basechar 0
LayerCount: 2
Fore
SplineSet
8 -171 m 1
 21 -69 l 1
 44 -82 71 -93 106 -93 c 0
 184 -93 200 -39 214 -14 c 0
 219 -5 220 -1 220 4 c 0
 220 8 219 12 217 20 c 2
 115 472 l 1
 244 472 l 1
 265 375 289 282 298 173 c 1
 297 137 l 1
 311 194 381 319 463 472 c 1
 584 472 l 1
 325 -1 l 2
 315 -20 250 -178 85 -178 c 0
 54 -178 23 -173 8 -171 c 1
EndSplineSet
EndChar

StartChar: z
Encoding: 122 122 132
Width: 476
Flags: HW
TeX: 472 0
ItalicCorrection: 94
HStem: 0 75<190 442> 402 70<146 382>
AnchorPoint: "affricate-below" 441 -167 basechar 0
AnchorPoint: "affricate-above" 624 695 basechar 0
AnchorPoint: "below" 236 0 basechar 0
AnchorPoint: "above" 340 489 basechar 0
LayerCount: 2
Fore
SplineSet
30 0 m 1
 40 49 l 1
 382 404 l 1
 315 403 l 1
 280 403 l 1
 204 402 l 1
 130 402 l 1
 146 472 l 1
 540 472 l 1
 534 446 l 1
 529 428 l 1
 516 412 l 1
 190 74 l 1
 292 75 l 1
 374 75 l 1
 458 76 l 1
 442 0 l 1
 30 0 l 1
EndSplineSet
EndChar

StartChar: braceleft
Encoding: 123 123 133
Width: 550
Flags: HW
TeX: 750 222
ItalicCorrection: 134
HStem: -222 72<328.234 447> 678 72<492.989 638>
VStem: 181 139<-138.026 -19.5151> 233 137<24.4889 188.379>
LayerCount: 2
Fore
SplineSet
103 228 m 1
 119 300 l 1
 191 301 270 336 291 403 c 1
 315 501 337 625 345 649 c 0
 379 750 541 750 601 750 c 2
 654 750 l 1
 638 678 l 1
 621 678 l 2
 495 678 483 657 476 625 c 0
 424 388 432 360 353 309 c 0
 311 282 255 266 202 264 c 1
 202 263 l 1
 295 259 370 215 370 141 c 0xd0
 370 124 372 134 323 -95 c 0
 322 -101 320 -107 320 -113 c 0
 320 -149 384 -149 463 -150 c 1
 447 -222 l 1
 387 -222 l 2
 324 -222 181 -219 181 -129 c 0xe0
 181 -103 233 109 233 135 c 0
 233 159 218 215 127 226 c 1
 103 228 l 1
EndSplineSet
EndChar

StartChar: bar
Encoding: 124 124 134
Width: 306
Flags: HW
TeX: 750 222
ItalicCorrection: 78
VStem: 72 86<-215.303 -140.066> 259 85<672.027 743.872>
LayerCount: 2
Fore
SplineSet
72 -180 m 0
 72 -172 74 -165 76 -157 c 2
 259 705 l 2
 262 716 268 750 303 750 c 0
 325 750 344 731 344 708 c 0
 344 701 342 695 341 688 c 2
 158 -173 l 2
 156 -180 151 -222 114 -222 c 0
 92 -222 72 -205 72 -180 c 0
EndSplineSet
EndChar

StartChar: braceright
Encoding: 125 125 135
Width: 550
Flags: HW
TeX: 750 222
ItalicCorrection: 31
HStem: -222 72<23 168.206> 678 72<214 332.766>
VStem: 291 137<339.719 503.459> 341 139<548.043 666.065>
DStem2: 158.643 -222 294.532 -222 0.207912 0.978148<83.0622 418.965>
LayerCount: 2
Fore
SplineSet
7 -222 m 1
 23 -150 l 1
 39 -150 l 2
 169 -150 178 -130 185 -98 c 0
 201 -23 232 121 234 127 c 0
 263 219 372 260 459 263 c 1
 459 264 l 1
 389 267 291 300 291 387 c 0xe0
 291 404 296 423 338 623 c 0
 339 629 341 635 341 641 c 0
 341 675 282 678 198 678 c 1
 214 750 l 1
 274 750 l 2
 337 750 480 747 480 657 c 0xd0
 480 631 428 419 428 393 c 0xe0
 428 356 450 308 558 300 c 1
 542 227 l 1
 470 226 391 191 370 124 c 1
 346 26 324 -97 316 -121 c 0
 282 -222 120 -222 60 -222 c 2
 7 -222 l 1
EndSplineSet
EndChar

StartChar: asciitilde
Encoding: 126 126 136
Width: 672
Flags: HW
TeX: 694 0
ItalicCorrection: 86
HStem: 566 73<507.057 632.053> 622 73<307.127 433.867>
VStem: 212 73<566 599.492> 655 73<664.191 695>
LayerCount: 2
Fore
SplineSet
212 566 m 1xb0
 229 641 303 695 381 695 c 0x70
 480 695 517 639 575 639 c 0xb0
 639 639 655 695 655 695 c 1
 728 695 l 1x70
 704 607 624 566 558 566 c 0xb0
 456 566 426 622 365 622 c 0x70
 340 622 301 611 285 566 c 1
 212 566 l 1xb0
EndSplineSet
EndChar

StartChar: Abreve
Encoding: 258 258 138
Width: 733
Flags: HW
TeX: 902 0
HStem: 0 21<30 177.2 545.2 701> 150 87<299 515> 675 20<408.777 608.734> 730 94<438.111 590.318>
VStem: 340 75<849.856 903> 649 73<867.43 903>
DStem2: 30 0 166 0 0.489367 0.872078<66.554 238.472 338.322 715.449> 606 695 481 513 0.135431 -0.990787<107.504 441.456 529.28 680.742>
AnchorPoint: "below" 366 0 basechar 0
AnchorPoint: "above" 558 905 basechar 0
LayerCount: 2
Fore
SplineSet
340 869 m 0
 340 876 339 873 343 903 c 1
 416 903 l 1
 416 900 415 897 415 894 c 0
 415 839 472 824 517 824 c 0
 557 824 631 838 649 903 c 1
 722 903 l 1
 701 805 598 730 496 730 c 0
 407 730 340 785 340 869 c 0
EndSplineSet
Refer: 75 65 S 1 0 0 1 -0 0 3
AlternateSubs2: "Stilistic set 01 subtable" Abreve.vn
AlternateSubs2: "Latin alternatives subtable" Abreve.vn
Substitution2: "Latin Vietnamese substitutions subtable" Abreve.vn
EndChar

StartChar: Aogonek
Encoding: 260 260 139
Width: 733
Flags: HW
TeX: 694 166
HStem: -189 82<498.5 628.021> 0 21G<30 177.2> 150 87<299 515> 675 20G<408.777 608.734>
DStem2: 30 0 166 0 0.489367 0.872078<66.554 238.472 338.322 715.449> 606 695 481 513 0.135431 -0.990787<107.504 441.456 529.28 687.678>
AnchorPoint: "above" 518 717 basechar 0
LayerCount: 2
Fore
SplineSet
30 0 m 1
 420 695 l 1
 606 695 l 1
 701 0 l 1
 642 0 l 2
 615 0 528 -42 523 -84 c 1
 526 -96 533 -107 563 -107 c 0
 593 -107 631 -94 638 -92 c 1
 642 -162 l 1
 604 -177 562 -189 520 -189 c 0
 477 -189 421 -177 421 -127 c 0
 421 -76 506 -21 548 -0 c 1
 527 150 l 1
 250 150 l 1
 166 0 l 1
 30 0 l 1
299 237 m 1
 515 237 l 1
 487 459 l 1
 481 513 l 1
 478 569 l 1
 455 518 375 374 299 237 c 1
EndSplineSet
Ligature2: "Latin ligatures subtable" A uni0328
EndChar

StartChar: Cacute
Encoding: 262 262 140
Width: 703
Flags: HW
TeX: 862 0
ItalicCorrection: 117
HStem: -23 101<344.74 572.702> 617 100<450.144 666.102>
VStem: 120 149<152.758 379.632>
AnchorPoint: "below" 428 0 basechar 0
AnchorPoint: "above" 607 844 basechar 0
LayerCount: 2
Fore
SplineSet
420 765 m 1
 563 864 557 864 577 864 c 0
 580 864 583 863 586 863 c 2
 706 863 l 2
 714 863 723 864 731 864 c 0
 739 864 748 863 756 863 c 1
 537 770 l 1
 523 765 l 1
 506 764 l 1
 483 764 l 1
 420 765 l 1
EndSplineSet
Refer: 77 67 S 1 0 0 1 -0 0 3
EndChar

StartChar: Eogonek
Encoding: 280 280 144
Width: 642
Flags: HW
TeX: 694 166
ItalicCorrection: 117
HStem: -189 82<409.5 547.045> -0 107<262 467 501.26 595> 312 95<326 615> 587 105<364 705>
VStem: 341 101<-147 -79.0274>
DStem2: 50.8268 -189 199.083 -189 0.207912 0.978148<333.437 542.898 640.188 827.089>
AnchorPoint: "above" 487 717 basechar 0
LayerCount: 2
Fore
SplineSet
91 -0 m 1
 238 692 l 1
 727 692 l 1
 705 587 l 1
 364 590 l 1
 326 407 l 1
 635 407 l 1
 615 312 l 1
 305 312 l 1
 262 107 l 1
 291 107 l 1
 542 110 l 1
 618 111 l 1
 595 -0 l 1
 585 0 575 0 565 -0 c 0
 520 0 442 -53 442 -83 c 0
 442 -92 450 -107 482 -107 c 0
 512 -107 550 -94 557 -92 c 1
 561 -162 l 1
 533 -173 487 -189 439 -189 c 0
 380 -189 341 -165 341 -129 c 0
 341 -77 415 -28 467 -0 c 1
 91 -0 l 1
EndSplineSet
EndChar

StartChar: Gbreve
Encoding: 286 286 145
Width: 733
Flags: HW
TeX: 902 0
ItalicCorrection: 117
HStem: -22 100<343.176 540.09> 233 95<496 571> 617 100<454.195 667.088> 729 95<523.838 676.428>
VStem: 120 149<150.411 373.535> 426 75<849.839 903> 734 73<867.387 903>
LayerCount: 2
Fore
SplineSet
426 869 m 0
 426 876 425 873 429 903 c 1
 502 903 l 1
 502 900 501 897 501 894 c 0
 501 838 561 824 600 824 c 0
 640 824 716 838 734 903 c 1
 807 903 l 1
 786 805 684 729 582 729 c 0
 494 729 426 785 426 869 c 0
EndSplineSet
Refer: 81 71 S 1 0 0 1 0 -0 3
EndChar

StartChar: Lacute
Encoding: 313 313 146
Width: 581
Flags: HW
TeX: 862 0
HStem: -0 105<260 534> 675 20<238 387>
DStem2: 91 -0 238.532 -0 0.207912 0.978148<133.93 709.397>
LayerCount: 2
Fore
SplineSet
161 765 m 1
 304 864 298 864 318 864 c 0
 321 864 324 863 327 863 c 2
 447 863 l 2
 455 863 463 864 471 864 c 0
 479 864 488 863 496 863 c 1
 278 770 l 1
 264 765 l 1
 247 764 l 1
 224 764 l 1
 161 765 l 1
EndSplineSet
Refer: 86 76 S 1 0 0 1 0 -0 3
EndChar

StartChar: Lcaron
Encoding: 317 317 147
Width: 581
Flags: HW
TeX: 902 0
HStem: 0 105<260 534> 675 20<238 387>
DStem2: 91 0 238.532 0 0.207912 0.978148<133.93 709.397>
LayerCount: 2
Fore
SplineSet
401 621 m 1
 455 695 l 1
 416 695 l 1
 445 826 l 1
 575 826 l 1
 546 688 552 700 534 683 c 2
 466 620 l 1
 401 621 l 1
EndSplineSet
Refer: 86 76 S 1 0 0 1 0 0 3
EndChar

StartChar: Lslash
Encoding: 321 321 148
Width: 672
Flags: HW
TeX: 694 0
HStem: -0 105<351 625> 675 20G<330 478>
DStem2: 131 275 174 200 0.825171 0.564882<0 64.3966 365.307 534.822> 182 -0 329.532 -0 0.207912 0.978148<133.93 245.359 370.099 398.913 523.445 710.584>
LayerCount: 2
Fore
SplineSet
131 275 m 1
 259 362 l 1
 330 694 l 1
 330 695 l 1
 478 695 l 1
 432 482 l 1
 577 581 l 1
 621 506 l 1
 407 360 l 1
 351 101 l 1
 621 105 l 1
 648 105 l 1
 625 -0 l 1
 182 -0 l 1
 233 240 l 1
 174 200 l 1
 131 275 l 1
EndSplineSet
EndChar

StartChar: Nacute
Encoding: 323 323 149
Width: 794
Flags: HW
TeX: 862 0
ItalicCorrection: 86
HStem: 0 21<91 218.251 503.937 706.259> 675 20<238 437.017 726 850>
DStem2: 91 0 214 0 0.207912 0.978148<25.5731 612.395> 431 695 336 574 0.288112 -0.957597<88.4986 600.461>
LayerCount: 2
Fore
SplineSet
420 765 m 1
 563 864 557 864 577 864 c 0
 580 864 583 863 586 863 c 2
 706 863 l 2
 714 863 723 864 731 864 c 0
 739 864 748 863 756 863 c 1
 537 770 l 1
 523 765 l 1
 506 764 l 1
 484 764 l 1
 420 765 l 1
EndSplineSet
Refer: 88 78 S 1 0 0 1 0 0 3
EndChar

StartChar: Eng
Encoding: 330 330 151
Width: 825
Flags: HW
TeX: 694 0
ItalicCorrection: 147
HStem: -22 97<513.415 618.234> -0 21G<91 243.254> 649 136<471.132 646.164>
VStem: 718 151<402.603 577.373>
DStem2: 86.3238 -22 234.324 -22 0.207912 0.978148<53.2624 629.126> 610.402 -22 756.817 -22 0.207912 0.978148<112.282 532.096>
LayerCount: 2
Fore
SplineSet
91 -0 m 1
 238 694 l 1
 239 695 l 1
 346 695 l 1
 396 737 490 785 597 785 c 0x70
 750 785 869 683 869 529 c 0
 869 486 859 452 852 420 c 0
 793 140 794 143 787 120 c 0
 768 62 715 -22 596 -22 c 0
 531 -22 487 -5 446 19 c 1
 493 140 l 2
 493 139 501 75 564 75 c 0xb0
 633 75 646 144 651 169 c 2
 711 451 l 2
 714 467 718 481 718 500 c 0
 718 589 649 649 562 649 c 0
 455 649 359 563 343 489 c 2
 239 -0 l 1
 91 -0 l 1
EndSplineSet
EndChar

StartChar: Ohungarumlaut
Encoding: 336 336 152
Width: 794
Flags: HW
TeX: 862 0
ItalicCorrection: 72
HStem: -23 82<328.119 500.244> 639 78<437.512 619.397>
VStem: 119 147<121.186 373.145> 679 142<338.365 577.262>
AnchorPoint: "below" 396 0 basechar 0
AnchorPoint: "above" 577 843 basechar 0
LayerCount: 2
Fore
SplineSet
375 765 m 1
 518 864 511 863 532 863 c 2
 894 863 l 1
 676 770 l 1
 661 765 l 1
 644 764 l 1
 622 764 l 1
 559 765 l 1
 682 851 l 1
 504 775 l 1
 479 765 l 1
 461 764 l 1
 404 764 l 1
 375 765 l 1
EndSplineSet
Refer: 89 79 S 1 0 0 1 0 0 3
EndChar

StartChar: Racute
Encoding: 340 340 153
Width: 703
Flags: HW
TeX: 862 0
ItalicCorrection: 80
HStem: 0 21<91 240.244 515.862 671> 311 73<317 412> 608 87<365 587.76>
VStem: 611 140<449.659 586.473>
DStem2: 91 0 236 0 0.207912 0.978148<30.1472 348.073 422.597 651.682> 551 321 412 311 0.350164 -0.936688<0 290.872>
AnchorPoint: "below" 343 0 basechar 0
AnchorPoint: "above" 527 866 basechar 0
LayerCount: 2
Fore
SplineSet
359 765 m 1
 502 864 496 864 516 864 c 0
 519 864 522 863 525 863 c 2
 645 863 l 2
 653 863 662 864 670 864 c 0
 678 864 687 863 695 863 c 1
 476 770 l 1
 462 765 l 1
 445 764 l 1
 423 764 l 1
 359 765 l 1
EndSplineSet
Refer: 92 82 S 1 0 0 1 0 0 3
EndChar

StartChar: Sacute
Encoding: 346 346 155
Width: 611
Flags: HW
TeX: 862 0
ItalicCorrection: 86
HStem: -22 109<210.104 410.64> 613 104<344.672 540.074>
VStem: 164 133<426.195 562.97> 465 132<144.268 254.338>
AnchorPoint: "below" 307 0 basechar 0
AnchorPoint: "above" 488 844 basechar 0
LayerCount: 2
Fore
SplineSet
314 765 m 1
 457 864 451 864 471 864 c 0
 474 864 477 863 480 863 c 2
 600 863 l 2
 608 863 617 864 625 864 c 0
 633 864 642 863 650 863 c 1
 431 770 l 1
 417 765 l 1
 400 764 l 1
 378 764 l 1
 314 765 l 1
EndSplineSet
Refer: 93 83 S 1 0 0 1 -0 -0 3
EndChar

StartChar: Scedilla
Encoding: 350 350 157
Width: 611
Flags: HW
TeX: 694 145
ItalicCorrection: 86
HStem: -168 145 -43 20<264 324.31> -22 109<210.104 410.64> 613 104<344.276 540.614>
VStem: 141 196 164 133<426.195 562.318> 465 132<144.268 254.767>
LayerCount: 2
Fore
SplineSet
59 47 m 1
 110 179 l 1
 128 162 191 87 324 87 c 0
 451 87 465 181 465 204 c 0
 465 291 352 283 279 311 c 0
 222 333 164 386 164 468 c 0
 164 517 189 596 241 646 c 0
 303 705 383 717 461 717 c 0
 539 717 593 703 658 668 c 1
 606 537 l 1
 575 570 540 613 435 613 c 0
 314 613 297 539 297 511 c 0
 297 433 416 439 486 410 c 0
 542 387 597 331 597 246 c 0x36
 597 200 572 -22 302 -22 c 0
 188 -22 109 14 59 47 c 1
EndSplineSet
Refer: 22 184 S 1 0 0 1 61 0 2
EndChar

StartChar: Uhungarumlaut
Encoding: 368 368 160
Width: 764
Flags: HW
TeX: 862 0
ItalicCorrection: 86
HStem: -22 86<309.467 500.111> 675 20<238 387 682 819>
VStem: 132 145<94.2365 276.203>
DStem2: 85.9093 -22 234.412 -22 0.207912 0.978148<214.713 731.975> 529.798 -22 666.76 -22 0.207912 0.978148<164.22 732.976>
AnchorPoint: "below" 386 0 basechar 0
AnchorPoint: "above" 564 865 basechar 0
LayerCount: 2
Fore
SplineSet
359 765 m 1
 502 864 495 863 516 863 c 2
 878 863 l 1
 659 770 l 1
 645 765 l 1
 628 764 l 1
 606 764 l 1
 542 765 l 1
 665 850 l 1
 488 775 l 1
 463 765 l 1
 446 764 l 1
 388 764 l 1
 359 765 l 1
EndSplineSet
Refer: 95 85 S 1 0 0 1 0 0 3
EndChar

StartChar: Uring
Encoding: 366 366 161
Width: 764
Flags: HW
TeX: 902 0
ItalicCorrection: 86
HStem: -22 86<309.467 500.111> 657 72<488.205 599.661> 675 20<238 387 682 819> 830 73<500.78 611.901>
VStem: 132 145<94.2365 276.203> 422 64<731.584 817.415> 613 63<741.533 826.776>
DStem2: 85.9093 -22 234.412 -22 0.207912 0.978148<214.713 731.975> 529.798 -22 666.76 -22 0.207912 0.978148<164.22 732.976>
LayerCount: 2
Fore
SplineSet
422 741 m 0
 422 796 449 903 576 903 c 0
 648 903 676 869 676 819 c 0
 676 777 658 657 522 657 c 0
 434 657 422 709 422 741 c 0
486 760 m 0
 486 730 513 729 536 729 c 0
 576 730 601 729 611 783 c 0
 612 788 613 794 613 799 c 0xde
 613 829 587 830 564 830 c 0
 524 829 498 830 488 776 c 0
 487 771 486 765 486 760 c 0
EndSplineSet
Refer: 95 85 S 1 0 0 1 -0 0 3
EndChar

StartChar: Zacute
Encoding: 377 377 163
Width: 672
Flags: HW
TeX: 862 0
ItalicCorrection: 117
HStem: 0 105<267 616> 596 99<223 553>
DStem2: 74 67 267 101 0.669119 0.743155<154.407 715.867>
AnchorPoint: "below" 338 0 basechar 0
AnchorPoint: "above" 522 866 basechar 0
LayerCount: 2
Fore
SplineSet
374 765 m 1
 517 864 511 864 531 864 c 0
 534 864 537 863 540 863 c 2
 660 863 l 2
 668 863 677 864 685 864 c 0
 693 864 702 863 710 863 c 1
 491 770 l 1
 477 765 l 1
 460 764 l 1
 438 764 l 1
 374 765 l 1
EndSplineSet
Refer: 100 90 S 1 0 0 1 0 0 3
EndChar

StartChar: IJ
Encoding: 306 306 166
Width: 819
Flags: HW
TeX: 694 0
ItalicCorrection: 86
HStem: -22 97<429.699 576.65> 0 21<60 212.259> 675 20G<207 356 729 875>
VStem: 60 296
DStem2: 60 0 208 0 0.207912 0.978148<30.7709 709.397> 577.527 -22 722.276 -22 0.207912 0.978148<120.136 731.847>
LayerCount: 2
Fore
SplineSet
350 19 m 1
 397 140 l 1
 411 109 438 75 499 75 c 0xb0
 599 75 611 138 616 159 c 2
 729 694 l 1
 730 695 l 1
 875 695 l 1
 765 179 l 2
 760 155 742 -22 528 -22 c 0
 475 -22 414 -12 350 19 c 1
EndSplineSet
Refer: 83 73 S 1 0 0 1 -31 0 2
Ligature2: "Latin Dutch ligatures subtable" I J
EndChar

StartChar: dcroat
Encoding: 273 273 168
Width: 561
Flags: HW
TeX: 694 0
ItalicCorrection: 118
HStem: -11 73<183 310.91> -0 21G<363 503.265> 411 72<296.908 413.75> 544 73<327 481 631 701> 675 20G<509.641 647>
VStem: 74 135<79.5185 268.023>
DStem2: 360.662 -11 496.662 -11 0.207912 0.978148<39.5217 63.4183 92.3963 412.13 449.437 567.892 670.483 722.453>
LayerCount: 2
Fore
SplineSet
74 138 m 0
 74 169 79 201 85 231 c 0
 95 279 133 483 324 483 c 0
 404 483 443 442 457 428 c 1
 481 544 l 1
 312 544 l 1
 327 617 l 1
 497 617 l 1
 514 695 l 1
 647 695 l 1
 631 617 l 1
 716 617 l 1
 701 544 l 1
 615 544 l 1
 499 -0 l 1
 363 -0 l 1x7c
 374 51 l 1
 345 28 293 -11 217 -11 c 0
 149 -11 74 18 74 138 c 0
209 138 m 0xbc
 209 77 248 62 287 62 c 0
 326 62 354 77 385 103 c 1
 444 382 l 1
 424 401 403 411 372 411 c 0
 312 411 281 379 272 368 c 0
 228 315 209 159 209 138 c 0xbc
EndSplineSet
AlternateSubs2: "Stilistic set 01 subtable" dcroat.vn
AlternateSubs2: "Latin alternatives subtable" dcroat.vn
Substitution2: "Latin Vietnamese substitutions subtable" dcroat.vn
EndChar

StartChar: section
Encoding: 167 167 169
Width: 533
Flags: HW
TeX: 694 166
HStem: -178 73<143.594 289.741> -19 20G<60.1818 79.5> 633 73<354.406 491.626>
VStem: 129 128<217.441 317.524> 186 129<488.65 585.165> 329 128<-57.2835 39.7227> 386 128<211.027 311.939>
LayerCount: 2
Fore
SplineSet
25 -109 m 1
 68 1 l 1
 91 -48 133 -105 237 -105 c 0
 306 -105 329 -21 329 -1 c 0
 329 42 278 56 256 67 c 0
 174 106 129 167 129 233 c 0xf4
 129 315 183 370 229 398 c 1
 221 409 186 445 186 505 c 0
 186 608 288 706 420 706 c 0
 488 706 535 690 590 650 c 1
 550 545 l 1
 539 563 510 633 405 633 c 0
 341 633 315 554 315 529 c 0
 315 490 359 474 383 463 c 0
 430 441 514 388 514 295 c 0xea
 514 213 460 158 414 130 c 1
 433 105 457 76 457 23 c 0xe4
 457 -80 355 -178 224 -178 c 0
 130 -178 77 -152 25 -109 c 1
257 258 m 0xf2
 257 217 300 204 344 183 c 1
 345 183 l 1
 349 188 386 227 386 270 c 0
 386 312 345 323 299 345 c 1
 283 327 257 296 257 258 c 0xf2
EndSplineSet
EndChar

StartChar: abreve
Encoding: 259 259 170
Width: 525
Flags: HW
TeX: 679 0
ItalicCorrection: 39
HStem: -11 73<131.5 265.303> 0 21<331 469.235> 423 66<247.626 391.711> 517 94<322.842 482.865>
VStem: 55 133<72.4434 168.638> 227 76<631.757 680> 402 136<272.874 413.244> 535 73<646.295 680>
DStem2: 328.662 -11 462.662 -11 0.207912 0.978148<39.1059 81.8566 106.323 244.805 286.781 383.043>
AnchorPoint: "below" 260 0 basechar 0
AnchorPoint: "above" 400 660 basechar 0
LayerCount: 2
Fore
SplineSet
227 650 m 0
 227 659 227 656 230 680 c 1
 303 680 l 1
 303 674 l 2
 303 619 369 611 405 611 c 0x3d
 463 611 520 629 535 680 c 1
 608 680 l 1
 588 587 486 517 385 517 c 0
 297 517 227 570 227 650 c 0
EndSplineSet
Refer: 107 97 S 1 0 0 1 -0 0 3
AlternateSubs2: "Stilistic set 01 subtable" abreve.vn
AlternateSubs2: "Latin alternatives subtable" abreve.vn
Substitution2: "Latin Vietnamese substitutions subtable" abreve.vn
EndChar

StartChar: aogonek
Encoding: 261 261 171
Width: 525
Flags: HW
TeX: 472 166
ItalicCorrection: 39
HStem: -189 82<273.5 409.356> -11 73<131.5 265.303> 423 66<247.626 391.711>
VStem: 55 133<72.4434 168.527> 205 101<-147 -78.5137> 402 136<272.874 413.244>
DStem2: 290.827 -189 424.827 -189 0.207912 0.978148<221.083 263.833 288.3 426.782 468.757 565.019>
AnchorPoint: "above" 364 489 basechar 0
LayerCount: 2
Fore
SplineSet
55 100 m 0
 55 210 176 254 313 266 c 1
 386 270 l 1
 396 320 402 345 402 366 c 0
 402 394 391 423 347 423 c 0
 253 423 198 373 165 346 c 1
 177 446 l 1
 242 474 289 489 364 489 c 0
 459 489 538 465 538 368 c 0
 538 346 535 332 530 307 c 2
 465 -0 l 1
 427 -0 l 2
 388 0 306 -52 306 -84 c 0
 306 -89 309 -93 311 -98 c 1
 321 -103 328 -107 346 -107 c 0
 376 -107 414 -94 421 -92 c 1
 425 -161 l 1
 397 -173 352 -189 303 -189 c 0
 244 -189 205 -165 205 -129 c 0
 205 -68 310 -10 331 -0 c 1
 346 69 l 1
 273 -10 184 -11 168 -11 c 0
 95 -11 55 40 55 100 c 0
188 116 m 0
 188 87 207 62 244 62 c 0
 289 62 340 91 356 136 c 0
 359 145 361 154 377 229 c 1
 313 224 249 213 213 174 c 0
 198 158 188 137 188 116 c 0
EndSplineSet
EndChar

StartChar: dcaron
Encoding: 271 271 174
Width: 732
Flags: HW
TeX: 694 0
ItalicCorrection: 118
HStem: -11 73<183 310.91> 0 21<363 503.259> 411 72<296.908 413.75> 675 20<509.73 647>
VStem: 74 135<79.5185 268.023>
DStem2: 360.662 -11 496.662 -11 0.207912 0.978148<39.5217 63.4183 92.3963 412.13 449.437 722.453>
LayerCount: 2
Fore
SplineSet
679 555 m 1
 734 629 l 1
 694 629 l 1
 722 760 l 1
 854 760 l 1x38
 826 629 l 1
 744 555 l 1
 679 555 l 1
EndSplineSet
Refer: 110 100 S 1 0 0 1 0 0 2
EndChar

StartChar: eogonek
Encoding: 281 281 176
Width: 511
Flags: HW
TeX: 472 166
ItalicCorrection: 76
HStem: -189 81<241.5 379.332> -11 73<234.533 279> 250 54<228 431.996> 416 73<291.771 411.001>
VStem: 72 128<94.476 247.751> 432 113<304.568 396.678>
AnchorPoint: "above" 375 489 basechar 0
LayerCount: 2
Fore
SplineSet
72 161 m 0
 72 231 100 351 173 419 c 0
 230 472 304 489 375 489 c 0
 488 489 545 443 545 342 c 0
 545 312 539 280 533 250 c 1
 212 250 l 1
 206 223 200 195 200 167 c 0
 200 83 253 62 302 62 c 0
 381 62 443 95 493 129 c 1
 482 38 l 1
 444 18 412 10 381 -0 c 1
 369 -5 278 -49 276 -88 c 1
 279 -99 285 -108 311 -108 c 0
 342 -108 382 -94 390 -92 c 1
 394 -162 l 1
 359 -175 321 -189 272 -189 c 0
 211 -189 173 -165 173 -129 c 0
 173 -82 235 -38 279 -11 c 1
 172 -9 72 23 72 161 c 0
228 304 m 1
 431 304 l 1
 432 313 432 321 432 330 c 0
 432 406 385 416 358 416 c 0
 306 416 254 379 228 304 c 1
EndSplineSet
EndChar

StartChar: gbreve
Encoding: 287 287 177
Width: 561
Flags: HW
TeX: 694 166
ItalicCorrection: 71
HStem: -190 73<134.657 311.867> 25 72<195.5 313.16> 411 72<306.571 413.81> 522 94<345.604 498.65> 675 20G<250.5 324 522.582 628>
VStem: 77 139<117.963 285.849> 247 76<638.451 695> 556 72<660.093 695>
DStem2: 321.107 -190 458.238 -190 0.207912 0.978148<118.085 316.926 334.127 449.906 450.53 553.764 617.245 688.834>
LayerCount: 2
Fore
SplineSet
247 661 m 0
 247 675 250 694 251 695 c 1
 324 695 l 1
 323 691 323 687 323 683 c 0
 323 630 383 616 424 616 c 0
 537 617 556 695 556 695 c 1
 628 695 l 1
 599 583 495 522 403 522 c 0
 316 522 247 578 247 661 c 0
EndSplineSet
Refer: 113 103 S 1 0 0 1 -0 0 3
EndChar

StartChar: lacute
Encoding: 314 314 178
Width: 256
Flags: HW
TeX: 862 0
ItalicCorrection: 118
HStem: 0 21<60 198.23> 675 20<207 341>
VStem: 60 281
DStem2: 60 0 194 0 0.207912 0.978148<27.8602 709.397>
LayerCount: 2
Fore
SplineSet
197 765 m 1
 339 863 l 1
 532 863 l 1
 314 770 l 1
 300 765 l 1
 282 764 l 1
 260 764 l 1
 197 765 l 1
EndSplineSet
Refer: 118 108 S 1 0 0 1 -0 0 3
EndChar

StartChar: lcaron
Encoding: 318 318 179
Width: 426
Flags: HW
TeX: 694 0
ItalicCorrection: 118
HStem: 0 21<60 198.23> 675 20<207 341>
VStem: 60 281
DStem2: 60 0 194 0 0.207912 0.978148<27.8602 709.397>
LayerCount: 2
Fore
SplineSet
373 555 m 1
 428 629 l 1
 389 629 l 1
 417 760 l 1
 548 760 l 1
 520 629 l 1
 438 555 l 1
 373 555 l 1
EndSplineSet
Refer: 118 108 S 1 0 0 1 0 0 2
EndChar

StartChar: lslash
Encoding: 322 322 180
Width: 381
Flags: HW
TeX: 694 0
ItalicCorrection: 118
HStem: 0 21G<121 258.293> 675 20G<268 402>
DStem2: 73 270 106 213 0.825471 0.564444<0 79.3791 338.941 443.296> 121 0 254 0 0.207912 0.978148<27.6523 265.754 362.836 404.036 499.162 709.397>
AnchorPoint: "above" 296 695 basechar 0
LayerCount: 2
Fore
SplineSet
73 270 m 1
 196 355 l 1
 268 694 l 1
 269 695 l 1
 402 695 l 1
 353 461 l 1
 443 523 l 1
 476 466 l 1
 333 368 l 1
 254 0 l 1
 121 0 l 1
 176 260 l 1
 106 213 l 1
 73 270 l 1
EndSplineSet
EndChar

StartChar: eng
Encoding: 331 331 183
Width: 561
Flags: HW
TeX: 472 166
ItalicCorrection: 47
HStem: -178 85<209.651 338.988> 0 21G<59 200.231> 411 72<364.819 479.377>
VStem: 438 140<263.781 404.269>
DStem2: 21.1649 -178 158.165 -178 0.207912 0.978148<210.461 585.886 591.673 670.53> 326.165 -178 462.165 -178 0.207912 0.978148<94.5555 210.045 210.253 551.878>
AnchorPoint: "affricate-below" 526 -167 basechar 0
AnchorPoint: "affricate-above" 709 695 basechar 0
AnchorPoint: "below" 243 -167 basechar 0
AnchorPoint: "above" 383 489 basechar 0
LayerCount: 2
Fore
SplineSet
59 0 m 1
 160 478 l 1
 292 478 l 1
 270 374 l 1
 303 424 364 483 456 483 c 0
 527 483 578 465 578 391 c 0
 578 359 566 311 558 272 c 2
 500 0 l 1
 499 0 l 1
 490 -43 461 -178 311 -178 c 0
 241 -178 198 -159 172 -148 c 1
 222 -76 l 1
 239 -85 258 -93 284 -93 c 0
 353 -93 356 -43 365 0 c 1
 364 0 l 1
 433 325 l 2
 436 337 438 351 438 363 c 0
 438 401 412 411 384 411 c 0
 357 411 280 399 251 260 c 2
 196 0 l 1
 59 0 l 1
EndSplineSet
EndChar

StartChar: sacute
Encoding: 347 347 187
Width: 422
Flags: HW
TeX: 679 0
ItalicCorrection: 82
HStem: -11 79<142.175 302.903> 417 72<227 390.853> 542 138
VStem: 105 108<282.5 395.196> 234 264 324 106<88.525 206>
AnchorPoint: "below" 218 0 basechar 0
AnchorPoint: "above" 359 661 basechar 0
LayerCount: 2
Fore
SplineSet
38 36 m 1
 80 146 l 1
 89 135 130 68 232 68 c 0
 313 68 324 115 324 135 c 0
 324 188 239 184 194 200 c 0
 151 215 105 252 105 313 c 0
 105 350 125 413 166 447 c 0
 200 475 243 489 321 489 c 0
 396 489 434 475 477 456 c 1
 439 360 l 1
 403 391 372 417 301 417 c 2
 291 417 l 2xf4
 224 417 213 380 213 356 c 0
 213 304 290 313 346 292 c 0
 389 276 430 237 430 175 c 0
 430 132 407 63 361 27 c 0
 317 -7 260 -11 217 -11 c 0
 128 -11 72 16 38 36 c 1
EndSplineSet
Refer: 12 180 S 1 0 0 1 -89 0 2
EndChar

StartChar: scaron
Encoding: 353 353 188
Width: 422
Flags: HW
TeX: 679 0
ItalicCorrection: 82
HStem: -11 79<142.028 302.903> 417 72<229.843 391.545> 541 139
VStem: 105 108<282.5 394.363> 324 106<89.3027 202>
AnchorPoint: "below" 218 0 basechar 0
AnchorPoint: "above" 359 661 basechar 0
LayerCount: 2
Fore
SplineSet
38 36 m 1
 80 146 l 1
 89 135 130 68 232 68 c 0
 313 68 324 116 324 135 c 0
 324 189 246 182 194 200 c 0
 151 215 105 252 105 313 c 0
 105 350 127 415 168 449 c 0
 213 486 274 489 321 489 c 0
 396 489 434 475 477 456 c 1
 439 360 l 1
 414 382 380 417 291 417 c 0
 261 417 250 413 230 399 c 1
 220 384 213 373 213 356 c 0
 213 299 304 317 364 284 c 0
 397 266 430 229 430 175 c 0
 430 140 411 66 361 27 c 0
 317 -7 260 -11 217 -11 c 0
 159 -11 99 0 38 36 c 1
EndSplineSet
Refer: 18 711 S 1 0 0 1 -67 0 2
EndChar

StartChar: scedilla
Encoding: 351 351 189
Width: 422
Flags: HW
TeX: 472 145
ItalicCorrection: 82
HStem: -168 21G<52 169.414> -43 20G<158.034 247> -11 79<141.951 302.723> 417 72<227 390.853>
VStem: 105 108<282.5 395.196> 324 106<88.525 206>
LayerCount: 2
Fore
SplineSet
38 36 m 1
 80 146 l 1
 89 135 130 68 232 68 c 0
 313 68 324 115 324 135 c 0
 324 188 239 184 194 200 c 0
 151 215 105 252 105 313 c 0
 105 350 125 413 166 447 c 0
 200 475 243 489 321 489 c 0
 396 489 434 475 477 456 c 1
 439 360 l 1
 403 391 372 417 301 417 c 2
 291 417 l 2
 224 417 213 380 213 356 c 0
 213 304 291 313 346 292 c 0
 389 276 430 237 430 175 c 0
 430 132 407 63 361 27 c 0
 317 -7 259 -11 216 -11 c 0
 133 -11 76 14 38 36 c 1
52 -168 m 1
 175 -23 l 1
 247 -23 l 1
 157 -168 l 1
 52 -168 l 1
EndSplineSet
EndChar

StartChar: tcaron
Encoding: 357 357 190
Width: 404
Flags: HW
TeX: 694 0
ItalicCorrection: 123
HStem: -11 78<159 321.595> 400 72<121 172 319 440>
VStem: 107 138<42.2673 196.144>
DStem2: 84.6393 -11 215.639 -11 0.207912 0.978148<153.626 420.182 521.172 632.43>
LayerCount: 2
Fore
SplineSet
105 400 m 1
 121 472 l 1
 190 472 l 1
 219 607 l 1
 347 607 l 1
 319 472 l 1
 455 472 l 1
 440 400 l 1
 303 400 l 1
 247 134 245 132 245 111 c 0
 245 78 260 67 283 67 c 0
 324 67 353 86 377 103 c 1
 381 33 l 1
 327 10 264 -11 186 -11 c 0
 132 -11 107 15 107 71 c 0
 107 103 116 138 172 400 c 1
 105 400 l 1
403 533 m 1
 457 607 l 1
 418 607 l 1
 446 739 l 1
 577 739 l 1
 549 607 l 1
 467 533 l 1
 403 533 l 1
EndSplineSet
EndChar

StartChar: tcommaaccent
Encoding: 355 355 191
Width: 404
Flags: HW
TeX: 607 145
ItalicCorrection: 75
HStem: -168 145 -43 20<222 282.31> -11 78<159 321.232> 400 72<120 172 319 439>
VStem: 99 196 107 138<42.2673 196.144>
DStem2: 51.2679 -168 182.268 -168 0.207912 0.978148<314.133 580.689 681.679 792.938>
LayerCount: 2
Fore
SplineSet
105 400 m 1
 120 472 l 1
 190 472 l 1
 219 607 l 1
 347 607 l 1
 319 472 l 1
 455 472 l 1
 439 400 l 1
 303 400 l 1
 247 134 245 132 245 111 c 0
 245 78 260 67 283 67 c 0x34
 324 67 353 86 377 103 c 1
 380 33 l 1
 326 10 264 -11 186 -11 c 0
 132 -11 107 15 107 71 c 0
 107 103 116 138 172 400 c 1
 105 400 l 1
EndSplineSet
Refer: 22 184 S 1 0 0 1 19 0 2
EndChar

StartChar: uring
Encoding: 367 367 193
Width: 561
Flags: HW
TeX: 679 0
ItalicCorrection: 71
HStem: -11 61<165.5 298.317> 0 21<367 504.28> 452 20<154.768 296 464 601> 506 35<346.986 449.704> 645 36<360.355 465.411>
VStem: 79 136<53.1886 191.281> 282 61<544.463 631.612> 469 61<555.771 641.493>
DStem2: 56.6672 -11 192.88 -11 0.207912 0.978148<122.344 493.721> 364.662 -11 497.662 -11 0.207912 0.978148<38.898 91.846 108.299 463.873>
LayerCount: 2
Fore
SplineSet
282 574 m 0
 282 617 306 681 427 681 c 0
 484 681 530 666 530 613 c 0
 530 576 510 506 385 506 c 0
 328 506 282 521 282 574 c 0
343 575 m 0
 343 543 372 541 394 541 c 0
 428 542 457 544 467 597 c 0
 468 602 469 607 469 612 c 0x3f
 469 643 443 645 418 645 c 0
 385 645 354 644 344 590 c 0
 343 585 343 580 343 575 c 0
EndSplineSet
Refer: 127 117 S 1 0 0 1 -0 0 3
EndChar

StartChar: ij
Encoding: 307 307 198
Width: 592
Flags: HW
TeX: 694 166
ItalicCorrection: 122
HStem: -178 85<246.177 384.58> 0 21<68 206.237> 452 20G<163.763 302 499.733 638> 573 122<215 323 551 659>
VStem: 68 234
DStem2: 68 0 202 0 0.207912 0.978148<27.8602 482.477> 365.43 -178 499.904 -178 0.207912 0.978148<88.6613 664.606 795.625 892.505>
LayerCount: 2
Fore
SplineSet
218 -148 m 1
 253 -76 l 1
 277 -89 294 -93 321 -93 c 0
 383 -93 388 -71 392 -53 c 2
 504 472 l 1
 638 472 l 1
 532 -27 l 2
 521 -79 506 -178 357 -178 c 0
 301 -178 256 -166 218 -148 c 1
526 573 m 1
 551 695 l 1
 685 695 l 1
 659 573 l 1
 526 573 l 1
EndSplineSet
Refer: 115 105 S 1 0 0 1 8 0 2
Ligature2: "Latin Dutch ligatures subtable" i j
EndChar

StartChar: exclamdown
Encoding: 161 161 199
Width: 367
Flags: HW
TeX: 527 166
ItalicCorrection: 24
HStem: -167 21G<81 213> 397 131<229 332>
VStem: 201 159
LayerCount: 2
Fore
SplineSet
81 -167 m 1
 196 311 l 1
 301 311 l 1
 213 -166 l 1
 212 -167 l 1
 81 -167 l 1
EndSplineSet
Refer: 56 46 S 1 0 0 1 115 397 2
EndChar

StartChar: questiondown
Encoding: 191 191 200
Width: 519
Flags: HW
TeX: 527 166
HStem: -178 73<184.691 329.395> 397 131<290 393>
VStem: 49 134<-102.324 13.469> 262 159
LayerCount: 2
Fore
SplineSet
49 -72 m 0
 49 -34 63 27 100 66 c 0
 112 79 127 88 140 99 c 0
 239 178 248 270 257 311 c 1
 362 311 l 1
 345 229 339 186 235 55 c 0
 195 5 200 12 184 -65 c 0
 183 -70 183 -74 183 -78 c 0
 183 -94 190 -105 221 -105 c 0
 320 -105 387 -54 416 -35 c 1
 430 -129 l 1
 367 -156 293 -178 202 -178 c 0
 116 -178 49 -157 49 -72 c 0
EndSplineSet
Refer: 56 46 S 1 0 0 1 176 397 2
EndChar

StartChar: sterling
Encoding: 163 163 201
Width: 813
Flags: HW
TeX: 694 0
HStem: -11 150<130.801 265> -11 92<430.011 576.392> 311 73<264 303 454 524> 669 73<537.133 625.751>
VStem: 630 127<506.158 665.498>
DStem2: 233.329 -11 370.557 -11 0.207912 0.978148<155.638 329.449 432.248 663.476>
LayerCount: 2
Fore
SplineSet
71 42 m 0
 71 100 143 139 239 139 c 0xb8
 248 139 256 138 265 138 c 1
 303 311 l 1
 249 311 l 1
 264 384 l 1
 318 384 l 1
 340 491 347 528 358 563 c 0
 404 705 514 742 611 742 c 0
 712 742 757 664 757 576 c 0
 757 510 741 471 684 465 c 1
 652 469 639 482 639 508 c 0
 639 512 639 517 640 521 c 1
 615 521 l 1
 622 554 630 594 630 621 c 0
 630 657 617 669 595 669 c 0
 498 669 491 556 454 384 c 1
 539 384 l 1
 524 311 l 1
 439 311 l 1
 403 142 406 149 390 113 c 1
 460 95 510 81 554 81 c 0
 571 81 577 85 577 93 c 0x78
 577 106 568 110 564 139 c 1
 701 139 l 1xb8
 682 49 584 -11 487 -11 c 0x78
 418 -11 331 16 307 23 c 1
 255 -7 193 -11 155 -11 c 0
 86 -11 71 21 71 42 c 0
EndSplineSet
EndChar

StartChar: Aacute
Encoding: 193 193 203
Width: 733
Flags: HW
TeX: 862 0
ItalicCorrection: 24
HStem: 0 21<30 177.2 545.2 701> 150 87<299 515> 675 20<408.777 608.734>
DStem2: 30 0 166 0 0.489367 0.872078<66.554 238.472 338.322 715.449> 606 695 481 513 0.135431 -0.990787<107.504 441.456 529.28 680.742>
AnchorPoint: "below" 366 0 basechar 0
AnchorPoint: "above" 550 866 basechar 0
LayerCount: 2
Fore
SplineSet
390 765 m 1
 533 864 526 864 546 864 c 0
 549 864 552 863 555 863 c 2
 675 863 l 2
 683 863 692 864 700 864 c 0
 708 864 717 863 725 863 c 1
 507 770 l 1
 492 765 l 1
 475 764 l 1
 453 764 l 1
 390 765 l 1
EndSplineSet
Refer: 75 65 S 1 0 0 1 0 0 3
AlternateSubs2: "Stilistic set 01 subtable" Aacute.vn
AlternateSubs2: "Latin alternatives subtable" Aacute.vn
Substitution2: "Latin Vietnamese substitutions subtable" Aacute.vn
EndChar

StartChar: Atilde
Encoding: 195 195 205
Width: 733
Flags: HW
TeX: 902 0
HStem: 0 21<30 177.2 545.2 701> 150 87<299 515> 675 20<408.777 608.734> 729 74<571.701 642.391> 830 73<437.129 506.995>
VStem: 338 72<729 795.5> 668 73<835.201 903>
DStem2: 30 0 166 0 0.489367 0.872078<66.554 238.472 338.322 715.449> 606 695 481 513 0.135431 -0.990787<107.504 441.456 529.28 680.742>
AnchorPoint: "below" 366 0 basechar 0
AnchorPoint: "above" 558 905 basechar 0
LayerCount: 2
Fore
SplineSet
338 729 m 1
 349 788 396 903 483 903 c 0
 556 903 552 803 610 803 c 0
 647 803 658 860 668 903 c 1
 741 903 l 1
 716 787 652 729 597 729 c 0
 522 729 526 830 468 830 c 0
 422 830 413 732 410 729 c 1
 338 729 l 1
EndSplineSet
Refer: 75 65 S 1 0 0 1 0 0 3
AlternateSubs2: "Stilistic set 01 subtable" Atilde.vn
AlternateSubs2: "Latin alternatives subtable" Atilde.vn
Substitution2: "Latin Vietnamese substitutions subtable" Atilde.vn
EndChar

StartChar: Aring
Encoding: 197 197 207
Width: 733
Flags: HW
TeX: 862 0
HStem: 0 21G<30 177.2 545.2 701> 150 87<299 515> 830 73<459.701 564.529>
VStem: 374 63<698.557 806.458> 568 63<717.592 825.927>
DStem2: 30 0 166 0 0.490197 0.871611<66.6669 238.585 338.435 338.435> 606 695 481 513 0.135431 -0.990787<107.504 441.456 529.28 680.742>
LayerCount: 2
Fore
SplineSet
30 0 m 1
 395 649 l 1
 387 659 374 674 374 712 c 0
 374 769 399 903 533 903 c 0
 585 903 631 881 631 813 c 0
 631 751 602 695 602 695 c 1
 606 695 l 1
 701 0 l 1
 548 0 l 1
 527 150 l 1
 250 150 l 1
 166 0 l 1
 30 0 l 1
299 237 m 1
 515 237 l 1
 487 459 l 1
 481 513 l 1
 478 569 l 1
 455 518 375 374 299 237 c 1
437 732 m 0
 437 699 462 695 486 695 c 0
 533 696 552 704 565 770 c 0
 566 777 568 785 568 793 c 0
 568 827 542 830 519 830 c 0
 473 829 453 821 440 755 c 0
 439 748 437 740 437 732 c 0
EndSplineSet
EndChar

StartChar: AE
Encoding: 198 198 208
Width: 947
Flags: HW
TeX: 694 0
ItalicCorrection: 117
HStem: 0 107<630 900> 191 87<326 501> 314 95<694 921> 594 101<507 587 733 1010>
DStem2: 30 0 166 0 0.497885 0.867243<67.7123 288.123 388.468 752.633> 460.402 0 607.256 0 0.207912 0.978148<139.923 195.267 284.108 350.362 448.63 607.341>
AnchorPoint: "below" 465 0 basechar 0
AnchorPoint: "above" 686 717 basechar 0
LayerCount: 2
Fore
SplineSet
30 0 m 1
 429 695 l 1
 1033 695 l 1
 1010 590 l 1
 733 593 l 1
 694 409 l 1
 941 409 l 1
 921 314 l 1
 674 314 l 1
 673 313 l 1
 630 107 l 1
 858 110 l 1
 924 111 l 1
 900 0 l 1
 460 0 l 1
 501 191 l 1
 276 191 l 1
 166 0 l 1
 30 0 l 1
326 278 m 1
 519 278 l 1
 587 594 l 1
 507 594 l 1
 326 278 l 1
EndSplineSet
EndChar

StartChar: Ccedilla
Encoding: 199 199 209
Width: 703
Flags: HW
TeX: 694 145
ItalicCorrection: 117
HStem: -168 21G<262 379.552> -23 101<345.643 571.189> 617 100<450.099 666.102>
VStem: 120 149<152.758 379.627>
AnchorPoint: "above" 580 717 basechar 0
LayerCount: 2
Fore
SplineSet
120 228 m 0
 120 308 149 585 377 680 c 0
 414 696 479 717 580 717 c 0
 660 717 714 706 779 682 c 1
 728 551 l 1
 702 573 662 617 561 617 c 0
 387 617 294 494 270 273 c 0
 269 264 269 256 269 247 c 0
 269 112 355 78 450 78 c 0
 557 78 594 103 667 144 c 1
 654 33 l 1
 564 -9 524 -23 423 -23 c 2
 458 -23 l 1
 367 -168 l 1
 262 -168 l 1
 385 -23 l 1
 423 -23 l 2
 227 -23 120 55 120 228 c 0
EndSplineSet
EndChar

StartChar: Eacute
Encoding: 201 201 211
Width: 642
Flags: HW
TeX: 862 0
ItalicCorrection: 117
HStem: 0 107<262 595> 312 95<326 615> 587 105<364 705>
DStem2: 91 0 239.256 0 0.207912 0.978148<140.215 349.675 446.965 633.867>
AnchorPoint: "below" 343 0 basechar 0
AnchorPoint: "above" 527 869 basechar 0
LayerCount: 2
Fore
SplineSet
375 765 m 1
 518 864 512 864 532 864 c 0
 535 864 538 863 541 863 c 2
 661 863 l 2
 669 863 678 864 686 864 c 0
 694 864 703 863 711 863 c 1
 492 770 l 1
 478 765 l 1
 461 764 l 1
 438 764 l 1
 375 765 l 1
EndSplineSet
Refer: 79 69 S 1 0 0 1 0 0 3
AlternateSubs2: "Stilistic set 01 subtable" Eacute.vn
AlternateSubs2: "Latin alternatives subtable" Eacute.vn
Substitution2: "Latin Vietnamese substitutions subtable" Eacute.vn
EndChar

StartChar: Ecircumflex
Encoding: 202 202 212
Width: 642
Flags: HW
TeX: 902 0
ItalicCorrection: 117
HStem: 0 107<262 595> 312 95<326 615> 587 105<364 705>
DStem2: 91 0 239.256 0 0.207912 0.978148<140.215 349.675 446.965 633.867>
AnchorPoint: "below" 343 0 basechar 0
AnchorPoint: "above" 538 919 basechar 0
LayerCount: 2
Fore
SplineSet
287 729 m 1
 444 914 l 1
 554 914 l 1
 633 729 l 1
 561 729 l 1
 484 840 l 1
 359 729 l 1
 287 729 l 1
EndSplineSet
Refer: 79 69 S 1 0 0 1 0 -0 3
AlternateSubs2: "Stilistic set 01 subtable" Ecircumflex.vn
AlternateSubs2: "Latin alternatives subtable" Ecircumflex.vn
Substitution2: "Latin Vietnamese substitutions subtable" Ecircumflex.vn
EndChar

StartChar: Iacute
Encoding: 205 205 215
Width: 331
Flags: HW
TeX: 862 0
ItalicCorrection: 132
HStem: -0 21<91 243.259> 675 20<238 387>
VStem: 91 296
DStem2: 91 -0 239 -0 0.207912 0.978148<30.7709 709.397>
AnchorPoint: "below" 164 0 basechar 0
AnchorPoint: "above" 349 866 basechar 0
LayerCount: 2
Fore
SplineSet
235 765 m 1
 378 864 372 864 392 864 c 0
 395 864 398 863 401 863 c 2
 521 863 l 2
 529 863 538 864 546 864 c 0
 554 864 563 863 571 863 c 1
 352 770 l 1
 338 765 l 1
 321 764 l 1
 298 764 l 1
 235 765 l 1
EndSplineSet
Refer: 83 73 S 1 0 0 1 0 -0 3
AlternateSubs2: "Stilistic set 01 subtable" Iacute.vn
AlternateSubs2: "Latin alternatives subtable" Iacute.vn
Substitution2: "Latin Vietnamese substitutions subtable" Iacute.vn
EndChar

StartChar: Icircumflex
Encoding: 206 206 216
Width: 331
Flags: HW
TeX: 902 0
ItalicCorrection: 132
HStem: 0 21<91 243.259> 675 20<238 387>
VStem: 91 296
DStem2: 91 0 239 0 0.207912 0.978148<30.7709 709.397>
AnchorPoint: "below" 164 0 basechar 0
AnchorPoint: "above" 359 916 basechar 0
LayerCount: 2
Fore
SplineSet
146 729 m 1
 304 914 l 1
 414 914 l 1
 494 729 l 1
 421 729 l 1
 344 840 l 1
 219 729 l 1
 146 729 l 1
EndSplineSet
Refer: 83 73 S 1 0 0 1 0 0 3
EndChar

StartChar: Eth
Encoding: 208 208 218
Width: 794
Flags: HW
TeX: 694 0
ItalicCorrection: 72
HStem: -0 87<255 504.614> 305 73<80 156 317 462> 608 87<365 603.891>
VStem: 676 143<319.123 539.45>
DStem2: 91 -0 236.508 -0 0.207912 0.978148<119.196 311.849 416.728 651.682>
LayerCount: 2
Fore
SplineSet
64 305 m 1
 80 378 l 1
 172 378 l 1
 239 695 l 1
 532 695 l 2
 691 695 819 648 819 459 c 0
 819 375 791 221 704 122 c 0
 623 30 516 0 380 -0 c 2
 91 -0 l 1
 156 305 l 1
 64 305 l 1
255 87 m 1
 364 87 l 2
 536 87 616 143 659 337 c 0
 665 364 676 412 676 455 c 0
 676 603 554 608 473 608 c 2
 365 608 l 1
 317 378 l 1
 477 378 l 1
 462 305 l 1
 301 305 l 1
 255 87 l 1
EndSplineSet
EndChar

StartChar: Ntilde
Encoding: 209 209 219
Width: 794
Flags: HW
TeX: 902 0
ItalicCorrection: 86
HStem: -0 21<91 218.251 503.937 706.259> 675 20<238 437.017 726 850> 729 74<602.07 673.341> 830 73<466.513 537.465>
VStem: 368 73<729 795.998> 699 72<838.005 903>
DStem2: 91 -0 214 -0 0.207912 0.978148<25.5731 612.395> 431 695 336 574 0.288112 -0.957597<88.4986 600.461>
LayerCount: 2
Fore
SplineSet
368 729 m 1
 393 843 455 903 513 903 c 0
 586 903 584 803 641 803 c 0
 679 803 690 863 699 903 c 1
 771 903 l 1
 748 794 684 729 627 729 c 0
 550 729 558 830 499 830 c 0
 461 830 450 771 441 729 c 1
 368 729 l 1
EndSplineSet
Refer: 88 78 S 1 0 0 1 0 -0 3
EndChar

StartChar: Oacute
Encoding: 211 211 221
Width: 794
Flags: HW
TeX: 862 0
ItalicCorrection: 72
HStem: -23 82<328.119 500.244> 639 78<437.512 619.397>
VStem: 119 147<121.186 373.145> 679 142<338.365 577.262>
AnchorPoint: "below" 396 0 basechar 0
AnchorPoint: "above" 577 844 basechar 0
LayerCount: 2
Fore
SplineSet
421 765 m 1
 564 864 558 864 578 864 c 0
 581 864 584 863 587 863 c 2
 707 863 l 2
 715 863 724 864 732 864 c 0
 740 864 749 863 757 863 c 1
 538 770 l 1
 524 765 l 1
 507 764 l 1
 484 764 l 1
 421 765 l 1
EndSplineSet
Refer: 89 79 S 1 0 0 1 -0 0 3
AlternateSubs2: "Stilistic set 01 subtable" Oacute.vn
AlternateSubs2: "Latin alternatives subtable" Oacute.vn
Substitution2: "Latin Vietnamese substitutions subtable" Oacute.vn
EndChar

StartChar: Ocircumflex
Encoding: 212 212 222
Width: 794
Flags: HW
TeX: 902 0
ItalicCorrection: 72
HStem: -23 82<328.119 500.244> 639 78<437.512 619.397>
VStem: 119 147<121.186 373.145> 679 142<338.365 577.262>
AnchorPoint: "below" 396 0 basechar 0
AnchorPoint: "above" 588 894 basechar 0
LayerCount: 2
Fore
SplineSet
379 729 m 1
 537 914 l 1
 646 914 l 1
 726 729 l 1
 654 729 l 1
 576 840 l 1
 451 729 l 1
 379 729 l 1
EndSplineSet
Refer: 89 79 S 1 0 0 1 -0 0 3
AlternateSubs2: "Stilistic set 01 subtable" Ocircumflex.vn
AlternateSubs2: "Latin alternatives subtable" Ocircumflex.vn
Substitution2: "Latin Vietnamese substitutions subtable" Ocircumflex.vn
EndChar

StartChar: Otilde
Encoding: 213 213 223
Width: 794
Flags: HW
TeX: 902 0
ItalicCorrection: 72
HStem: -23 82<328.119 500.244> 639 78<437.512 619.397> 729 74<602.943 673.391> 830 73<468.523 538.409>
VStem: 119 147<121.186 373.145> 369 72<729 795.5> 679 142<338.365 577.262> 699 73<835.201 903>
AnchorPoint: "below" 396 0 basechar 0
AnchorPoint: "above" 585 883 basechar 0
LayerCount: 2
Fore
SplineSet
369 729 m 1
 380 788 427 903 514 903 c 0
 587 903 584 803 641 803 c 0
 678 803 689 859 699 903 c 1
 772 903 l 1
 747 787 683 729 628 729 c 0xfd
 553 729 558 830 500 830 c 0
 454 830 444 732 441 729 c 1
 369 729 l 1
EndSplineSet
Refer: 89 79 S 1 0 0 1 0 -0 3
AlternateSubs2: "Stilistic set 01 subtable" Otilde.vn
AlternateSubs2: "Latin alternatives subtable" Otilde.vn
Substitution2: "Latin Vietnamese substitutions subtable" Otilde.vn
EndChar

StartChar: OE
Encoding: 338 338 225
Width: 1069
Flags: HW
TeX: 694 0
ItalicCorrection: 117
HStem: -22 72<315.473 501.873> -0 107<687 1023> 314 95<751 1044> 590 105<790 1133> 644 73<424.201 618.514>
VStem: 89 146<130.362 375.594>
AnchorPoint: "above" 743 717 basechar 0
LayerCount: 2
Fore
SplineSet
89 227 m 0
 89 324 126 507 243 613 c 0
 272 640 363 717 543 717 c 0xac
 621 717 668 695 751 695 c 2
 1155 695 l 1
 1133 590 l 1
 790 593 l 1
 751 409 l 1
 1064 409 l 1
 1044 314 l 1
 731 314 l 1
 730 313 l 1
 687 107 l 1
 763 108 l 1
 925 109 l 1
 1014 110 l 1
 1046 111 l 1
 1023 -0 l 1
 607 -0 l 2x74
 515 0 467 -22 387 -22 c 0
 237 -22 89 28 89 227 c 0
235 235 m 0
 235 87 324 50 411 50 c 0
 538 50 542 110 581 294 c 0
 630 521 633 538 633 573 c 0xac
 633 642 588 644 542 644 c 0
 461 644 393 623 339 560 c 0
 254 462 235 287 235 235 c 0
EndSplineSet
EndChar

StartChar: Oslash
Encoding: 216 216 226
Width: 856
Flags: HW
TeX: 736 41
ItalicCorrection: 72
HStem: -22 72<327.181 560.788> 644 73<447.376 674.664>
VStem: 120 127<125.037 366.922> 754 127<321.727 570.645>
DStem2: 160 -22 220 -61 0.625062 0.780575<7.06129 70.4344 179.287 823.069 931.142 996.701>
LayerCount: 2
Fore
SplineSet
120 226 m 0
 120 332 161 508 270 610 c 0
 305 643 395 717 582 717 c 0
 628 717 676 713 734 694 c 1
 783 756 l 1
 784 756 l 1
 842 717 l 1
 798 660 l 1
 857 616 881 547 881 464 c 0
 881 356 842 183 734 83 c 0
 645 2 532 -22 422 -22 c 0
 370 -22 317 -17 268 -0 c 1
 220 -61 l 1
 160 -22 l 1
 204 33 l 1
 153 70 120 130 120 226 c 0
247 219 m 0
 247 171 257 144 272 118 c 1
 676 622 l 1
 641 638 602 644 564 644 c 0
 323 644 283 436 262 336 c 0
 254 298 247 258 247 219 c 0
326 71 m 1
 356 58 388 50 439 50 c 0
 659 50 710 208 740 356 c 0
 745 379 754 426 754 473 c 0
 754 522 744 549 730 576 c 1
 326 71 l 1
EndSplineSet
EndChar

StartChar: Uacute
Encoding: 218 218 228
Width: 764
Flags: HW
TeX: 862 0
ItalicCorrection: 86
HStem: -22 86<309.467 500.111> 675 20<238 387 682 819>
VStem: 132 145<94.2365 276.203>
DStem2: 85.9093 -22 234.412 -22 0.207912 0.978148<214.713 731.975> 529.798 -22 666.76 -22 0.207912 0.978148<164.22 732.976>
AnchorPoint: "below" 386 0 basechar 0
AnchorPoint: "above" 565 866 basechar 0
LayerCount: 2
Fore
SplineSet
451 765 m 1
 594 864 588 864 608 864 c 0
 611 864 614 863 617 863 c 2
 737 863 l 2
 745 863 754 864 762 864 c 0
 770 864 779 863 787 863 c 1
 568 770 l 1
 554 765 l 1
 537 764 l 1
 514 764 l 1
 451 765 l 1
EndSplineSet
Refer: 95 85 S 1 0 0 1 -0 0 3
AlternateSubs2: "Stilistic set 01 subtable" Uacute.vn
AlternateSubs2: "Latin alternatives subtable" Uacute.vn
Substitution2: "Latin Vietnamese substitutions subtable" Uacute.vn
EndChar

StartChar: Ucircumflex
Encoding: 219 219 229
Width: 764
Flags: HW
TeX: 902 0
ItalicCorrection: 86
HStem: -22 86<309.467 500.111> 675 20<238 387 682 819>
VStem: 132 145<94.2365 276.203>
DStem2: 85.9093 -22 234.412 -22 0.207912 0.978148<214.713 731.975> 529.798 -22 666.76 -22 0.207912 0.978148<164.22 732.976>
AnchorPoint: "below" 386 0 basechar 0
AnchorPoint: "above" 575 916 basechar 0
LayerCount: 2
Fore
SplineSet
365 729 m 1
 523 914 l 1
 627 914 l 1
 713 729 l 1
 640 729 l 1
 563 840 l 1
 438 729 l 1
 365 729 l 1
EndSplineSet
Refer: 95 85 S 1 0 0 1 -0 0 3
EndChar

StartChar: Yacute
Encoding: 221 221 231
Width: 733
Flags: HW
TeX: 862 0
ItalicCorrection: 175
HStem: 0 21<293 442.245> 675 20<150 373 664 876>
DStem2: 293 0 438 0 0.207912 0.978148<30.1472 279.725> 460 403 497 278 0.672584 0.74002<0 388.268>
AnchorPoint: "below" 365 0 basechar 0
AnchorPoint: "above" 549 866 basechar 0
LayerCount: 2
Fore
SplineSet
435 765 m 1
 578 864 572 864 592 864 c 0
 595 864 598 863 601 863 c 2
 721 863 l 2
 729 863 738 864 746 864 c 0
 754 864 763 863 771 863 c 1
 552 770 l 1
 538 765 l 1
 521 764 l 1
 499 764 l 1
 435 765 l 1
EndSplineSet
Refer: 99 89 S 1 0 0 1 0 0 3
AlternateSubs2: "Stilistic set 01 subtable" Yacute.vn
AlternateSubs2: "Latin alternatives subtable" Yacute.vn
Substitution2: "Latin Vietnamese substitutions subtable" Yacute.vn
EndChar

StartChar: Thorn
Encoding: 222 222 232
Width: 642
Flags: HW
TeX: 694 0
ItalicCorrection: 80
HStem: -0 21G<91 237.333> 180 87<291 459.793> 505 87<359 499.58> 675 20G<238 381>
VStem: 526 143<337.454 479.237>
DStem2: 91 -0 233 -0 0.207912 0.978148<29.5235 213.699 302.748 545.942 634.784 709.397>
LayerCount: 2
Fore
SplineSet
91 -0 m 1
 238 694 l 1
 239 695 l 1
 381 695 l 1
 359 592 l 1
 469 592 l 2
 522 592 669 597 669 447 c 0
 669 410 662 382 654 355 c 0
 603 186 455 180 388 180 c 2
 272 180 l 1
 233 -0 l 1
 91 -0 l 1
291 267 m 1
 370 267 l 2
 398 267 432 269 462 288 c 0
 515 322 526 393 526 421 c 0
 526 504 449 505 410 505 c 2
 341 505 l 1
 291 267 l 1
EndSplineSet
EndChar

StartChar: Germandbls
Encoding: 61699 61699 233
Width: 1222
Flags: HW
TeX: 694 0
ItalicCorrection: 86
HStem: -22 109<209.918 410.86 821.663 1022.11> 613 104<345.44 541.241 956.816 1152.46>
VStem: 164 133<426.195 562.551> 465 132<144.268 254.372> 776 133<426.195 562.551> 1076 133<144.665 254.372>
LayerCount: 2
Fore
SplineSet
59 47 m 1
 110 179 l 1
 134 156 195 87 324 87 c 0
 452 87 465 181 465 204 c 0
 465 248 429 269 411 276 c 0
 389 285 311 299 278 312 c 0
 222 334 164 386 164 468 c 0
 164 517 189 596 241 646 c 0
 303 705 384 717 462 717 c 0
 540 717 593 703 658 668 c 1
 606 537 l 1
 575 570 541 613 436 613 c 0
 311 613 297 535 297 511 c 0
 297 433 417 439 487 410 c 0
 543 386 597 330 597 246 c 0
 597 200 572 -22 302 -22 c 0
 189 -22 109 14 59 47 c 1
670 47 m 1
 721 179 l 1
 740 161 803 87 935 87 c 0
 1064 87 1076 183 1076 204 c 0
 1076 248 1040 269 1022 276 c 0
 1000 285 922 299 889 312 c 0
 833 334 776 386 776 468 c 0
 776 517 801 596 853 646 c 0
 915 705 995 717 1073 717 c 0
 1151 717 1204 703 1269 668 c 1
 1218 537 l 1
 1187 570 1152 613 1047 613 c 0
 922 613 909 535 909 511 c 0
 909 433 1028 439 1098 410 c 0
 1154 386 1209 330 1209 246 c 0
 1209 200 1183 -22 913 -22 c 0
 800 -22 720 14 670 47 c 1
EndSplineSet
EndChar

StartChar: acircumflex
Encoding: 226 226 236
Width: 525
Flags: HW
TeX: 679 0
ItalicCorrection: 39
HStem: -11 73<131.5 265.303> -0 21<331 469.235> 423 66<247.626 391.711> 672 20G<334.132 497.212>
VStem: 55 133<72.4434 168.638> 402 136<272.874 413.244>
DStem2: 328.662 -11 462.662 -11 0.207912 0.978148<39.1059 81.8566 106.323 244.805 286.781 383.043>
AnchorPoint: "below" 260 0 basechar 0
AnchorPoint: "above" 403 672 basechar 0
LayerCount: 2
Fore
SplineSet
204 541 m 1
 354 692 l 1
 489 692 l 1
 551 541 l 1
 478 541 l 1x3c
 396 631 l 1
 276 541 l 1
 204 541 l 1
EndSplineSet
Refer: 107 97 S 1 0 0 1 -0 -0 3
AlternateSubs2: "Stilistic set 01 subtable" acircumflex.vn
AlternateSubs2: "Latin alternatives subtable" acircumflex.vn
Substitution2: "Latin Vietnamese substitutions subtable" acircumflex.vn
EndChar

StartChar: atilde
Encoding: 227 227 237
Width: 525
Flags: HW
TeX: 679 0
ItalicCorrection: 39
HStem: -11 73<131.5 265.303> -0 21<331 469.235> 423 66<247.626 391.711> 556 73<431.31 515.391>
VStem: 55 133<72.4434 168.638> 210 72<556 594.726> 402 136<272.874 413.244> 529 73<641.163 680>
DStem2: 328.662 -11 462.662 -11 0.207912 0.978148<39.1059 81.8566 106.323 244.805 286.781 383.043>
AnchorPoint: "below" 260 0 basechar 0
AnchorPoint: "above" 400 660 basechar 0
LayerCount: 2
Fore
SplineSet
210 556 m 1
 231 638 292 680 347 680 c 0x3d
 418 680 436 632 478 629 c 0
 482 629 515 627 529 680 c 1
 602 680 l 1
 590 621 537 556 465 556 c 0
 393 556 377 604 333 607 c 1
 326 606 297 608 282 556 c 1
 210 556 l 1
EndSplineSet
Refer: 107 97 S 1 0 0 1 -0 -0 3
AlternateSubs2: "Stilistic set 01 subtable" atilde.vn
AlternateSubs2: "Latin alternatives subtable" atilde.vn
Substitution2: "Latin Vietnamese substitutions subtable" atilde.vn
EndChar

StartChar: aring
Encoding: 229 229 239
Width: 525
Flags: HW
TeX: 679 0
ItalicCorrection: 39
HStem: -11 73<131.5 265.303> 0 21<331 469.235> 423 66<247.626 391.711> 506 35<328.986 432.895> 645 36<342.996 447.981>
VStem: 55 133<72.4434 168.638> 264 61<544.463 631.431> 402 136<272.874 413.244> 452 61<555.516 641.493>
DStem2: 328.662 -11 462.662 -11 0.207912 0.978148<39.1059 81.8566 106.323 244.805 286.781 383.043>
LayerCount: 2
Fore
SplineSet
264 574 m 0
 264 607 280 681 409 681 c 0
 466 681 513 666 513 613 c 0
 513 580 496 506 367 506 c 0
 310 506 264 521 264 574 c 0
325 575 m 0
 325 543 354 541 376 541 c 0
 410 542 440 544 450 597 c 0
 451 602 452 607 452 612 c 0
 452 643 426 645 401 645 c 0x3e80
 381 645 325 648 325 575 c 0
EndSplineSet
Refer: 107 97 S 1 0 0 1 -0 0 3
EndChar

StartChar: ae
Encoding: 230 230 240
Width: 794
Flags: HW
TeX: 472 0
ItalicCorrection: 76
HStem: -11 73<125 332.694 533.921 698.781> 250 54<533 713.686> 416 73<592.46 697.54> 423 66<247.74 392.934>
VStem: 55 133<72.5325 168.711> 371 135<94.3242 220.37> 714 114<304.304 401.852>
AnchorPoint: "below" 397 0 basechar 0
AnchorPoint: "above" 505 489 basechar 0
LayerCount: 2
Fore
SplineSet
55 102 m 0
 55 170 104 255 316 273 c 1
 387 277 l 1
 398 332 402 347 402 366 c 0
 402 406 381 423 346 423 c 0
 254 423 199 374 164 346 c 1
 176 446 l 1
 247 477 291 489 364 489 c 0xde
 457 489 488 467 508 449 c 1
 522 457 573 489 670 489 c 0
 787 489 828 432 828 346 c 0
 828 315 823 281 816 250 c 1
 518 250 l 1
 512 222 506 193 506 164 c 0
 506 82 552 62 598 62 c 0
 681 62 745 106 776 129 c 1
 765 38 l 1
 707 5 641 -11 575 -11 c 0
 471 -11 429 23 409 44 c 1
 408 44 l 1
 333 -7 213 -11 171 -11 c 0
 79 -11 55 58 55 102 c 0
188 118 m 0
 188 96 199 62 245 62 c 0
 317 62 371 100 371 126 c 0
 371 131 370 138 370 153 c 0
 370 167 371 187 375 222 c 1
 221 214 188 160 188 118 c 0
533 304 m 1
 712 304 l 1
 713 315 714 326 714 337 c 0xee
 714 406 677 416 653 416 c 0
 605 416 559 379 533 304 c 1
EndSplineSet
EndChar

StartChar: ccedilla
Encoding: 231 231 241
Width: 489
Flags: HW
TeX: 472 145
ItalicCorrection: 88
HStem: -168 145 -43 20<233 293.31> -11 78<231.713 398.848> 411 78<295.522 464.666>
VStem: 77 134<88.2533 275.155> 110 196
AnchorPoint: "above" 384 489 basechar 0
LayerCount: 2
Fore
SplineSet
77 154 m 0
 77 214 100 354 191 429 c 0
 241 471 305 489 384 489 c 0
 465 489 496 475 546 446 c 1
 510 351 l 1
 473 386 453 411 368 411 c 0
 254 411 237 297 222 228 c 0
 217 204 211 178 211 153 c 0
 211 107 228 67 294 67 c 0
 385 67 446 112 477 133 c 1
 465 35 l 1
 412 9 350 -11 274 -11 c 0x38
 173 -11 77 21 77 154 c 0
EndSplineSet
Refer: 22 184 S 1 0 0 1 30 0 2
EndChar

StartChar: ecircumflex
Encoding: 234 234 244
Width: 511
Flags: HW
TeX: 679 0
ItalicCorrection: 76
HStem: -11 73<232.269 410.234> 250 54<228 431.996> 416 73<294.129 410.542> 672 20G<327 468.523>
VStem: 72 128<96.5177 249.069> 432 113<304.746 396.618>
AnchorPoint: "below" 283 0 basechar 0
AnchorPoint: "above" 413 672 basechar 0
LayerCount: 2
Fore
SplineSet
196 541 m 1
 347 692 l 1
 457 692 l 1
 544 541 l 1
 472 541 l 1
 390 631 l 1
 270 541 l 1
 196 541 l 1
EndSplineSet
Refer: 111 101 S 1 0 0 1 0 0 3
AlternateSubs2: "Stilistic set 01 subtable" ecircumflex.vn
AlternateSubs2: "Latin alternatives subtable" ecircumflex.vn
Substitution2: "Latin Vietnamese substitutions subtable" ecircumflex.vn
EndChar

StartChar: icircumflex
Encoding: 238 238 248
Width: 256
Flags: HW
TeX: 679 0
ItalicCorrection: 115
HStem: 0 21<60 198.237> 452 20<155.763 294> 672 20G<199.132 339.656>
VStem: 60 234
DStem2: 60 0 194 0 0.207912 0.978148<27.8602 482.477>
AnchorPoint: "below" 127 0 basechar 0
AnchorPoint: "above" 274 689 basechar 0
LayerCount: 2
Fore
SplineSet
69 541 m 1
 219 692 l 1
 328 692 l 1
 416 541 l 1
 343 541 l 1
 261 631 l 1
 260 631 l 1
 141 541 l 1
 69 541 l 1
EndSplineSet
Refer: 35 305 S 1 0 0 1 0 0 3
Ligature2: "Latin ligatures excepting Turkic subtable" i uni0302
EndChar

StartChar: eth
Encoding: 240 240 250
Width: 550
Flags: HW
TeX: 694 0
ItalicCorrection: 100
HStem: -11 78<224.153 359.699> 416 73<289.071 414.616> 675 20G<296.94 347.5 414.5 434.17>
VStem: 70 134<88.1728 277.732> 446 141<220.871 393.943>
LayerCount: 2
Fore
SplineSet
70 154 m 0
 70 219 95 345 174 418 c 0
 195 438 256 489 378 489 c 2
 381 489 l 2
 386 489 387 489 415 488 c 1
 397 520 384 535 365 555 c 1
 336 541 l 1
 318 593 l 1
 278 615 266 617 231 628 c 1
 325 695 l 1
 370 686 377 677 386 677 c 0
 393 677 402 682 427 695 c 1
 446 642 l 1
 517 594 587 494 587 363 c 0
 587 293 557 190 557 190 c 1
 521 75 440 -11 272 -11 c 0
 167 -11 70 22 70 154 c 0
204 147 m 0
 204 83 246 67 288 67 c 0
 393 67 416 160 432 235 c 0
 442 284 446 314 446 334 c 0
 446 400 403 416 361 416 c 0
 268 416 231 350 207 180 c 0
 206 170 204 160 204 147 c 0
EndSplineSet
EndChar

StartChar: ntilde
Encoding: 241 241 251
Width: 561
Flags: HW
TeX: 679 0
ItalicCorrection: 47
HStem: -0 21<59 200.231 364 504.265> 411 72<364.81 479.377> 556 73<435.971 521.59> 607 73<300.198 386.433>
VStem: 215 72<556 594.726> 438 140<263.781 404.269> 535 72<641.564 680>
DStem2: 59 -0 196 -0 0.207912 0.978148<28.4839 403.475 409.697 488.554> 364 -0 500 -0 0.207912 0.978148<28.276 369.901>
LayerCount: 2
Fore
SplineSet
215 556 m 1xea
 236 638 297 680 352 680 c 0xda
 422 680 441 632 483 629 c 0xea
 485 629 522 626 535 680 c 1
 607 680 l 1xda
 595 622 543 556 470 556 c 0xea
 397 556 382 605 338 607 c 1xda
 331 606 302 608 287 556 c 1
 215 556 l 1xea
EndSplineSet
Refer: 120 110 S 1 0 0 1 -0 -0 3
EndChar

StartChar: otilde
Encoding: 245 245 255
Width: 550
Flags: HW
TeX: 679 0
ItalicCorrection: 70
HStem: -11 78<226.393 361.302> 416 73<288.827 426.144> 556 73<430.859 515.878> 607 73<295.012 381.572>
VStem: 70 134<88.8196 277.568> 209 73<556 594.726> 447 130<205.514 396.532> 529 73<641.163 680>
AnchorPoint: "below" 272 0 basechar 0
AnchorPoint: "above" 415 660 basechar 0
LayerCount: 2
Fore
SplineSet
209 556 m 1xed
 230 638 292 680 347 680 c 0xdd
 417 680 436 632 478 629 c 0xed
 480 629 516 626 529 680 c 1
 602 680 l 1xdd
 589 621 537 556 465 556 c 0xed
 392 556 374 607 332 607 c 0xdd
 322 607 296 604 282 556 c 1
 209 556 l 1xed
EndSplineSet
Refer: 121 111 S 1 0 0 1 -0 -0 3
AlternateSubs2: "Stilistic set 01 subtable" otilde.vn
AlternateSubs2: "Latin alternatives subtable" otilde.vn
Substitution2: "Latin Vietnamese substitutions subtable" otilde.vn
EndChar

StartChar: oe
Encoding: 339 339 257
Width: 856
Flags: HW
TeX: 472 0
ItalicCorrection: 76
HStem: -11 73<222.059 363.95 595.591 759.972> 250 54<594 774.686> 417 72<286.74 431.562 657.408 758.829>
VStem: 72 128<86.445 279.952> 455 112<164 335> 775 115<304.545 401.628>
AnchorPoint: "below" 427 0 basechar 0
AnchorPoint: "above" 547 489 basechar 0
LayerCount: 2
Fore
SplineSet
72 158 m 0
 72 236 103 377 206 444 c 0
 257 477 319 489 380 489 c 0
 489 489 528 455 548 434 c 1
 566 447 621 489 731 489 c 0
 849 489 890 432 890 345 c 0
 890 313 884 281 877 250 c 1
 579 250 l 1
 573 222 567 193 567 164 c 0
 567 82 614 62 660 62 c 0
 743 62 807 106 838 129 c 1
 827 38 l 1
 784 14 715 -11 639 -11 c 0
 529 -11 488 26 469 46 c 1
 445 30 391 -11 274 -11 c 0
 172 -11 72 23 72 158 c 0
200 148 m 0
 200 103 218 62 290 62 c 0
 408 62 430 174 451 291 c 0
 452 300 455 318 455 335 c 0
 455 384 430 417 364 417 c 0
 257 417 226 339 202 183 c 0
 201 172 200 162 200 148 c 0
594 304 m 1
 773 304 l 1
 774 315 775 326 775 337 c 0
 775 406 739 416 715 416 c 0
 667 416 620 379 594 304 c 1
EndSplineSet
EndChar

StartChar: oslash
Encoding: 248 248 258
Width: 550
Flags: HW
TeX: 555 83
ItalicCorrection: 33
HStem: -11 73<236.805 370.373> 417 72<285.613 416.116>
VStem: 70 118<121.454 273.003> 460 118<190.242 350.809>
DStem2: 45 -66 101 -101 0.61793 0.786233<7.08593 121.037 236.457 583.851 697.412 814.008>
LayerCount: 2
Fore
SplineSet
45 -66 m 1
 120 29 l 1
 120 31 l 1
 100 49 70 80 70 154 c 0
 70 221 98 342 169 413 c 0
 190 434 252 489 377 489 c 0
 409 489 441 486 472 476 c 1
 548 574 l 1
 549 574 l 1
 604 537 l 1
 530 444 l 1
 559 416 578 381 578 317 c 0
 578 287 573 255 566 225 c 0
 530 70 435 -11 271 -11 c 0
 226 -11 198 -4 180 0 c 1
 101 -101 l 1
 45 -66 l 1
188 152 m 0
 188 142 189 132 191 120 c 1
 417 406 l 1
 402 411 389 417 364 417 c 0
 241 417 217 311 201 236 c 0
 194 201 188 177 188 152 c 0
236 69 m 1
 251 65 263 62 287 62 c 0
 416 62 434 165 449 237 c 0
 455 265 460 294 460 323 c 0
 460 333 460 342 458 352 c 1
 236 69 l 1
EndSplineSet
EndChar

StartChar: ucircumflex
Encoding: 251 251 261
Width: 561
Flags: HW
TeX: 679 0
ItalicCorrection: 71
HStem: -11 61<165.5 298.317> 0 21<367 504.28> 452 20<154.768 296 464 601> 672 20G<352 492.656>
VStem: 79 136<53.1886 191.281>
DStem2: 56.6672 -11 192.88 -11 0.207912 0.978148<122.344 493.721> 364.662 -11 497.662 -11 0.207912 0.978148<38.898 91.846 108.299 463.873>
AnchorPoint: "below" 279 0 basechar 0
AnchorPoint: "above" 426 689 basechar 0
LayerCount: 2
Fore
SplineSet
221 541 m 1
 372 692 l 1
 481 692 l 1
 569 541 l 1
 496 541 l 1x38
 414 631 l 1
 294 541 l 1
 221 541 l 1
EndSplineSet
Refer: 127 117 S 1 0 0 1 -0 -0 3
EndChar

StartChar: thorn
Encoding: 254 254 264
Width: 561
Flags: HW
TeX: 694 166
ItalicCorrection: 44
HStem: -167 21G<25 166.171> -11 73<242.493 354.223> 405 78<357.099 498> 675 20G<208 342>
VStem: 447 141<203.592 382.557>
DStem2: 25 -167 162 -167 0.207912 0.978148<28.4839 244.021 283.159 600.573 629.978 881.211>
LayerCount: 2
Fore
SplineSet
25 -167 m 1
 208 694 l 1
 208 695 l 1
 342 695 l 1
 284 422 l 1
 331 455 394 483 467 483 c 0
 529 483 588 452 588 345 c 0
 588 323 585 289 574 236 c 0
 565 192 524 -11 325 -11 c 0
 265 -11 233 12 206 44 c 1
 162 -167 l 1
 25 -167 l 1
218 96 m 1
 227 85 245 62 286 62 c 0
 407 62 434 218 438 238 c 0
 443 262 447 287 447 312 c 0
 447 393 400 405 369 405 c 0
 332 405 299 389 276 373 c 1
 218 96 l 1
EndSplineSet
EndChar

StartChar: germandbls
Encoding: 223 223 265
Width: 565
Flags: HW
TeX: 694 0
ItalicCorrection: 86
HStem: -11 73<256.262 390.557> 0 21G<60 198.237> 400 72<355 412.926> 633 73<336.438 485.219>
VStem: 451 133<155.12 362.971> 491 136<519.769 625.448>
DStem2: 57.6619 -11 191.662 -11 0.207912 0.978148<39.1059 673.066>
LayerCount: 2
Fore
SplineSet
60 0 m 1
 176 545 l 2
 191 616 214 706 433 706 c 0
 525 706 627 691 627 597 c 0x74
 627 563 610 481 517 432 c 1
 546 410 584 372 584 281 c 0
 584 215 566 112 502 51 c 0
 483 33 430 -11 322 -11 c 0
 274 -11 244 0 226 7 c 1
 266 76 l 1
 291 67 304 62 330 62 c 0
 417 62 429 146 444 220 c 0
 448 240 451 262 451 285 c 0xb8
 451 376 397 398 340 400 c 1
 355 472 l 1
 415 472 434 485 455 502 c 1
 480 525 491 567 491 589 c 0
 491 633 448 633 414 633 c 0
 334 633 321 602 312 557 c 2
 194 0 l 1
 60 0 l 1
EndSplineSet
EndChar

StartChar: grave.uc
Encoding: 65542 -1 266
Width: 550
Flags: HW
TeX: 642 0
HStem: 542 99<368.537 381>
VStem: 188 294
LayerCount: 2
Fore
SplineSet
188 641 m 1
 381 641 l 1
 482 542 l 1
 388 542 l 2
 369 542 188 641 188 641 c 1
EndSplineSet
EndChar

StartChar: acute.uc
Encoding: 65543 -1 267
Width: 550
Flags: HW
TeX: 642 0
ItalicCorrection: 75
HStem: 542 99
LayerCount: 2
Fore
SplineSet
297 542 m 1
 439 641 l 1
 602 641 l 1
 633 640 l 1
 414 548 l 1
 400 543 l 1
 383 542 l 1
 297 542 l 1
EndSplineSet
EndChar

StartChar: tilde.uc
Encoding: 65544 -1 268
Width: 550
Flags: HW
TeX: 680 0
ItalicCorrection: 83
HStem: 507 73<431.959 502.774> 607 73<298.664 368.17>
VStem: 199 73<507 572.273> 529 73<613.766 680>
LayerCount: 2
Fore
SplineSet
199 507 m 1
 223 617 285 680 343 680 c 0
 418 680 413 580 470 580 c 0
 505 580 519 628 529 680 c 1
 602 680 l 1
 586 596 531 507 456 507 c 0
 383 507 388 607 330 607 c 0
 295 607 282 553 272 507 c 1
 199 507 l 1
EndSplineSet
EndChar

StartChar: hungarumlaut.uc
Encoding: 65545 -1 270
Width: 550
Flags: HW
TeX: 642 0
ItalicCorrection: 75
HStem: 542 99
LayerCount: 2
Fore
SplineSet
205 542 m 1
 347 641 l 1
 674 641 l 1
 724 640 l 1
 505 548 l 1
 491 543 l 1
 474 542 l 1
 388 542 l 1
 511 628 l 1
 334 553 l 1
 308 543 l 1
 291 542 l 1
 205 542 l 1
EndSplineSet
EndChar

StartChar: ring.uc
Encoding: 65546 -1 271
Width: 764
Flags: HW
TeX: 680 0
HStem: 434 73<438.567 549.6> 608 72<449.838 561.052>
VStem: 373 64<509.75 595.25> 563 64<518.584 604.773>
LayerCount: 2
Fore
SplineSet
373 518 m 0
 373 575 402 680 527 680 c 0
 599 680 627 647 627 597 c 0
 627 548 604 439 484 434 c 1
 466 434 l 1
 394 436 373 475 373 518 c 0
437 538 m 0
 437 507 464 508 486 507 c 1
 526 508 551 507 561 561 c 0
 562 566 563 572 563 577 c 0
 563 607 536 608 514 608 c 0
 475 607 448 608 438 553 c 0
 437 548 437 543 437 538 c 0
EndSplineSet
EndChar

StartChar: twelveudash
Encoding: 61700 61700 272
Width: 733
Flags: HW
TeX: 475 0
ItalicCorrection: 92
HStem: 256 72<70 787>
LayerCount: 2
Fore
SplineSet
54 256 m 1
 70 328 l 1
 802 328 l 1
 787 256 l 1
 54 256 l 1
EndSplineSet
EndChar

StartChar: threequartersemdash
Encoding: 63198 63198 273
Width: 825
Flags: HW
TeX: 475 0
ItalicCorrection: 92
HStem: 256 72<70 878>
LayerCount: 2
Fore
SplineSet
54 256 m 1
 70 328 l 1
 894 328 l 1
 878 256 l 1
 54 256 l 1
EndSplineSet
EndChar

StartChar: arrowleft
Encoding: 8592 8592 274
Width: 1100
Flags: HW
TeX: 423 -104
HStem: 222 83<311 1085.43>
VStem: 266 84<14 127.604>
LayerCount: 2
Fore
SplineSet
117 264 m 1
 140 273 295 332 373 514 c 1
 456 514 l 1
 424 434 375 366 311 305 c 1
 1054 305 l 2
 1076 305 1095 299 1095 273 c 0
 1095 263 1091 222 1033 222 c 2
 293 222 l 1
 338 153 350 82 350 14 c 1
 266 14 l 1
 266 175 168 236 117 264 c 1
EndSplineSet
EndChar

StartChar: arrowright
Encoding: 8594 8594 275
Width: 1100
Flags: HW
TeX: 423 -104
HStem: 222 83<125.625 901>
VStem: 861 84<401.536 514>
LayerCount: 2
Fore
SplineSet
116 255 m 0
 116 265 121 305 178 305 c 2
 918 305 l 1
 879 370 861 427 861 514 c 1
 945 514 l 1
 947 345 1050 288 1095 263 c 1
 981 219 886 127 839 14 c 1
 756 14 l 1
 783 85 834 159 901 222 c 1
 157 222 l 2
 139 222 116 226 116 255 c 0
EndSplineSet
EndChar

StartChar: uni0361.alt
Encoding: 61701 61701 276
Width: 256
Flags: HW
TeX: 694 0
ItalicCorrection: 464
HStem: 584 86<317.649 575.608>
LayerCount: 2
Fore
SplineSet
180 571 m 1
 206 665 374 670 461 670 c 2
 481 670 l 2
 547 670 714 665 714 583 c 0
 714 579 713 575 713 571 c 1
 576 571 l 1
 576 573 l 1
 569 584 474 584 444 584 c 0
 334 582 331 580 317 571 c 1
 180 571 l 1
EndSplineSet
EndChar

StartChar: uni0361
Encoding: 865 865 277
Width: 0
Flags: HW
TeX: 916 0
ItalicCorrection: 515
HStem: 595 86<32.6014 270.032>
VStem: 304 139<507.351 565.135>
AnchorPoint: "affricate-above" 133 489 mark 0
LayerCount: 2
Fore
SplineSet
-166 507 m 1
 -129 668 73 681 153 681 c 0
 169 681 180 680 184 680 c 0
 320 680 443 652 443 539 c 0
 443 528 442 518 440 507 c 1
 303 507 l 1
 304 511 304 515 304 519 c 0
 304 586 225 595 164 595 c 2
 161 595 l 2
 82 595 -6 586 -29 507 c 1
 -166 507 l 1
EndSplineSet
EndChar

StartChar: uni2040.alt
Encoding: 61702 61702 278
Width: 500
Flags: HW
TeX: 694 0
ItalicCorrection: 464
HStem: 585 85<319.326 422.814>
LayerCount: 2
Fore
SplineSet
182 571 m 1
 203 661 321 670 375 670 c 2
 402 670 l 2
 461 670 561 661 561 587 c 0
 561 581 561 577 560 571 c 1
 423 571 l 1
 419 577 417 585 374 585 c 0
 330 585 326 578 319 571 c 1
 182 571 l 1
EndSplineSet
EndChar

StartChar: uni2040
Encoding: 8256 8256 279
Width: 500
Flags: HW
TeX: 694 0
ItalicCorrection: 515
HStem: 595 85<292.203 453.637>
VStem: 472 138<507 575.642>
LayerCount: 2
Fore
SplineSet
107 507 m 1
 137 642 255 680 388 680 c 2
 397 680 l 2
 463 680 610 677 610 546 c 0
 610 533 609 520 607 507 c 1
 470 507 l 1
 471 515 472 521 472 529 c 0
 472 591 410 594 375 595 c 1
 270 595 252 536 244 507 c 1
 107 507 l 1
EndSplineSet
EndChar

StartChar: uni2422
Encoding: 9250 9250 280
Width: 561
Flags: HW
TeX: 694 0
ItalicCorrection: 34
HStem: -11 73<242.059 361.107> -0 21G<60 201.091> 411 72<351.347 490> 675 20G<207 342>
VStem: 451 136<205.607 392.855>
DStem2: 46 456 89 381 0.824653 0.565639<0 66.5321 348.106 518.107> 57.6619 -11 194.662 -11 0.207912 0.978148<39.7296 84.6394 124.028 441.799 568.454 580.81 706.736 720.643>
LayerCount: 2
Fore
SplineSet
46 456 m 1
 176 545 l 1
 207 694 l 1
 208 695 l 1
 342 695 l 1
 333 653 l 1
 478 752 l 1
 522 678 l 1
 306 530 l 1
 284 424 l 1
 326 454 386 483 459 483 c 0
 521 483 587 455 587 341 c 0
 587 320 584 288 573 237 c 0
 563 190 523 -11 323 -11 c 0xb8
 271 -11 236 7 206 44 c 1
 197 -0 l 1
 60 -0 l 1x78
 150 422 l 1
 89 381 l 1
 46 456 l 1
217 97 m 1
 230 82 246 62 288 62 c 0
 396 62 418 149 436 234 c 0
 449 294 451 315 451 335 c 0xb8
 451 395 412 411 372 411 c 0
 333 411 303 396 277 378 c 1
 217 97 l 1
EndSplineSet
EndChar

StartChar: quotesingle
Encoding: 39 39 281
Width: 306
Flags: HW
TeX: 694 0
ItalicCorrection: 93
HStem: 397 298<231 273>
VStem: 200 168
LayerCount: 2
Fore
SplineSet
200 397 m 1
 231 695 l 1
 368 695 l 1
 273 397 l 1
 200 397 l 1
EndSplineSet
EndChar

StartChar: asteriskmath
Encoding: 8727 8727 282
Width: 550
Flags: HW
TeX: 500 -27
VStem: 103 240<140 214> 236 107<41.7043 122.545> 318 106<402.561 486.296>
LayerCount: 2
Fore
SplineSet
103 164 m 0x80
 103 214 132 214 290 263 c 1
 142 317 141 313 141 341 c 0
 141 374 176 410 207 410 c 0
 228 410 229 404 318 300 c 1
 318 437 l 2
 318 494 368 500 380 500 c 0
 403 500 424 486 424 464 c 0x20
 424 449 420 445 359 300 c 1
 495 406 493 409 514 409 c 0
 539 409 557 386 557 363 c 0
 557 347 550 332 538 322 c 0
 527 312 532 313 370 264 c 1
 518 210 519 214 519 186 c 0
 519 153 484 118 453 118 c 0
 431 118 431 126 343 228 c 1
 343 91 l 2x40
 343 34 292 28 280 28 c 0
 257 28 236 42 236 64 c 0x40
 236 79 261 130 302 227 c 1
 164 120 166 118 146 118 c 0
 120 118 103 140 103 164 c 0x80
EndSplineSet
EndChar

StartChar: fraction
Encoding: 8260 8260 284
Width: 550
Flags: HW
TeX: 750 222
ItalicCorrection: 128
DStem2: 37 -144 105 -193 0.514931 0.857232<-38.3228 1039.31>
LayerCount: 2
Fore
SplineSet
23 -181 m 0
 23 -166 31 -154 37 -144 c 2
 556 720 l 2
 561 727 572 750 597 750 c 0
 620 750 638 729 638 708 c 0
 638 695 632 685 627 676 c 2
 105 -193 l 2
 89 -219 78 -220 63 -222 c 1
 42 -222 23 -204 23 -181 c 0
EndSplineSet
EndChar

StartChar: zerooldstyle
Encoding: 63280 63280 285
Width: 550
Flags: HW
TeX: 475 0
ItalicCorrection: 58
HStem: -22 72<228.639 348.417> 422 72<298.653 425.677>
VStem: 78 134<65.0329 258.801> 439 131<226.769 407.477>
LayerCount: 2
Fore
SplineSet
78 130 m 0
 78 172 88 216 94 243 c 0
 130 402 197 488 363 494 c 1
 398 494 l 1
 458 490 570 484 570 340 c 0
 570 299 560 253 554 226 c 0
 518 62 450 -22 284 -22 c 2
 273 -22 l 2
 202 -22 78 -18 78 130 c 0
212 119 m 0
 212 83 226 50 285 50 c 0
 387 50 399 141 428 276 c 0
 430 284 439 325 439 358 c 0
 439 376 436 422 365 422 c 0
 277 422 261 355 255 339 c 0
 240 297 212 168 212 119 c 0
EndSplineSet
EndChar

StartChar: oneoldstyle
Encoding: 63281 63281 286
Width: 550
Flags: HW
TeX: 475 0
HStem: 0 73<106 232 371 473> 352 73<166 291.796> 452 20G<412.5 455>
DStem2: 216.483 0 355.483 0 0.207912 0.978148<103.531 370.206>
LayerCount: 2
Fore
SplineSet
91 0 m 1
 106 73 l 1
 232 73 l 1
 294 362 l 1
 247 354 199 352 151 352 c 1
 166 425 l 1
 382 425 388 472 437 472 c 2
 455 472 l 1
 371 73 l 1
 488 73 l 1
 473 0 l 1
 91 0 l 1
EndSplineSet
EndChar

StartChar: twooldstyle
Encoding: 63282 63282 287
Width: 550
Flags: HW
TeX: 475 0
ItalicCorrection: 55
HStem: -0 107<171 494> 394 101<248.799 400.997>
VStem: 422 143<278.868 372.303>
LayerCount: 2
Fore
SplineSet
48 -0 m 1
 69 100 l 1
 232 183 212 174 275 200 c 0
 300 210 422 249 422 332 c 0
 422 369 385 394 328 394 c 0
 261 394 229 362 200 331 c 1
 131 404 l 1
 203 465 270 495 363 495 c 0
 461 495 565 457 565 352 c 0
 565 224 431 217 329 178 c 0
 313 172 298 164 171 106 c 1
 281 106 l 1
 308 107 l 1
 517 107 l 1
 494 -0 l 1
 48 -0 l 1
EndSplineSet
EndChar

StartChar: threeoldstyle
Encoding: 63283 63283 288
Width: 550
Flags: HW
TeX: 475 166
ItalicCorrection: 55
HStem: -189 95<129.579 312.192> 142 73<229 334.865> 405 90<255.587 400.445>
VStem: 368 145<-24.935 126.197> 407 141<289.173 399.323>
LayerCount: 2
Fore
SplineSet
20 -123 m 1
 57 -29 l 1
 97 -60 151 -94 239 -94 c 0
 319 -94 345 -49 360 19 c 0
 367 52 368 64 368 75 c 0xf0
 368 138 317 142 282 142 c 2
 214 142 l 1
 229 215 l 1
 281 218 288 218 302 222 c 0
 374 242 407 316 407 362 c 0
 407 400 377 405 349 405 c 0
 281 405 238 380 188 335 c 1
 148 408 l 1
 201 452 273 495 370 495 c 0
 474 495 548 464 548 371 c 0xe8
 548 257 453 203 406 180 c 1
 470 163 513 129 513 61 c 0xf0
 513 15 484 -189 225 -189 c 0
 153 -189 84 -173 20 -123 c 1
EndSplineSet
EndChar

StartChar: fouroldstyle
Encoding: 63284 63284 289
Width: 550
Flags: HW
TeX: 475 166
ItalicCorrection: 15
HStem: 0 95<159 304 449 518> 452 20G<353.024 529>
DStem2: 50 95 159 95 0.64712 0.762388<70.5361 428.383> 264 -189 388 -189 0.207912 0.978148<25.781 193.186 316.258 572.566>
LayerCount: 2
Fore
SplineSet
30 0 m 1
 50 95 l 1
 370 472 l 1
 529 472 l 1
 449 95 l 1
 538 95 l 1
 518 0 l 1
 428 0 l 1
 388 -189 l 1
 264 -189 l 1
 304 0 l 1
 30 0 l 1
159 95 m 1
 330 95 l 1
 388 370 l 1
 308 272 l 1
 159 95 l 1
EndSplineSet
EndChar

StartChar: fiveoldstyle
Encoding: 63285 63285 290
Width: 550
Flags: HW
TeX: 475 166
ItalicCorrection: 39
HStem: -189 95<151.424 303.004> -29 20G<92.1429 118.5> 178 73<264.689 362.303> 372 100<293 537>
VStem: 370 140<10.1212 170.814>
LayerCount: 2
Fore
SplineSet
35 -93 m 1
 110 -9 l 1
 127 -74 176 -94 224 -94 c 0
 317 -94 338 -44 354 35 c 0
 363 82 370 111 370 131 c 0
 370 168 341 178 320 178 c 0
 297 178 249 169 206 99 c 1
 103 99 l 1
 182 472 l 1
 558 472 l 1
 537 372 l 1
 293 372 l 1
 263 234 l 1
 298 250 326 251 341 251 c 0
 425 251 510 222 510 106 c 0
 510 34 482 -63 416 -122 c 0
 358 -173 277 -189 205 -189 c 0
 115 -189 63 -146 35 -93 c 1
EndSplineSet
EndChar

StartChar: sevenoldstyle
Encoding: 63287 63287 292
Width: 550
Flags: HW
TeX: 475 166
ItalicCorrection: 100
HStem: -178 21G<104 258.5> 365 108<146 500>
VStem: 104 143<-178 -100.245>
LayerCount: 2
Fore
SplineSet
104 -178 m 1
 129 -40 235 181 455 336 c 1
 500 366 l 1
 421 366 l 1
 395 365 l 1
 193 365 l 1
 170 364 l 1
 123 364 l 1
 146 473 l 1
 604 472 l 1
 580 359 589 378 560 352 c 1
 512 306 477 272 425 203 c 0
 335 84 270 -57 247 -178 c 1
 104 -178 l 1
EndSplineSet
EndChar

StartChar: nineoldstyle
Encoding: 63289 63289 294
Width: 550
Flags: HW
TeX: 475 166
ItalicCorrection: 39
HStem: -189 95<107.911 286.873> 14 73<169 305.751> 406 89<292.799 411.758>
VStem: 85 136<97.4436 274.514> 427 130<212.372 391.228>
LayerCount: 2
Fore
SplineSet
48 -144 m 1
 114 -60 l 1
 145 -84 166 -94 207 -94 c 0
 251 -94 296 -78 325 -44 c 0
 366 5 385 105 386 114 c 1
 358 69 306 14 225 14 c 0
 113 14 85 93 85 157 c 0
 85 194 101 286 126 341 c 0
 154 402 215 465 291 485 c 0
 308 490 337 495 382 495 c 0
 472 495 557 457 557 308 c 0
 557 270 551 231 544 194 c 0
 524 90 473 -189 187 -189 c 0
 117 -189 83 -169 48 -144 c 1
221 145 m 0
 221 114 233 87 283 87 c 0
 404 87 427 297 427 337 c 0
 427 370 413 406 359 406 c 0
 262 406 252 322 228 200 c 0
 225 183 221 164 221 145 c 0
EndSplineSet
EndChar

StartChar: angleleft
Encoding: 9001 9001 295
Width: 428
Flags: HW
TeX: 750 222
DStem2: 262 256 179 249 0.14834 -0.988936<0 440.402> 188 294 262 256 0.499722 0.866186<4.06441 521.9>
LayerCount: 2
Fore
SplineSet
177 263 m 0
 177 275 182 283 188 294 c 2
 427 710 l 2
 435 724 447 750 475 750 c 0
 497 750 516 733 516 708 c 0
 516 693 508 682 502 672 c 2
 262 256 l 1
 324 -154 l 2
 325 -163 327 -171 327 -180 c 0
 327 -205 306 -222 286 -222 c 0
 245 -222 243 -176 242 -171 c 2
 179 249 l 2
 178 254 177 258 177 263 c 0
EndSplineSet
EndChar

StartChar: minus
Encoding: 8722 8722 296
Width: 672
Flags: HW
TeX: 538 11
ItalicCorrection: 25
HStem: 227 73<121.322 662.919>
LayerCount: 2
Fore
SplineSet
118 263 m 0
 118 272 122 300 161 300 c 2
 621 300 l 2
 662 300 666 275 666 264 c 0
 666 254 662 227 621 227 c 2
 161 227 l 2
 121 227 118 253 118 263 c 0
EndSplineSet
EndChar

StartChar: angleright
Encoding: 9002 9002 297
Width: 428
Flags: HW
TeX: 750 222
VStem: 212 84<655.258 744.114> 275 86<235.375 411.859>
DStem2: 31 -154 112 -182 0.497956 0.867202<-27.4484 495.889> 296 702 215 680 0.148107 -0.988971<-17.9566 415.981>
LayerCount: 2
Fore
SplineSet
22 -181 m 0
 22 -170 27 -161 31 -154 c 2
 267 257 l 2
 273 267 275 272 275 278 c 0x40
 275 283 274 289 272 300 c 2
 215 680 l 2
 214 689 212 699 212 708 c 0x80
 212 735 233 750 253 750 c 0
 294 750 296 702 296 702 c 1x80
 358 288 l 2
 359 280 361 273 361 265 c 0
 361 247 350 234 343 220 c 2
 112 -182 l 2
 90 -220 83 -220 62 -222 c 1
 40 -221 22 -203 22 -181 c 0
EndSplineSet
EndChar

StartChar: uni2127
Encoding: 8487 8487 298
Width: 794
Flags: HW
TeX: 694 0
ItalicCorrection: 126
HStem: -22 72<299.744 522.275> 587 108<196 370 673 870>
VStem: 103 147<95.4389 277.141> 641 146<178.987 379.388>
LayerCount: 2
Fore
SplineSet
103 170 m 0
 103 349 262 435 370 588 c 1
 252 587 l 1
 173 587 l 1
 196 695 l 1
 491 695 l 1
 443 498 250 358 250 168 c 0
 250 78 313 50 407 50 c 0
 538 50 601 107 628 205 c 0
 636 235 641 264 641 301 c 0
 641 417 591 509 591 625 c 0
 591 649 596 693 598 695 c 1
 893 695 l 1
 870 587 l 1
 791 587 l 1
 673 588 l 1
 699 485 787 391 787 279 c 0
 787 206 748 111 677 55 c 0
 592 -12 478 -22 394 -22 c 0
 234 -22 103 16 103 170 c 0
EndSplineSet
EndChar

StartChar: circle
Encoding: 9675 9675 299
Width: 1143
Flags: HW
TeX: 750 222
HStem: -245 83<361.097 698.751> 689 84<555.852 891.059>
VStem: 99 84<-8.08536 280.455> 1070 84<250.894 536.793>
LayerCount: 2
Fore
SplineSet
99 115 m 0
 99 168 106 209 113 248 c 0
 140 397 235 773 725 773 c 0
 1104 773 1154 551 1154 413 c 0
 1154 360 1148 320 1141 281 c 0
 1113 128 1019 -245 528 -245 c 0
 149 -245 99 -22 99 115 c 0
183 117 m 0
 183 -50 264 -162 526 -162 c 0
 957 -162 1035 150 1065 337 c 1
 1068 367 1070 383 1070 413 c 0
 1070 579 986 689 726 689 c 0
 409 689 256 522 199 258 c 0
 189 212 183 164 183 117 c 0
EndSplineSet
EndChar

StartChar: uni301A
Encoding: 12314 12314 301
Width: 443
Flags: HW
TeX: 750 222
HStem: -222 83<163 218 301 370> 667 83<335 388 472 559>
DStem2: 62 -222 145.358 -222 0.207912 0.978148<102.185 926.333> 200.358 -222 283.358 -222 0.207912 0.978148<102.111 908.586>
LayerCount: 2
Fore
SplineSet
62 -222 m 1
 269 750 l 1
 577 750 l 1
 559 667 l 1
 472 667 l 1
 301 -139 l 1
 387 -139 l 1
 370 -222 l 1
 62 -222 l 1
163 -139 m 1
 218 -139 l 1
 388 667 l 1
 335 667 l 1
 163 -139 l 1
EndSplineSet
EndChar

StartChar: uni301B
Encoding: 12315 12315 302
Width: 443
Flags: HW
TeX: 750 222
HStem: -222 83<-4 82 166 220> 667 83<185 253 337 391>
DStem2: 64.3578 -222 148.358 -222 0.207912 0.978148<102.319 908.794> 202.358 -222 285 -222 0.207912 0.978148<84.8543 908.794>
LayerCount: 2
Fore
SplineSet
-22 -222 m 1
 -4 -139 l 1
 82 -139 l 1
 253 667 l 1
 167 667 l 1
 185 750 l 1
 492 750 l 1
 285 -222 l 1
 -22 -222 l 1
166 -139 m 1
 220 -139 l 1
 391 667 l 1
 337 667 l 1
 166 -139 l 1
EndSplineSet
EndChar

StartChar: arrowup
Encoding: 8593 8593 303
Width: 550
Flags: HW
TeX: 694 166
ItalicCorrection: 51
HStem: -167 21G<228 264.5> 403 83<134 193.819 561.023 606.434> 674 20G<394 427.5>
DStem2: 197.585 -167 280.759 -167 0.207912 0.978148<35.2354 685.947>
LayerCount: 2
Fore
SplineSet
116 403 m 1
 134 486 l 1
 267 513 366 600 422 694 c 1
 433 649 459 525 622 486 c 1
 605 403 l 1
 511 423 461 467 423 504 c 1
 295 -100 l 2
 293 -109 289 -167 240 -167 c 0
 216 -167 206 -152 206 -133 c 0
 206 -128 207 -124 208 -118 c 2
 340 504 l 1
 282 462 210 421 116 403 c 1
EndSplineSet
EndChar

StartChar: arrowdown
Encoding: 8595 8595 304
Width: 550
Flags: HW
TeX: 694 166
HStem: -166 21G<233.5 252.75> 41 84<55.5 99.6656 469.58 528> 674 20G<418 434>
DStem2: 197.614 -166 280.614 -166 0.207912 0.978148<211.501 862.212>
LayerCount: 2
Fore
SplineSet
39 41 m 1
 57 125 l 1
 150 105 198 63 238 24 c 1
 370 646 l 2
 380 692 414 694 422 694 c 0
 446 694 455 680 455 661 c 0
 455 656 454 651 453 645 c 2
 321 24 l 1
 379 66 451 107 545 125 c 1
 528 41 l 1
 410 17 319 -54 261 -134 c 1
 239 -166 l 1
 228 -120 201 3 39 41 c 1
EndSplineSet
EndChar

StartChar: uni22C6
Encoding: 8902 8902 306
Width: 550
Flags: HW
TeX: 500 -27
HStem: -6 21G<108.844 123.051 433.41 447.596>
LayerCount: 2
Fore
SplineSet
58 332 m 1
 289 311 l 1
 390 541 l 1
 393 310 l 1
 594 329 l 1
 633 332 l 1
 404 212 l 1
 452 -6 l 1
 307 150 l 1
 96 -6 l 1
 236 212 l 1
 58 332 l 1
EndSplineSet
EndChar

StartChar: uni26AE
Encoding: 9902 9902 307
Width: 550
Flags: HW
TeX: 500 -27
HStem: 28 105<-65.127 85.5391 530.895 682.662> 395 105<-19.8759 131.045 577.225 730.119>
VStem: -189 106<149.995 308.434> 145 126<217.835 380.867> 391 127<146.974 309.5> 746 105<216.274 378.699>
DStem2: 181 -122 317 -122 0.207912 0.978148<28.276 789.227>
LayerCount: 2
Fore
SplineSet
-189 182 m 0
 -189 231 -177 276 -170 302 c 0
 -139 411 -67 500 88 500 c 0
 179 500 271 468 271 342 c 0
 271 278 247 141 152 74 c 0
 99 36 35 28 -15 28 c 0
 -131 28 -189 81 -189 182 c 0
-83 203 m 0
 -83 147 -47 134 -1 133 c 1
 16 133 l 1
 99 136 118 185 133 253 c 0
 138 277 145 303 145 330 c 0
 145 386 107 395 62 395 c 0
 -52 395 -64 320 -80 235 c 0
 -82 225 -83 214 -83 203 c 0
181 -122 m 1
 345 650 l 1
 482 650 l 1
 317 -122 l 1
 181 -122 l 1
391 186 m 0
 391 249 415 385 509 452 c 0
 562 490 627 500 677 500 c 0
 764 500 851 470 851 346 c 0
 851 276 826 148 744 81 c 0
 728 68 676 28 574 28 c 0
 482 28 391 60 391 186 c 0
518 198 m 0
 518 146 549 133 600 133 c 0
 712 133 726 202 743 293 c 0
 745 303 746 314 746 325 c 0
 746 381 710 395 662 395 c 0
 604 395 557 390 533 289 c 0
 521 235 518 216 518 198 c 0
EndSplineSet
EndChar

StartChar: uni271D
Encoding: 10013 10013 308
Width: 550
Flags: HW
TeX: 616 22
HStem: -22 21G<201 342.256> 368 91<159 284 440 565>
DStem2: 201 -22 338 -22 0.207912 0.978148<28.4839 398.734 520.18 653.312>
LayerCount: 2
Fore
SplineSet
137 361 m 1
 159 466 l 1
 303 459 l 1
 337 617 l 1
 474 617 l 1
 440 459 l 1
 499 461 l 1
 587 466 l 1
 565 361 l 1
 421 368 l 1
 338 -22 l 1
 201 -22 l 1
 284 368 l 1
 222 366 l 1
 137 361 l 1
EndSplineSet
EndChar

StartChar: leaf
Encoding: 61704 61704 309
Width: 1100
Flags: HW
TeX: 694 0
HStem: -78 50<99.9626 456.891> 149 50<410 815> 357 50<784 1040> 723 50<788.495 1144.34>
DStem2: 45 53 61 5 0.873508 0.48681<0 281.576 389.905 709.524 817.853 1298.64> 234.035 -78 285.233 -78 0.207912 0.978148<317.347 574.453> 563.823 -78 614.809 -78 0.207912 0.978148<530.972 781.023>
LayerCount: 2
Fore
SplineSet
-23 1 m 0
 -23 12 26 199 184 386 c 0
 350 583 612 750 913 771 c 1
 961 773 l 1
 1041 772 1140 764 1246 722 c 0
 1258 717 1272 711 1272 694 c 0
 1272 683 1224 498 1065 309 c 0
 885 96 608 -78 275 -78 c 0
 207 -78 104 -69 3 -28 c 0
 -9 -23 -23 -16 -23 1 c 0
45 53 m 1
 291 190 l 1
 353 484 l 1
 247 399 117 245 45 53 c 1
61 5 m 1
 124 -17 205 -28 278 -28 c 0
 512 -28 722 80 815 149 c 1
 340 149 l 1
 320 148 l 1
 305 141 l 1
 61 5 l 1
349 222 m 1
 665 398 l 1
 726 686 l 1
 582 647 426 547 416 531 c 0
 412 524 398 453 349 222 c 1
410 199 m 1
 882 199 l 1
 959 263 1013 322 1040 357 c 1
 711 357 l 1
 694 356 l 1
 678 349 l 1
 410 199 l 1
723 431 m 1
 1188 690 l 1
 1126 707 1068 723 970 723 c 0
 902 723 857 716 780 701 c 1
 723 431 l 1
784 407 m 1
 1079 407 l 1
 1106 446 1170 542 1204 641 c 1
 784 407 l 1
EndSplineSet
EndChar

StartChar: uni26AD
Encoding: 9901 9901 310
Width: 550
Flags: HW
TeX: 500 -27
HStem: 28 105<64.4153 209.177 401.202 551.951> 395 105<111.765 263.045 454.608 596.286>
VStem: -65 107<156.401 311.52> 201 262<217.85 313.489> 622 107<215.306 370.074>
CounterMasks: 1 38
LayerCount: 2
Fore
SplineSet
-65 192 m 0
 -65 253 -41 419 106 477 c 0
 132 487 177 500 247 500 c 0
 335 500 366 479 378 479 c 0
 392 479 420 500 520 500 c 0
 630 500 729 467 729 335 c 0
 729 278 707 114 562 53 c 0
 536 42 491 28 419 28 c 0
 328 28 299 49 285 49 c 0
 274 49 237 28 142 28 c 0
 12 28 -65 77 -65 192 c 0
42 213 m 0
 42 148 85 133 162 133 c 0
 178 133 194 134 210 135 c 1
 203 158 201 178 201 196 c 0
 201 261 221 329 264 393 c 1
 248 395 231 395 215 395 c 0
 89 395 69 341 50 270 c 0
 46 253 42 233 42 213 c 0
399 135 m 1
 415 133 433 133 449 133 c 0
 574 133 595 187 614 258 c 0
 616 269 622 291 622 314 c 0
 622 381 574 395 502 395 c 0
 486 395 470 394 454 393 c 1
 462 363 463 344 463 332 c 0
 463 262 440 196 399 135 c 1
EndSplineSet
EndChar

StartChar: musicalnote
Encoding: 9834 9834 311
Width: 672
Flags: HW
TeX: 694 0
HStem: -53 333<201.366 343.047> 674 20G<522.5 554>
VStem: 499 83<620.279 688.551> 568 84<134.977 349.497>
DStem2: 348.383 -53 433.837 -53 0.207912 0.978148<310.792 482.818>
LayerCount: 2
Fore
SplineSet
84 99 m 0
 84 207 189 280 302 280 c 0
 341 280 375 274 413 251 c 1
 499 653 l 2
 500 655 504 694 541 694 c 0
 567 694 582 671 582 653 c 0xe0
 582 640 577 621 577 591 c 0
 577 471 652 366 652 229 c 0xd0
 652 184 649 125 604 125 c 0
 581 125 563 145 563 167 c 0
 563 180 568 197 568 230 c 0xd0
 568 299 536 385 530 402 c 1
 484 183 l 1
 477 154 l 1
 473 144 l 1
 470 40 366 -53 250 -53 c 0
 158 -53 84 8 84 99 c 0
EndSplineSet
EndChar

StartChar: tildelow
Encoding: 61705 61705 312
Width: 672
Flags: HW
TeX: 132 0
HStem: 0 73<388.936 508.344> 62 73<189.714 310.064>
VStem: 91 73<0 34.9875> 535 73<100.636 135>
LayerCount: 2
Fore
SplineSet
91 0 m 1xb0
 113 89 193 135 262 135 c 0x70
 358 135 393 73 453 73 c 0xb0
 479 73 520 87 535 135 c 1
 608 135 l 1x70
 586 48 509 0 437 0 c 0xb0
 341 0 306 62 246 62 c 0x70
 220 62 179 48 164 0 c 1
 91 0 l 1xb0
EndSplineSet
EndChar

StartChar: breve.ts1
Encoding: 61707 61707 314
Width: 672
Flags: HW
TeX: 694 0
ItalicCorrection: 92
HStem: 521 94<332.681 575.253> 675 20G<232.5 306 656.5 733>
VStem: 230 75<639.732 695>
LayerCount: 2
Fore
SplineSet
230 664 m 0
 230 676 232 694 233 695 c 1
 306 695 l 1
 305 690 305 685 305 681 c 0
 305 640 340 615 462 615 c 0
 667 615 652 686 661 695 c 1
 733 695 l 1
 697 556 535 521 447 521 c 0
 326 521 230 575 230 664 c 0
EndSplineSet
EndChar

StartChar: caron.ts1
Encoding: 61708 61708 315
Width: 672
Flags: HW
TeX: 694 0
ItalicCorrection: 69
HStem: 513 204<390 394>
LayerCount: 2
Fore
SplineSet
321 717 m 1
 394 717 l 1
 462 599 l 1
 581 717 l 1
 654 717 l 1
 500 513 l 1
 390 513 l 1
 321 717 l 1
EndSplineSet
EndChar

StartChar: dblgrave.ts1
Encoding: 61710 61710 317
Width: 550
Flags: HW
TeX: 694 0
HStem: 546 149<293 366 477 549>
VStem: 239 320
LayerCount: 2
Fore
SplineSet
239 695 m 1
 376 695 l 1
 366 546 l 1
 293 546 l 1
 239 695 l 1
422 695 m 1
 559 695 l 1
 549 546 l 1
 477 546 l 1
 422 695 l 1
EndSplineSet
EndChar

StartChar: dagger
Encoding: 8224 8224 318
Width: 489
Flags: HW
TeX: 694 166
HStem: 404 136<188.454 268.072 420.228 499.163> 686 20G<374 409>
VStem: 309 140<590.965 676.469>
DStem2: 136 -189 273 -189 0.207912 0.978148<28.4839 527.793>
LayerCount: 2
Fore
SplineSet
136 -189 m 1
 230 255 l 2
 249 347 288 359 328 458 c 1
 271 437 255 404 214 404 c 0
 181 404 160 426 160 457 c 0
 160 499 197 540 242 540 c 0
 284 540 293 503 334 487 c 1
 334 542 309 572 309 616 c 0
 309 674 354 706 394 706 c 0
 424 706 449 688 449 654 c 0
 449 596 384 545 362 487 c 1
 405 501 434 537 470 540 c 1
 473 540 l 2
 518 540 529 509 529 488 c 0
 529 443 489 404 446 404 c 0
 407 404 394 444 355 458 c 1
 354 436 l 1
 355 388 373 346 373 301 c 0
 373 284 371 275 367 257 c 2
 273 -189 l 1
 136 -189 l 1
EndSplineSet
EndChar

StartChar: daggerdbl
Encoding: 8225 8225 319
Width: 489
Flags: HW
TeX: 694 166
HStem: -178 21G<191.5 230.5> -25 136<97.2041 177.593 328.407 409.542> 417 136<191.64 271.983 422.625 503.167> 686 20G<373 410.5>
VStem: 151 140<-149.24 -67.2539> 216 140<152.922 233.469> 245 140<292.773 374.414> 310 140<594.596 676.731>
LayerCount: 2
Fore
SplineSet
68 27 m 0
 68 70 105 111 150 111 c 0
 191 111 195 80 242 57 c 1
 242 105 216 134 216 176 c 0
 216 227 258 263 300 263 c 0
 330 263 356 245 356 211 c 0
 356 156 293 113 270 58 c 1
 326 79 343 111 384 111 c 0
 416 111 438 90 438 58 c 0
 438 16 402 -25 356 -25 c 0xf4
 315 -25 311 5 264 28 c 1
 265 -21 291 -51 291 -92 c 0
 291 -139 254 -178 207 -178 c 0
 176 -178 151 -159 151 -126 c 0xf8
 151 -69 212 -29 236 28 c 1
 179 6 163 -25 122 -25 c 0
 89 -25 68 -4 68 27 c 0
162 469 m 0
 162 512 200 553 245 553 c 0xf2
 287 553 295 516 336 500 c 1
 335 548 310 579 310 619 c 0
 310 671 352 706 394 706 c 0
 427 706 450 684 450 653 c 0
 450 600 392 559 364 500 c 1
 411 514 435 553 479 553 c 0
 511 553 532 532 532 500 c 0
 532 458 495 417 450 417 c 0xf1
 408 417 399 454 358 470 c 1
 360 420 385 392 385 351 c 0
 385 296 340 264 301 264 c 0
 272 264 245 281 245 315 c 0xf2
 245 371 308 416 330 470 c 1
 281 453 258 417 216 417 c 0xf4
 184 417 162 437 162 469 c 0
EndSplineSet
EndChar

StartChar: uni2016
Encoding: 8214 8214 320
Width: 550
Flags: HW
TeX: 750 222
VStem: 114 86<-216.469 -141.027> 274 86<-216.469 -141.027> 301 85<671.989 743.872> 461 85<671.989 743.872>
LayerCount: 2
Fore
SplineSet
114 -181 m 0
 114 -173 116 -166 118 -158 c 2
 301 705 l 2xb0
 304 716 310 750 345 750 c 0
 367 750 386 731 386 708 c 0
 386 701 384 695 383 688 c 2
 200 -174 l 2
 198 -182 194 -223 156 -223 c 0
 134 -223 114 -204 114 -181 c 0
274 -181 m 0
 274 -173 276 -166 278 -158 c 2
 461 705 l 2
 464 716 470 750 505 750 c 0xd0
 527 750 546 731 546 708 c 0
 546 701 544 695 543 688 c 2
 360 -174 l 2
 358 -182 354 -223 316 -223 c 0
 294 -223 274 -204 274 -181 c 0
EndSplineSet
EndChar

StartChar: perthousand
Encoding: 8240 8240 321
Width: 1396
Flags: HW
TeX: 750 55
ItalicCorrection: 28
HStem: -56 73<751.496 835.562 1117.94 1201.56> 274 73<796.809 880.247 1163.29 1248.66> 347 73<291.939 376.033> 677 73<337.239 423.17>
VStem: 169 116<426.739 585.537> 433 115<501.788 668.373> 628 116<24.2093 185.281> 891 116<99.9305 266.825> 995 116<23.7392 185.138> 1258 115<98.4701 265.697>
DStem2: 221 26 280 -33 0.694776 0.719226<-43.4444 1018.02>
LayerCount: 2
Fore
SplineSet
169 479 m 0
 169 517 178 551 183 572 c 0
 208 665 266 750 402 750 c 0
 475 750 548 724 548 620 c 0
 548 584 539 548 535 530 c 0
 511 434 453 347 317 347 c 0
 243 347 169 374 169 479 c 0
199 -14 m 0
 199 4 211 16 221 26 c 2
 899 728 l 2
 907 736 920 750 938 750 c 0
 960 750 980 732 980 709 c 0
 980 693 970 682 962 673 c 2
 280 -33 l 2
 271 -42 260 -55 240 -55 c 0
 216 -55 199 -36 199 -14 c 0
285 468 m 0
 285 430 311 420 332 420 c 0
 420 420 433 605 433 613 c 0
 433 667 405 677 386 677 c 0
 359 677 338 660 329 647 c 0
 310 618 285 500 285 468 c 0
628 76 m 0
 628 113 638 150 642 168 c 0
 668 266 729 347 861 347 c 0
 958 347 1007 301 1007 217 c 0
 1007 182 998 145 994 128 c 0
 967 21 904 -56 775 -56 c 0
 677 -56 628 -9 628 76 c 0
744 65 m 0
 744 27 770 17 791 17 c 0
 871 17 891 177 891 210 c 0xff40
 891 265 863 274 844 274 c 0
 836 274 807 272 788 244 c 0
 764 209 744 86 744 65 c 0
995 76 m 0
 995 113 1004 150 1008 168 c 0
 1040 291 1118 347 1228 347 c 0
 1301 347 1373 322 1373 217 c 0
 1373 181 1364 145 1360 127 c 0
 1336 31 1278 -56 1143 -56 c 0
 1069 -56 995 -29 995 76 c 0
1111 65 m 0
 1111 27 1137 17 1158 17 c 0
 1238 17 1258 176 1258 210 c 0xfec0
 1258 265 1230 274 1211 274 c 0
 1202 274 1173 272 1154 243 c 0
 1135 214 1111 96 1111 65 c 0
EndSplineSet
EndChar

StartChar: bullet
Encoding: 8226 8226 322
Width: 550
Flags: HW
TeX: 475 -49
HStem: 50 428<256.534 402.807>
VStem: 110 440<206.856 323.839>
LayerCount: 2
Fore
SplineSet
110 209 m 0
 110 291 150 478 368 478 c 0
 481 478 550 423 550 319 c 0
 550 232 507 50 292 50 c 0
 179 50 110 105 110 209 c 0
EndSplineSet
EndChar

StartChar: dollaroldstyle
Encoding: 63268 63268 324
Width: 672
Flags: HW
TeX: 750 55
ItalicCorrection: 117
HStem: -10 101<311 377> -0 103<179.104 219> 606 99<441.133 507>
VStem: 163 125<425.5 555.118> 533 125<153.243 288.5>
DStem2: 207 -56 280 -56 0.207912 0.978148<15.1776 57.5576 165.411 373.893 536.814 656.247 793.022 823.94> 367 -56 440 -56 0.207912 0.978148<15.1776 47.0739 186.783 326.819 494.838 674.685 783.803 823.94>
LayerCount: 2
Fore
SplineSet
60 58 m 1
 103 168 l 1
 136 146 175 119 240 103 c 1x78
 285 314 l 1
 228 335 163 384 163 467 c 0
 163 522 200 659 366 695 c 1
 378 750 l 1
 451 750 l 1
 441 705 l 1
 473 706 l 1
 528 705 l 1
 538 750 l 1
 611 750 l 1
 599 696 l 1
 645 688 688 671 729 650 c 1
 689 545 l 1
 655 563 630 579 577 593 c 1
 538 407 l 1
 597 383 658 331 658 246 c 0
 658 190 620 39 451 1 c 1
 440 -56 l 1
 367 -56 l 1
 377 -10 l 1
 363 -11 350 -11 336 -11 c 0
 320 -11 305 -11 289 -10 c 1xb8
 280 -56 l 1
 207 -56 l 1
 219 -0 l 1
 140 17 108 33 60 58 c 1
288 514 m 0
 288 492 303 479 319 469 c 1
 343 586 l 1
 311 571 288 543 288 514 c 0
311 91 m 1xb8
 366 89 l 1
 398 91 l 1
 437 276 l 1
 354 295 l 1
 311 91 l 1xb8
386 447 m 1
 469 427 l 1
 470 428 l 1
 507 604 l 1
 492 605 476 606 461 606 c 0
 447 606 434 605 420 604 c 1
 386 447 l 1
475 112 m 1
 507 128 533 164 533 198 c 0x38
 533 222 520 236 504 249 c 1
 475 112 l 1
EndSplineSet
EndChar

StartChar: centoldstyle
Encoding: 63394 63394 325
Width: 550
Flags: HW
TeX: 555 83
ItalicCorrection: 88
HStem: -11 78<251.924 446.317> 411 78<307.997 413>
VStem: 78 135<144.528 282.173>
DStem2: 58 -67 115 -100 0.596786 0.802401<7.53755 127.542 262.199 595.406 722.141 797.606>
LayerCount: 2
Fore
SplineSet
58 -67 m 1
 132 34 l 1
 110 52 78 86 78 163 c 0
 78 192 81 206 86 235 c 1
 138 483 337 489 413 489 c 0
 432 489 452 488 471 487 c 1
 534 573 l 1
 535 573 l 1
 591 539 l 1
 542 473 l 1
 564 466 586 456 607 446 c 1
 571 351 l 1
 546 369 529 385 488 400 c 1
 251 82 l 1
 270 73 287 67 321 67 c 0
 422 67 484 103 538 133 c 1
 526 35 l 1
 453 5 387 -11 303 -11 c 0
 265 -11 228 -8 192 3 c 1
 115 -100 l 1
 58 -67 l 1
213 165 m 0
 213 158 214 150 215 143 c 1
 413 411 l 1
 396 411 l 2
 268 411 241 325 221 229 c 0
 217 208 213 186 213 165 c 0
EndSplineSet
EndChar

StartChar: colonmonetary
Encoding: 8353 8353 326
Width: 703
Flags: HW
TeX: 750 55
ItalicCorrection: 117
HStem: -21 101<339.543 386 480 578.405> 614 102<447.271 521 615 672.003>
VStem: 120 149<152.7 379.999>
DStem2: 379 -56 451 -56 0.207912 0.978148<14.9696 35.6905 153.049 684.882 804.197 823.94>
LayerCount: 2
Fore
SplineSet
120 229 m 0
 120 277 128 313 134 348 c 1
 179 563 301 702 542 716 c 1
 550 750 l 1
 622 750 l 1
 615 716 l 1
 681 714 732 699 779 682 c 1
 728 551 l 1
 685 587 671 603 594 615 c 1
 480 79 l 1
 556 82 591 100 667 144 c 1
 654 33 l 1
 563 -10 537 -17 458 -22 c 1
 451 -56 l 1
 379 -56 l 1
 386 -21 l 1
 264 -14 120 29 120 229 c 0
269 247 m 0
 269 144 319 91 407 80 c 1
 521 614 l 1
 363 596 308 463 284 357 c 0
 277 324 269 285 269 247 c 0
EndSplineSet
EndChar

StartChar: uni20A9
Encoding: 8361 8361 327
Width: 1039
Flags: HW
TeX: 694 0
ItalicCorrection: 162
HStem: 0 21G<201.764 375.663 664.876 844.663> 178 72<27.6772 188 322 342 487 651 780 804 956 1100.92> 414 73<78.0723 175 311 453 600 639 768 916 1070 1150.67> 675 20G<163 296.058 578.385 753.154 1041.38 1170>
VStem: 179 132<367.143 414 487 578> 656 124<125 178>
DStem2: 295 695 163 695 0.0574589 -0.998348<0 200.761 281.455 438.117> 376 250 487 250 0.429995 0.902831<47.7295 181.174 310.29 400.232> 781 125 835 0 0.434205 0.900814<0 57.7299 188.588 318.953 451.58 630.699>
LayerCount: 2
Fore
SplineSet
25 214 m 0
 25 229 31 250 72 250 c 2
 188 250 l 1
 179 414 l 1
 118 414 l 2
 79 414 75 442 75 450 c 0
 75 462 80 487 122 487 c 2
 175 487 l 1
 163 695 l 1
 295 695 l 1
 306 487 l 1
 488 487 l 1
 588 695 l 1
 752 695 l 1
 764 487 l 1
 951 487 l 1
 1051 695 l 1
 1170 695 l 1
 1070 487 l 1
 1106 487 l 2
 1116 487 1126 487 1135 482 c 0
 1147 476 1154 463 1154 450 c 0
 1154 441 1150 414 1111 414 c 2
 1035 414 l 1
 956 250 l 1
 1059 250 l 2
 1100 250 1104 223 1104 213 c 0
 1104 201 1099 178 1059 178 c 2
 921 178 l 1
 835 0 l 1
 666 0 l 1
 656 178 l 1
 452 178 l 1
 366 0 l 1
 203 0 l 1
 192 178 l 1
 81 178 l 2
 77 178 72 177 68 177 c 0
 29 177 25 204 25 214 c 0
311 414 m 1
 318 250 l 1
 376 250 l 1
 453 414 l 1
 311 414 l 1
321 125 m 1
 342 178 l 1
 322 178 l 1
 321 125 l 1
487 250 m 1
 651 250 l 1
 643 414 l 1
 565 414 l 1
 487 250 l 1
600 487 m 1
 639 487 l 1
 637 569 l 1
 600 487 l 1
768 414 m 1
 777 250 l 1
 838 250 l 1
 916 414 l 1
 768 414 l 1
780 178 m 1
 781 125 l 1
 804 178 l 1
 780 178 l 1
EndSplineSet
EndChar

StartChar: uni20A6
Encoding: 8358 8358 328
Width: 825
Flags: HW
TeX: 694 0
ItalicCorrection: 86
HStem: 0 21G<108 235.27 520.045 722.27> 178 72<-1.625 145 284 451 604 633 772 918.968> 414 73<49.0723 195 335 379 533 683 822 968.67> 675 20G<250.769 453.058 738.673 866>
DStem2: 108 0 231 0 0.207912 0.978148<25.5731 181.803 281.129 423.041 523.554 612.603> 447 695 354 574 0.287042 -0.957918<89.2132 179.728 293.861 427.422 540.309 600.748> 595.493 0 718.165 0 0.207912 0.978148<122.681 181.908 281.235 423.147 523.451 710.481>
LayerCount: 2
Fore
SplineSet
-5 213 m 0
 -5 225 1 250 43 250 c 2
 161 250 l 1
 195 414 l 1
 89 414 l 2
 50 414 46 440 46 450 c 0
 46 462 51 487 93 487 c 2
 211 487 l 1
 255 695 l 1
 447 695 l 1
 510 487 l 1
 698 487 l 1
 743 695 l 1
 866 695 l 1
 822 487 l 1
 927 487 l 2
 967 487 972 461 972 450 c 0
 972 440 967 414 927 414 c 2
 806 414 l 1
 772 250 l 1
 876 250 l 2
 917 250 922 224 922 214 c 0
 922 203 917 178 877 178 c 2
 756 178 l 1
 718 0 l 1
 526 0 l 1
 473 178 l 1
 269 178 l 1
 231 0 l 1
 108 0 l 1
 145 178 l 1
 39 178 l 2
 -1 178 -5 204 -5 213 c 0
284 250 m 1
 451 250 l 1
 402 414 l 1
 319 414 l 1
 284 250 l 1
335 487 m 1
 379 487 l 1
 354 574 l 1
 335 487 l 1
533 414 m 1
 581 250 l 1
 648 250 l 1
 683 414 l 1
 533 414 l 1
604 178 m 1
 612 149 l 1
 621 120 l 1
 633 178 l 1
 604 178 l 1
EndSplineSet
EndChar

StartChar: uni20B2
Encoding: 8370 8370 329
Width: 856
Flags: HW
TeX: 750 55
ItalicCorrection: 117
HStem: -22 101<373.243 447 542 663.207> 233 95<594 694> 616 101<480.134 583 677 761.503>
VStem: 123 150<170.328 386.487>
DStem2: 440 -56 513 -56 0.207912 0.978148<15.1776 34.7124 153.257 310.545 407.627 687.047 805.383 823.94>
LayerCount: 2
Fore
SplineSet
123 244 m 0
 123 288 129 323 136 355 c 0
 216 712 530 712 604 717 c 1
 611 750 l 1
 684 750 l 1
 677 717 l 1
 737 715 802 710 914 668 c 1
 863 537 l 1
 812 573 763 609 655 616 c 1
 594 328 l 1
 851 328 l 1
 787 26 l 1
 735 10 627 -19 520 -21 c 1
 520 -22 l 1
 513 -56 l 1
 440 -56 l 1
 447 -22 l 1
 346 -15 123 -3 123 244 c 0
273 264 m 0
 273 116 378 88 469 79 c 1
 583 616 l 1
 523 609 332 598 281 340 c 0
 276 310 273 294 273 264 c 0
542 79 m 1
 573 80 627 86 665 95 c 1
 694 233 l 1
 574 233 l 1
 542 79 l 1
EndSplineSet
EndChar

StartChar: peso
Encoding: 61711 61711 330
Width: 718
Flags: HW
TeX: 694 0
ItalicCorrection: 80
HStem: -0 21G<108 259.27> 178 72<-1.625 145 309 532.625> 268 79<326 551.952> 608 87<382 595.952>
VStem: 626 139<429.12 581.84>
DStem2: 108 -0 255 -0 0.207912 0.978148<30.563 181.803 286.327 303.579 384.742 651.682>
LayerCount: 2
Fore
SplineSet
-5 213 m 0
 -5 225 1 250 43 250 c 2
 161 250 l 1
 255 694 l 1
 255 695 l 1
 539 695 l 2
 612 695 765 691 765 536 c 0
 765 464 735 369 656 317 c 0
 590 273 513 268 451 268 c 2
 313 268 l 1
 312 267 l 1
 309 250 l 1
 475 250 l 2
 496 250 508 251 519 244 c 0
 530 237 536 225 536 213 c 0
 536 204 532 178 492 178 c 2
 293 178 l 1
 255 -0 l 1
 108 -0 l 1
 145 178 l 1
 39 178 l 2
 -1 178 -5 204 -5 213 c 0
326 347 m 1
 433 347 l 2
 485 347 549 349 588 399 c 0
 618 438 626 507 626 526 c 0
 626 591 576 608 500 608 c 2
 382 608 l 1
 326 347 l 1
EndSplineSet
EndChar

StartChar: lira
Encoding: 8356 8356 331
Width: 813
Flags: HW
TeX: 694 0
HStem: -11 150<130.801 265> -11 92<430.011 576.392> 178 72<195.381 274 426 535.717> 367 73<235.126 314 467 575.817> 669 73<538.209 625.692>
VStem: 630 127<506.158 666.367>
DStem2: 233.329 -11 369.827 -11 0.207912 0.978148<154.915 193.326 295.355 386.512 489.727 662.979>
LayerCount: 2
Fore
SplineSet
71 42 m 0
 71 100 143 139 239 139 c 0
 248 139 256 138 265 138 c 1
 274 178 l 1
 239 178 l 2
 214 178 192 184 192 213 c 0
 192 228 200 250 240 250 c 2
 290 250 l 1
 314 367 l 1
 279 367 l 2
 270 367 261 367 252 371 c 0
 246 374 232 384 232 403 c 0
 232 418 240 440 280 440 c 2xbc
 330 440 l 1
 350 537 369 742 612 742 c 0
 707 742 757 668 757 576 c 0
 757 510 741 471 684 465 c 1
 652 469 639 482 639 508 c 0
 639 512 639 517 640 521 c 1
 615 521 l 1
 622 554 630 594 630 621 c 0
 630 659 615 669 596 669 c 0
 505 669 496 576 467 440 c 1
 533 440 l 2
 575 440 579 413 579 403 c 0
 579 393 573 367 535 367 c 2
 451 367 l 1
 426 250 l 1
 493 250 l 2
 535 250 539 223 539 213 c 0
 539 205 534 177 495 177 c 0
 491 177 486 178 482 178 c 2
 410 178 l 1
 406 156 399 134 390 113 c 1
 460 95 510 81 554 81 c 0x7c
 571 81 577 85 577 93 c 0
 577 106 568 110 564 139 c 1
 701 139 l 1xbc
 682 49 584 -11 487 -11 c 0x7c
 418 -11 331 16 307 23 c 1
 255 -7 193 -11 155 -11 c 0
 86 -11 71 21 71 42 c 0
EndSplineSet
EndChar

StartChar: uni211E
Encoding: 8478 8478 332
Width: 703
Flags: HW
TeX: 694 0
ItalicCorrection: 80
HStem: -0 21G<91 240.244 515.96 671> 311 73<317 412> 608 87<365 585.574>
VStem: 611 140<449.659 586.212>
DStem2: 91 -0 236 -0 0.207912 0.978148<30.1472 348.073 422.597 651.682> 296 104 339 30 0.826032 0.563623<0 163 325.083 534.953>
LayerCount: 2
Fore
SplineSet
91 -0 m 1
 238 694 l 1
 239 695 l 1
 498 695 l 2
 587 695 751 693 751 542 c 0
 751 447 688 346 551 321 c 1
 564 288 l 1
 742 410 l 1
 786 335 l 1
 594 205 l 1
 671 -0 l 1
 523 -0 l 1
 479 125 l 1
 339 30 l 1
 296 104 l 1
 449 209 l 1
 412 311 l 1
 302 311 l 1
 236 -0 l 1
 91 -0 l 1
317 384 m 1
 430 384 l 2
 520 384 582 396 605 487 c 0
 607 496 611 515 611 534 c 0
 611 596 563 608 488 608 c 2
 365 608 l 1
 317 384 l 1
EndSplineSet
EndChar

StartChar: uni203D
Encoding: 8253 8253 333
Width: 519
Flags: HW
TeX: 694 0
ItalicCorrection: 118
HStem: 0 131<222 325> 675 20G<341 473>
VStem: 194 159
DStem2: 238 217 358 217 0.233911 0.972258<28.0694 169.344 455.92 487.86>
LayerCount: 2
Fore
SplineSet
187 595 m 1
 233 614 280 629 330 634 c 1
 341 694 l 1
 342 695 l 1
 473 695 l 1
 458 633 l 1
 526 621 568 596 568 533 c 0
 568 482 539 436 503 411 c 1
 458 384 433 369 404 342 c 0
 379 318 384 326 358 217 c 1
 238 217 l 1
 252 284 249 276 265 312 c 0
 277 339 270 313 316 559 c 1
 260 545 234 524 201 500 c 1
 187 595 l 1
EndSplineSet
Refer: 56 46 S 1 0 0 1 108 -0 2
EndChar

StartChar: uni2E18
Encoding: 11800 11800 334
Width: 519
Flags: HW
TeX: 527 166
HStem: -167 21G<158 289> 397 131<306 409>
VStem: 278 159
DStem2: 158 -167 288.787 -167 0.207912 0.978148<27.2364 61.5996 171.539 220.905 369.431 488.138>
LayerCount: 2
Fore
SplineSet
61 -10 m 0
 61 34 80 85 119 116 c 1
 240 202 241 237 257 311 c 1
 377 311 l 1
 315 -25 l 1
 375 -8 397 8 429 27 c 1
 443 -67 l 1
 411 -79 354 -97 301 -103 c 1
 289 -166 l 1
 289 -167 l 1
 158 -167 l 1
 172 -107 l 1
 127 -103 61 -87 61 -10 c 0
197 -4 m 1
 209 48 l 1
 201 19 l 1
 197 -4 l 1
EndSplineSet
Refer: 56 46 S 1 0 0 1 192 397 2
EndChar

StartChar: dong
Encoding: 8363 8363 335
Width: 561
Flags: HW
TeX: 750 0
ItalicCorrection: 118
HStem: -83 83<60.3953 612.75> 44 73<183.5 310.91> 466 73<296.9 413.75> 600 73<327 481 631 701>
VStem: 74 135<134.972 325.654>
DStem2: 333.242 -84 469.242 -84 0.207912 0.978148<171.404 195.3 224.09 543.805 581.319 699.774 802.365 853.357>
LayerCount: 2
Fore
SplineSet
55 -42 m 0
 55 -25 66 -5 91 -1 c 0
 100 0 108 0 117 0 c 2
 564 0 l 2
 609 0 618 -24 618 -41 c 0
 618 -53 612 -84 566 -84 c 0
 562 -84 558 -83 554 -83 c 2
 104 -83 l 2
 59 -83 55 -52 55 -42 c 0
74 194 m 0
 74 225 79 256 85 286 c 0
 95 333 133 539 324 539 c 0
 404 539 443 498 457 484 c 1
 481 600 l 1
 312 600 l 1
 327 673 l 1
 497 673 l 1
 514 750 l 1
 647 750 l 1
 631 673 l 1
 716 673 l 1
 701 600 l 1
 615 600 l 1
 499 56 l 1
 363 56 l 1
 374 107 l 1
 345 84 293 44 217 44 c 0
 150 44 74 74 74 194 c 0
209 193 m 0
 209 132 248 117 287 117 c 0
 326 117 354 133 385 159 c 1
 444 438 l 1
 424 457 403 466 372 466 c 0
 312 466 281 435 272 424 c 0
 233 378 209 235 209 193 c 0
EndSplineSet
EndChar

StartChar: trademark
Encoding: 8482 8482 336
Width: 733
Flags: HW
TeX: 750 0
ItalicCorrection: 524
HStem: 478 21G<565.5 590.5> 678 72<78.4114 178 316 424.93>
VStem: 119 137<364.477 428.017>
LayerCount: 2
Fore
SplineSet
73 710 m 1
 73 718 l 1
 74 726 86 750 150 750 c 2
 360 750 l 2
 404 750 418 741 433 727 c 1
 437 746 449 773 504 773 c 0
 572 773 577 728 580 718 c 0
 588 694 597 669 604 644 c 1
 685 750 689 773 748 773 c 0
 775 773 816 763 816 735 c 0
 816 731 815 726 814 722 c 2
 744 394 l 1
 744 394 742 353 675 353 c 0
 640 353 607 367 607 391 c 0
 607 400 611 411 627 488 c 1
 614 483 602 478 579 478 c 0
 552 478 535 486 521 495 c 1
 496 378 498 380 489 371 c 0
 475 358 449 353 430 353 c 0
 405 353 363 360 363 392 c 0
 363 394 363 397 364 400 c 2
 426 693 l 1
 403 680 391 678 357 678 c 2
 316 678 l 1
 256 395 l 1
 256 395 253 353 186 353 c 0
 143 353 119 372 119 389 c 0
 119 406 131 456 178 678 c 1
 151 678 l 2
 87 678 77 699 73 710 c 1
EndSplineSet
EndChar

StartChar: uni2031
Encoding: 8241 8241 337
Width: 1992
Flags: HW
TeX: 750 55
ItalicCorrection: 28
HStem: -56 73<751.333 834.65 1232.94 1316.56 1713.94 1797.65> 274 73<795.701 882.658 1276.7 1363.66 1760.69 1845.51> 347 73<291.939 376.033> 677 73<337.239 423.17>
VStem: 169 116<426.739 585.537> 433 115<501.788 668.373> 628 117<23.7392 185.438> 892 115<98.6515 265.697> 1110 116<23.7392 185.266> 1373 115<96.4633 265.697> 1591 116<23.7392 181.822> 1855 115<98.6515 265.373>
DStem2: 221 26 280 -33 0.694776 0.719226<-43.4444 1018.02>
LayerCount: 2
Fore
SplineSet
1110 76 m 0
 1110 113 1119 150 1123 168 c 0
 1156 293 1236 347 1343 347 c 0
 1416 347 1488 322 1488 217 c 0
 1488 181 1480 145 1476 127 c 0
 1451 31 1393 -56 1258 -56 c 0
 1184 -56 1110 -29 1110 76 c 0
1226 65 m 0
 1226 27 1252 17 1273 17 c 0
 1353 17 1373 177 1373 210 c 0
 1373 265 1345 274 1326 274 c 0
 1317 274 1288 272 1269 243 c 0
 1250 214 1226 96 1226 65 c 0
1591 76 m 0
 1591 113 1601 150 1605 168 c 0
 1630 265 1693 347 1825 347 c 0
 1898 347 1970 322 1970 217 c 0
 1970 181 1961 145 1957 127 c 0
 1933 31 1874 -56 1739 -56 c 0
 1665 -56 1591 -29 1591 76 c 0
1707 65 m 0
 1707 27 1733 17 1754 17 c 0
 1834 17 1855 177 1855 210 c 0
 1855 265 1826 274 1807 274 c 0
 1798 274 1770 272 1751 243 c 0
 1732 214 1707 96 1707 65 c 0
EndSplineSet
Refer: 47 37 S 1 0 0 1 0 0 2
EndChar

StartChar: uni2029
Encoding: 8233 8233 338
Width: 519
Flags: HW
TeX: 694 166
HStem: -166 21G<317.5 345> 611 84<527 621.227>
DStem2: 275.89 -166 361.285 -166 0.207912 0.978148<42.6182 399.735>
LayerCount: 2
Fore
SplineSet
154 423 m 0
 154 529 245 695 408 695 c 2
 572 695 l 2
 619 695 626 670 626 653 c 0
 626 639 620 611 574 611 c 2
 527 611 l 1
 370 -125 l 2
 368 -132 362 -166 328 -166 c 0
 307 -166 286 -150 286 -125 c 0
 286 -116 288 -108 290 -100 c 2
 359 225 l 1
 178 255 154 371 154 423 c 0
EndSplineSet
EndChar

StartChar: uni0E3F
Encoding: 3647 3647 339
Width: 733
Flags: HW
TeX: 750 55
ItalicCorrection: 80
HStem: 0 87<252 298 390 504.27> 325 73<318 367 456 534.376> 608 87<363 428 519 579.346>
VStem: 577 140<151.365 286.624> 615 139<468.843 577.523>
DStem2: 79.0968 -56 221.604 -56 0.207912 0.978148<175.824 419.226 493.75 708.517> 287 -56 359 -56 0.207912 0.978148<14.9696 57.0633 161.29 389.307 480.194 678.806 782.824 823.94>
LayerCount: 2
Fore
SplineSet
91 0 m 1
 238 694 l 1
 239 695 l 1
 446 695 l 1
 458 750 l 1
 531 750 l 1
 519 695 l 1
 598 695 753 691 754 552 c 0xe8
 754 498 730 451 692 418 c 0
 654 385 609 373 571 363 c 1
 613 356 717 337 717 231 c 0
 717 175 685 93 614 48 c 0
 541 2 455 0 388 -0 c 2
 371 -0 l 1
 359 -56 l 1
 287 -56 l 1
 298 0 l 1
 91 0 l 1
252 87 m 1
 317 87 l 1
 367 325 l 1
 303 325 l 1
 252 87 l 1
318 398 m 1
 383 398 l 1
 428 608 l 1
 363 608 l 1
 318 398 l 1
390 87 m 1
 550 87 577 170 577 226 c 0xf0
 577 315 490 322 440 325 c 1
 390 87 l 1
456 399 m 1
 603 409 615 510 615 530 c 0xe8
 615 594 546 603 500 607 c 1
 456 399 l 1
EndSplineSet
EndChar

StartChar: uni2116
Encoding: 8470 8470 340
Width: 917
Flags: HW
TeX: 694 0
ItalicCorrection: 86
HStem: -0 21G<91 218.242 324 522.259> 158 73<629 857> 278 78<728 795.1> 454 74<780.422 808.996> 675 20G<233.77 432 542 666>
VStem: 319 119<134.297 559.125> 659 107<356.223 447.109> 809 104<359.038 453.215>
DStem2: 91 -0 214 -0 0.207912 0.978148<25.5731 599.055> 394.943 -0 518 -0 0.207912 0.978148<134.949 709.409>
LayerCount: 2
Fore
SplineSet
91 -0 m 1
 238 695 l 1
 431 695 l 1
 433 621 438 485 438 377 c 0
 438 230 430 181 423 132 c 1
 542 694 l 1
 543 695 l 1
 666 695 l 1
 518 -0 l 1
 326 -0 l 1
 322 131 319 203 319 306 c 2
 319 360 l 1
 321 481 328 521 333 561 c 1
 214 -0 l 1
 91 -0 l 1
613 158 m 1
 629 231 l 1
 873 231 l 1
 857 158 l 1
 613 158 l 1
659 359 m 0
 659 402 682 528 815 528 c 0
 863 528 913 510 913 440 c 0
 913 382 890 278 760 278 c 0
 696 278 659 304 659 359 c 0
766 369 m 0
 766 359 774 356 779 356 c 0
 797 356 796 378 799 398 c 1
 802 411 809 425 809 438 c 0
 809 451 804 452 800 454 c 1
 796 454 l 1
 775 451 777 409 772 392 c 0
 767 377 766 373 766 369 c 0
EndSplineSet
EndChar

StartChar: uni2052
Encoding: 8274 8274 341
Width: 550
Flags: HW
TeX: 750 0
ItalicCorrection: 128
HStem: -0 215<278.604 447.182> 536 215<259.203 428.354>
DStem2: 84 76 278 200 0.588372 0.808591<-35.1587 207.204 214.409 586.26 591.26 837.225>
LayerCount: 2
Fore
SplineSet
70 42 m 0
 70 57 79 69 84 76 c 2
 429 550 l 1
 416 539 411 536 389 536 c 2
 273 536 l 2
 237 536 225 560 225 575 c 0
 225 592 233 623 251 708 c 0
 259 743 276 751 305 751 c 2
 409 751 l 2
 424 751 447 753 461 730 c 0
 465 723 466 715 466 708 c 0
 466 702 444 583 432 554 c 1
 571 745 569 750 597 750 c 0
 618 750 638 734 638 709 c 0
 638 694 629 682 624 675 c 2
 278 200 l 1
 291 211 297 215 319 215 c 2
 430 215 l 2
 476 215 483 187 483 172 c 0
 483 164 480 154 479 148 c 0
 452 21 456 0 403 -0 c 2
 323 -0 l 2
 268 0 257 -1 243 28 c 0
 241 33 241 37 241 42 c 0
 241 54 267 176 274 194 c 1
 137 6 139 1 111 1 c 0
 90 1 70 17 70 42 c 0
EndSplineSet
EndChar

StartChar: estimated
Encoding: 8494 8494 342
Width: 761
Flags: HW
TeX: 694 0
ItalicCorrection: 112
HStem: -11 73<318.575 603.043> 361 54<265 683.489> 639 73<422.341 622.719>
VStem: 92 143<143.881 359.183> 686 135<416.403 575.342>
LayerCount: 2
Fore
SplineSet
92 240 m 0
 92 319 116 434 170 523 c 0
 231 624 335 712 530 712 c 2
 540 712 l 2
 632 712 821 708 821 488 c 0
 821 434 807 362 806 361 c 1
 251 361 l 1
 243 323 235 282 235 243 c 0
 235 98 328 62 429 62 c 0
 566 62 681 104 743 129 c 1
 732 38 l 1
 680 20 546 -11 407 -11 c 0
 175 -11 92 89 92 240 c 0
265 415 m 1
 681 415 l 1
 684 438 686 460 686 483 c 0
 686 608 608 639 534 639 c 0
 372 639 296 526 265 415 c 1
EndSplineSet
EndChar

StartChar: openbullet
Encoding: 9702 9702 343
Width: 550
Flags: HW
TeX: 475 -49
HStem: 50 83<214.445 384.214> 394 84<275.169 448.321>
VStem: 110 84<154.046 303.983> 467 83<222.417 373.441>
LayerCount: 2
Fore
SplineSet
110 209 m 0
 110 291 150 478 368 478 c 0
 481 478 550 423 550 319 c 0
 550 232 507 50 292 50 c 0
 179 50 110 105 110 209 c 0
194 209 m 0
 194 166 212 133 292 133 c 0
 382 133 438 172 460 264 c 0
 466 291 467 308 467 319 c 0
 467 364 447 394 367 394 c 0
 277 394 223 355 201 263 c 0
 195 237 194 220 194 209 c 0
EndSplineSet
EndChar

StartChar: uni2120
Encoding: 8480 8480 344
Width: 733
Flags: HW
TeX: 750 0
ItalicCorrection: 524
HStem: 375 73<7.93114 249.056> 478 21G<565.5 590.5> 545 73<184.212 261.966> 678 72<190.885 422.975>
VStem: 47 137<620.672 676.231> 362 133<363.086 422.767>
LayerCount: 2
Fore
SplineSet
2 412 m 0
 2 415 2 418 3 420 c 0
 17 442 40 448 83 448 c 2
 238 448 l 1
 259 474 263 516 264 529 c 1
 263 545 l 1
 199 545 l 2
 138 545 47 552 47 624 c 0
 47 654 58 694 86 717 c 0
 127 750 194 750 229 750 c 2
 366 750 l 2
 393 750 412 749 434 734 c 1
 434 734 439 773 503 773 c 0
 571 773 575 730 579 718 c 0
 587 694 597 669 604 644 c 1
 685 750 689 773 748 773 c 0
 775 773 815 763 815 735 c 0
 815 731 815 726 814 722 c 2
 744 394 l 1
 744 394 741 353 674 353 c 0
 639 353 607 367 607 391 c 0
 607 400 610 411 626 488 c 1
 613 483 602 478 579 478 c 0
 552 478 535 486 521 495 c 1
 499 389 499 387 495 380 c 0
 484 360 453 353 430 353 c 0
 386 353 362 373 362 389 c 0
 362 395 364 404 369 425 c 1
 329 381 285 375 204 375 c 2
 79 375 l 2
 18 375 2 395 2 412 c 0
184 618 m 1
 252 618 l 2
 361 618 383 588 398 560 c 1
 424 688 l 1
 402 679 389 677 367 677 c 0
 360 677 352 678 345 678 c 2
 216 678 l 2
 205 678 196 676 190 658 c 0
 186 645 184 632 184 618 c 1
EndSplineSet
EndChar

StartChar: uni2045
Encoding: 8261 8261 345
Width: 397
Flags: HW
TeX: 750 222
ItalicCorrection: 31
HStem: -295 73<179.076 278> 678 72<337.998 485>
VStem: 26 136<-204.854 -28.445> 138 137<339.212 502.918>
LayerCount: 2
Fore
SplineSet
26 -141 m 0xe0
 26 -119 33 -96 70 79 c 0
 75 103 79 128 90 150 c 0
 126 221 220 259 306 263 c 1
 306 264 l 1
 214 268 138 313 138 386 c 0
 138 408 138 404 183 614 c 0
 190 646 194 709 304 736 c 0
 363 750 430 750 500 750 c 1
 485 678 l 1
 422 678 l 2
 327 678 327 648 320 615 c 0
 273 395 275 409 275 393 c 0xd0
 275 356 297 308 405 300 c 1
 389 227 l 1
 317 226 251 193 224 143 c 0
 213 123 210 96 169 -95 c 0
 165 -112 162 -128 162 -145 c 0xe0
 162 -181 176 -222 229 -222 c 2
 293 -222 l 1
 278 -295 l 1
 123 -294 26 -233 26 -141 c 0xe0
EndSplineSet
EndChar

StartChar: uni2046
Encoding: 8262 8262 346
Width: 397
Flags: HW
TeX: 750 222
ItalicCorrection: 134
HStem: -222 72<23 169.909> 678 72<214 336.014>
VStem: 232 137<29.9226 188.894> 341 139<544.661 669.86>
LayerCount: 2
Fore
SplineSet
7 -222 m 1
 23 -150 l 1
 85 -150 l 2
 175 -150 179 -126 187 -87 c 0
 228 112 232 125 232 135 c 0xe0
 232 172 210 221 103 228 c 1
 118 300 l 1
 191 301 258 334 284 386 c 0
 297 411 341 637 341 643 c 0
 341 677 291 678 263 678 c 2
 198 678 l 1
 214 750 l 1xd0
 257 750 l 2
 386 750 480 732 480 659 c 0xd0
 480 649 434 411 417 378 c 0
 379 303 279 267 201 264 c 1
 201 263 l 1
 293 259 369 215 369 142 c 0
 369 120 367 124 324 -86 c 0
 318 -116 313 -181 204 -208 c 0
 145 -222 77 -222 7 -222 c 1
EndSplineSet
EndChar

StartChar: cent
Encoding: 162 162 347
Width: 550
Flags: HW
TeX: 555 83
ItalicCorrection: 88
HStem: -10 80<239.26 266 356 456.46> 410 79<445 516.163>
VStem: 78 135<96.2637 284.578>
DStem2: 251 -83 324 -83 0.207912 0.978148<15.1776 74.5235 169.531 501.893 599.835 658.411>
LayerCount: 2
Fore
SplineSet
78 163 m 0
 78 256 124 475 372 488 c 1
 373 489 l 1
 388 561 l 1
 460 561 l 1
 445 489 l 1
 510 486 540 478 607 446 c 1
 571 351 l 1
 517 391 496 406 428 410 c 1
 356 68 l 1
 446 80 474 97 538 133 c 1
 526 35 l 1
 452 4 401 -5 339 -10 c 1
 324 -83 l 1
 251 -83 l 1
 266 -10 l 1
 201 -4 78 12 78 163 c 0
213 163 m 0
 213 89 261 75 283 70 c 1
 355 408 l 1
 248 386 234 290 217 206 c 0
 215 193 213 180 213 163 c 0
EndSplineSet
EndChar

StartChar: currency
Encoding: 164 164 348
Width: 808
Flags: HW
TeX: 607 0
ItalicCorrection: 100
HStem: -11 83<293.296 537.78> 535 84<399.22 643.531>
VStem: 143 84<131.49 341.574> 710 83<267.056 475.188>
DStem2: 315 566 250 512 0.61955 -0.784957<-141.299 3.75055 600.353 743.199>
LayerCount: 2
Fore
SplineSet
30 -24 m 1
 33 5 34 1 165 107 c 1
 148 149 143 174 143 216 c 0
 143 293 170 429 250 512 c 1
 193 589 169 606 169 632 c 0
 169 656 189 673 210 673 c 0
 235 673 236 667 315 566 c 1
 334 576 400 619 527 619 c 0
 594 619 666 608 719 565 c 1
 849 671 846 673 866 673 c 0
 891 673 907 652 907 631 c 0
 907 606 897 604 771 500 c 1
 788 459 793 427 793 391 c 0
 793 314 766 178 686 95 c 1
 686 94 l 1
 767 -6 768 -8 768 -24 c 0
 768 -45 751 -65 726 -65 c 0
 700 -65 686 -41 677 -29 c 2
 622 42 l 1
 558 3 481 -11 410 -11 c 0
 343 -11 271 0 218 42 c 1
 217 42 l 1
 90 -63 93 -65 71 -65 c 0
 50 -65 30 -48 30 -24 c 1
227 216 m 0
 227 129 269 72 408 72 c 0
 563 72 662 139 699 306 c 0
 705 334 710 362 710 391 c 0
 710 477 669 535 526 535 c 1
 492 534 363 537 288 426 c 0
 241 357 227 263 227 216 c 0
EndSplineSet
EndChar

StartChar: yen
Encoding: 165 165 349
Width: 733
Flags: HW
TeX: 694 0
ItalicCorrection: 175
HStem: -0 21G<293 442.27> 178 72<15.2234 331 492 808.119> 414 73<72.6022 251 458 468 688 858.355> 675 20G<151 337.423 699.019 877>
DStem2: 530 487 621 414 0.673555 0.739138<0 7.33642 106.422 279.695>
LayerCount: 2
Fore
SplineSet
12 214 m 0
 12 247 46 250 59 250 c 2
 347 250 l 1
 349 260 351 265 351 271 c 0
 351 285 340 305 287 414 c 1
 111 414 l 2
 88 414 85 416 72 424 c 1
 65 435 62 443 62 450 c 0
 62 460 67 487 111 487 c 2
 251 487 l 1
 151 695 l 1
 328 695 l 1
 426 487 l 1
 530 487 l 1
 717 695 l 1
 877 695 l 1
 688 487 l 1
 813 487 l 2
 834 487 861 482 861 450 c 0
 861 416 828 414 817 414 c 2
 621 414 l 1
 497 278 l 1
 492 250 l 1
 764 250 l 2
 775 250 811 250 811 214 c 0
 811 187 785 179 784 179 c 0
 776 177 768 178 760 178 c 2
 476 178 l 1
 438 -0 l 1
 293 -0 l 1
 331 178 l 1
 53 178 l 2
 19 178 12 202 12 214 c 0
458 414 m 1
 461 403 l 1
 468 414 l 1
 458 414 l 1
EndSplineSet
EndChar

StartChar: brokenbar
Encoding: 166 166 350
Width: 183
Flags: HW
TeX: 750 222
ItalicCorrection: 98
VStem: 11 272
DStem2: 1.35781 -222 86.4977 -222 0.207912 0.978148<42.6181 392.078 618.12 967.872>
LayerCount: 2
Fore
SplineSet
11 -181 m 0
 11 -170 16 -153 19 -139 c 2
 76 130 l 2
 79 142 82 187 122 187 c 0
 143 187 163 171 163 145 c 0
 163 134 159 117 156 103 c 2
 95 -182 l 2
 93 -189 87 -222 53 -222 c 0
 32 -222 11 -206 11 -181 c 0
131 382 m 0
 131 390 133 394 139 423 c 2
 199 709 l 2
 199 710 205 750 242 750 c 0
 263 750 283 733 283 708 c 0
 283 700 283 699 276 666 c 2
 216 388 l 2
 214 378 210 341 173 341 c 0
 152 341 131 357 131 382 c 0
EndSplineSet
EndChar

StartChar: dieresis.ts1
Encoding: 62030 62030 351
Width: 550
Flags: HW
TeX: 694 0
ItalicCorrection: 83
HStem: 595 100<244 365 458 579>
LayerCount: 2
Fore
SplineSet
223 595 m 1
 244 695 l 1
 386 695 l 1
 365 595 l 1
 223 595 l 1
437 595 m 1
 458 695 l 1
 600 695 l 1
 579 595 l 1
 437 595 l 1
EndSplineSet
EndChar

StartChar: copyright
Encoding: 169 169 352
Width: 1143
Flags: HW
TeX: 750 222
HStem: -245 83<361.097 698.751> -22 100<531.684 782.03> 408 101<591.677 820.893> 689 84<555.852 891.059>
VStem: 99 84<-8.08536 280.455> 310 150<135.239 290.8> 1070 84<250.894 536.793>
LayerCount: 2
Fore
SplineSet
310 185 m 0
 310 282 363 376 433 428 c 0
 507 483 610 509 750 509 c 0
 811 509 849 504 912 484 c 1
 860 352 l 1
 824 394 791 408 730 408 c 0
 630 408 511 386 470 264 c 0
 464 246 460 226 460 206 c 0
 460 94 572 78 665 78 c 0
 756 78 784 99 839 128 c 1
 829 56 l 1
 824 16 l 1
 752 -13 729 -22 634 -22 c 0
 460 -22 310 19 310 185 c 0
EndSplineSet
Refer: 299 9675 S 1 0 0 1 0 0 3
EndChar

StartChar: ordfeminine
Encoding: 170 170 353
Width: 489
Flags: HW
TeX: 750 0
ItalicCorrection: 111
HStem: 219 73<4.375 434.572> 364 73<112 219.953> 700 67<214.598 320.734>
VStem: 323 133<532.671 698.442>
LayerCount: 2
Fore
SplineSet
1 255 m 0
 1 269 10 288 32 291 c 0
 39 292 47 292 54 292 c 2
 379 292 l 2
 398 292 409 293 419 287 c 0
 431 280 438 268 438 255 c 0
 438 245 434 219 393 219 c 2
 45 219 l 2
 5 219 1 246 1 255 c 0
49 445 m 0
 49 481 65 494 123 505 c 0
 192 518 246 518 299 520 c 1
 319 615 323 630 323 657 c 0
 323 684 317 700 293 700 c 0
 205 700 150 625 144 619 c 1
 158 727 152 717 178 731 c 0
 228 759 261 765 315 767 c 1
 316 767 l 2
 418 767 456 718 456 645 c 0
 456 610 444 560 405 375 c 1
 271 375 l 1
 284 438 l 1
 256 407 207 364 138 364 c 0
 86 364 49 396 49 445 c 0
182 458 m 0
 182 448 193 437 213 437 c 0
 254 437 281 479 282 480 c 1
 209 476 182 475 182 458 c 0
EndSplineSet
EndChar

StartChar: copyleft
Encoding: 61713 61713 354
Width: 1143
Flags: HW
TeX: 750 222
HStem: -245 83<361.097 698.751> -23 101<398.794 653.349> 408 101<483.627 715.169> 689 84<555.852 891.059>
VStem: 99 84<-8.08536 280.455> 784 150<195.292 348.621> 1070 84<250.894 536.793>
LayerCount: 2
Fore
SplineSet
323 17 m 1
 357 128 l 1
 402 95 425 78 508 78 c 0
 574 78 647 85 704 126 c 0
 756 163 784 226 784 280 c 0
 784 387 684 408 583 408 c 0
 510 408 476 385 430 353 c 1
 435 484 l 1
 503 503 540 509 604 509 c 0
 783 509 934 470 934 302 c 0
 934 218 886 11 589 -18 c 0
 550 -22 531 -23 492 -23 c 0
 403 -23 376 -10 323 17 c 1
EndSplineSet
Refer: 299 9675 S 1 0 0 1 0 0 3
EndChar

StartChar: logicalnot
Encoding: 172 172 355
Width: 672
Flags: HW
TeX: 475 0
ItalicCorrection: 69
HStem: 320 83<143.531 594>
LayerCount: 2
Fore
SplineSet
138 361 m 0
 138 372 144 403 187 403 c 2
 637 403 l 2
 682 403 686 373 686 361 c 0
 686 349 688 360 632 97 c 0
 630 88 623 53 589 53 c 0
 568 53 547 70 547 95 c 0
 547 106 547 98 594 320 c 1
 202 320 l 2
 197 320 192 319 187 319 c 0
 143 319 138 351 138 361 c 0
EndSplineSet
EndChar

StartChar: uni2117
Encoding: 8471 8471 356
Width: 1143
Flags: HW
TeX: 750 222
HStem: -245 83<361.097 698.751> -0 21G<326 475.146> 164 79<522 765.072> 400 86<556 790.346> 689 84<555.852 891.059>
VStem: 99 84<-8.08536 280.455> 807 141<281.209 382.102> 1070 84<250.894 536.793>
DStem2: 273.924 -245 418.924 -245 0.207912 0.978148<280.621 448.106 528.914 689.552>
LayerCount: 2
Fore
SplineSet
326 -0 m 1
 429 486 l 1
 724 486 l 2
 847 486 948 460 948 354 c 0
 948 299 919 249 876 217 c 0
 808 167 711 164 658 164 c 2
 505 164 l 1
 471 -0 l 1
 326 -0 l 1
522 243 m 1
 630 243 l 2
 672 243 728 244 761 261 c 0
 788 275 807 307 807 340 c 0
 807 396 751 400 669 400 c 2
 556 400 l 1
 522 243 l 1
EndSplineSet
Refer: 299 9675 S 1 0 0 1 0 0 3
EndChar

StartChar: registered
Encoding: 174 174 357
Width: 1143
Flags: HW
TeX: 750 222
HStem: -245 83<361.097 698.751> -0 21G<326 475.251 746.923 906> 207 73<530 634> 400 86<556 795.955> 689 84<555.852 891.059>
VStem: 99 84<-8.08536 280.455> 810 141<306.174 384.651> 1070 84<250.894 536.793>
DStem2: 273.924 -245 418.924 -245 0.207912 0.978148<280.621 492.245 566.769 689.552> 772 215 634 207 0.528934 -0.848663<0 175.586>
LayerCount: 2
Fore
SplineSet
326 -0 m 1
 429 486 l 1
 706 486 l 2
 804 486 951 478 951 363 c 0
 951 274 855 227 772 215 c 1
 906 -0 l 1
 759 -0 l 1
 634 207 l 1
 515 207 l 1
 471 -0 l 1
 326 -0 l 1
530 280 m 1
 651 280 l 2
 688 280 752 278 782 300 c 0
 798 311 810 330 810 350 c 0
 810 398 750 400 678 400 c 2
 556 400 l 1
 530 280 l 1
EndSplineSet
Refer: 299 9675 S 1 0 0 1 0 0 3
EndChar

StartChar: macron.uc
Encoding: 65547 -1 358
Width: 856
Flags: HW
TeX: 694 0
HStem: 611 84<235.298 895.552>
LayerCount: 2
Fore
SplineSet
230 653 m 0
 230 664 235 695 280 695 c 2
 851 695 l 2
 896 695 901 663 901 653 c 0
 901 640 896 611 849 611 c 2
 281 611 l 2
 236 611 230 639 230 653 c 0
EndSplineSet
EndChar

StartChar: degree
Encoding: 176 176 359
Width: 367
Flags: HW
TeX: 694 0
HStem: 450 84<263.369 334.4> 611 84<274.6 344.988>
VStem: 179 84<536.682 597.701> 346 84<545.126 609.307>
LayerCount: 2
Fore
SplineSet
179 548 m 0
 179 597 208 695 322 695 c 0
 387 695 430 660 430 598 c 0
 430 548 401 450 287 450 c 0
 221 450 179 486 179 548 c 0
263 538 m 1
 270 536 277 534 289 534 c 0
 335 534 345 571 346 596 c 1
 345 607 l 1
 338 609 332 611 320 611 c 0
 274 611 264 574 263 549 c 1
 263 538 l 1
EndSplineSet
EndChar

StartChar: plusminus
Encoding: 177 177 360
Width: 672
Flags: HW
TeX: 538 11
ItalicCorrection: 25
HStem: 80 83<91.9498 327 412 629.627> 314 83<141.336 359 462 679.664>
VStem: 425 77<523.693 624.339>
DStem2: 309.262 80 394.358 80 0.207912 0.978148<102.547 239.228 341.829 536.424>
LayerCount: 2
Fore
SplineSet
86 122 m 0
 86 134 93 154 116 161 c 0
 125 164 135 163 144 163 c 2
 327 163 l 1
 327 164 l 1
 359 314 l 1
 196 314 l 2
 188 314 178 313 170 315 c 0
 153 318 136 332 136 355 c 0
 136 367 142 397 186 397 c 2
 377 397 l 1
 422 608 421 603 425 610 c 0
 437 628 453 630 460 630 c 0
 481 630 502 613 502 588 c 0
 502 576 499 569 462 397 c 1
 626 397 l 2
 634 397 643 398 651 396 c 0
 668 393 685 378 685 355 c 0
 685 344 680 314 636 314 c 2
 444 314 l 1
 412 163 l 1
 585 163 l 2
 631 163 635 133 635 122 c 0
 635 111 630 80 584 80 c 2
 141 80 l 1
 123 81 l 1
 102 84 86 102 86 122 c 0
EndSplineSet
EndChar

StartChar: twosuperior
Encoding: 178 178 361
Width: 489
Flags: HW
TeX: 750 0
ItalicCorrection: 128
HStem: 347 107<242 506> 672 101<275.778 410.792>
VStem: 422 144<577.844 661.395>
LayerCount: 2
Fore
SplineSet
128 347 m 1
 150 453 l 1
 260 506 l 1
 325 532 422 556 422 624 c 0
 422 643 410 672 353 672 c 0
 306 672 279 654 245 629 c 1
 198 720 l 1
 264 755 313 773 391 773 c 0
 519 773 566 707 566 644 c 0
 566 532 451 542 366 506 c 2
 242 454 l 1
 376 454 l 1
 398 455 l 1
 529 455 l 1
 506 347 l 1
 128 347 l 1
EndSplineSet
EndChar

StartChar: threesuperior
Encoding: 179 179 362
Width: 489
Flags: HW
TeX: 750 0
ItalicCorrection: 128
HStem: 336 95<152 384.364> 523 73<309 388.049> 683 90<260.115 409.858>
VStem: 398 147<442.603 519.277> 411 142<618.841 680.982>
LayerCount: 2
Fore
SplineSet
117 335 m 1
 152 428 l 1
 288 431 l 1
 327 431 l 2
 345 431 398 430 398 492 c 0xf0
 398 518 374 523 348 523 c 2
 294 523 l 1
 309 596 l 1
 310 596 l 1
 344 599 389 599 408 645 c 0
 410 650 411 656 411 662 c 0
 411 680 396 683 376 683 c 0xe8
 326 683 287 671 251 658 c 1
 217 736 l 1
 276 760 331 773 397 773 c 0
 481 773 553 754 553 676 c 0xe8
 553 607 501 575 472 560 c 1
 502 552 545 535 545 490 c 0
 545 463 523 403 467 371 c 0
 398 331 319 337 216 336 c 1
 179 336 l 1
 117 335 l 1
EndSplineSet
EndChar

StartChar: uni00B5
Encoding: 181 181 364
Width: 561
Flags: HW
TeX: 475 166
ItalicCorrection: 71
HStem: -167 21G<23 164.231> -11 61<215.844 298.834> 0 21G<366 504.28> 452 20G<154.743 296 463 601>
DStem2: 23 -167 160 -167 0.207912 0.978148<28.4839 192.535 281.935 653.312> 330.503 -167 464.503 -167 0.207912 0.978148<198.591 251.539 265.617 623.377>
LayerCount: 2
Fore
SplineSet
23 -167 m 1
 159 472 l 1
 296 472 l 1
 222 126 l 2
 217 99 215 89 215 80 c 0xd0
 215 56 233 50 269 50 c 0xd0
 345 50 383 115 395 152 c 0
 400 167 463 471 463 472 c 1
 601 472 l 1
 500 0 l 1
 366 0 l 1xb0
 383 79 l 1
 309 -9 238 -11 193 -11 c 1
 160 -167 l 1
 23 -167 l 1
EndSplineSet
EndChar

StartChar: paragraph
Encoding: 182 182 365
Width: 672
Flags: HW
TeX: 694 166
HStem: -166 21G<311 340 468.5 499.5> 611 84<519 594 679 773.394>
DStem2: 428.844 -166 513.844 -166 0.207912 0.978148<43.5625 794.359>
LayerCount: 2
Fore
SplineSet
154 423 m 0
 154 551 278 695 488 695 c 2
 729 695 l 2
 773 695 779 664 779 653 c 0
 779 639 773 611 727 611 c 2
 679 611 l 1
 524 -120 l 2
 523 -123 519 -166 480 -166 c 0
 457 -166 439 -146 439 -124 c 0
 439 -116 442 -106 443 -101 c 2
 594 611 l 1
 519 611 l 1
 366 -109 l 2
 362 -127 359 -166 321 -166 c 0
 301 -166 279 -150 279 -125 c 0
 279 -118 278 -123 352 226 c 1
 255 240 154 305 154 423 c 0
EndSplineSet
EndChar

StartChar: periodcentered
Encoding: 183 183 366
Width: 219
Flags: HW
TeX: 475 0
HStem: 194 112<118 207>
VStem: 95 135
LayerCount: 2
Fore
SplineSet
95 194 m 1
 118 306 l 1
 230 306 l 1
 207 194 l 1
 95 194 l 1
EndSplineSet
EndChar

